%TF.GenerationSoftware,KiCad,Pcbnew,8.0.1*%
%TF.CreationDate,2024-04-24T16:47:29+07:00*%
%TF.ProjectId,holyiot-21043-nrf52810,686f6c79-696f-4742-9d32-313034332d6e,rev?*%
%TF.SameCoordinates,Original*%
%TF.FileFunction,Drillmap*%
%TF.FilePolarity,Positive*%
%FSLAX45Y45*%
G04 Gerber Fmt 4.5, Leading zero omitted, Abs format (unit mm)*
G04 Created by KiCad (PCBNEW 8.0.1) date 2024-04-24 16:47:29*
%MOMM*%
%LPD*%
G01*
G04 APERTURE LIST*
%ADD10C,0.050000*%
%ADD11C,0.200000*%
G04 APERTURE END LIST*
D10*
X12000000Y-9870000D02*
X16600000Y-9870000D01*
X16600000Y-13200000D01*
X12000000Y-13200000D01*
X12000000Y-9870000D01*
D11*
X12258277Y-13513984D02*
X12258277Y-13313984D01*
X12258277Y-13313984D02*
X12305896Y-13313984D01*
X12305896Y-13313984D02*
X12334467Y-13323508D01*
X12334467Y-13323508D02*
X12353515Y-13342555D01*
X12353515Y-13342555D02*
X12363039Y-13361603D01*
X12363039Y-13361603D02*
X12372562Y-13399698D01*
X12372562Y-13399698D02*
X12372562Y-13428269D01*
X12372562Y-13428269D02*
X12363039Y-13466365D01*
X12363039Y-13466365D02*
X12353515Y-13485412D01*
X12353515Y-13485412D02*
X12334467Y-13504460D01*
X12334467Y-13504460D02*
X12305896Y-13513984D01*
X12305896Y-13513984D02*
X12258277Y-13513984D01*
X12458277Y-13513984D02*
X12458277Y-13380650D01*
X12458277Y-13418746D02*
X12467801Y-13399698D01*
X12467801Y-13399698D02*
X12477324Y-13390174D01*
X12477324Y-13390174D02*
X12496372Y-13380650D01*
X12496372Y-13380650D02*
X12515420Y-13380650D01*
X12582086Y-13513984D02*
X12582086Y-13380650D01*
X12582086Y-13313984D02*
X12572562Y-13323508D01*
X12572562Y-13323508D02*
X12582086Y-13333031D01*
X12582086Y-13333031D02*
X12591610Y-13323508D01*
X12591610Y-13323508D02*
X12582086Y-13313984D01*
X12582086Y-13313984D02*
X12582086Y-13333031D01*
X12705896Y-13513984D02*
X12686848Y-13504460D01*
X12686848Y-13504460D02*
X12677324Y-13485412D01*
X12677324Y-13485412D02*
X12677324Y-13313984D01*
X12810658Y-13513984D02*
X12791610Y-13504460D01*
X12791610Y-13504460D02*
X12782086Y-13485412D01*
X12782086Y-13485412D02*
X12782086Y-13313984D01*
X13039229Y-13513984D02*
X13039229Y-13313984D01*
X13039229Y-13313984D02*
X13105896Y-13456841D01*
X13105896Y-13456841D02*
X13172562Y-13313984D01*
X13172562Y-13313984D02*
X13172562Y-13513984D01*
X13353515Y-13513984D02*
X13353515Y-13409222D01*
X13353515Y-13409222D02*
X13343991Y-13390174D01*
X13343991Y-13390174D02*
X13324943Y-13380650D01*
X13324943Y-13380650D02*
X13286848Y-13380650D01*
X13286848Y-13380650D02*
X13267801Y-13390174D01*
X13353515Y-13504460D02*
X13334467Y-13513984D01*
X13334467Y-13513984D02*
X13286848Y-13513984D01*
X13286848Y-13513984D02*
X13267801Y-13504460D01*
X13267801Y-13504460D02*
X13258277Y-13485412D01*
X13258277Y-13485412D02*
X13258277Y-13466365D01*
X13258277Y-13466365D02*
X13267801Y-13447317D01*
X13267801Y-13447317D02*
X13286848Y-13437793D01*
X13286848Y-13437793D02*
X13334467Y-13437793D01*
X13334467Y-13437793D02*
X13353515Y-13428269D01*
X13448753Y-13380650D02*
X13448753Y-13580650D01*
X13448753Y-13390174D02*
X13467801Y-13380650D01*
X13467801Y-13380650D02*
X13505896Y-13380650D01*
X13505896Y-13380650D02*
X13524943Y-13390174D01*
X13524943Y-13390174D02*
X13534467Y-13399698D01*
X13534467Y-13399698D02*
X13543991Y-13418746D01*
X13543991Y-13418746D02*
X13543991Y-13475888D01*
X13543991Y-13475888D02*
X13534467Y-13494936D01*
X13534467Y-13494936D02*
X13524943Y-13504460D01*
X13524943Y-13504460D02*
X13505896Y-13513984D01*
X13505896Y-13513984D02*
X13467801Y-13513984D01*
X13467801Y-13513984D02*
X13448753Y-13504460D01*
X13629705Y-13494936D02*
X13639229Y-13504460D01*
X13639229Y-13504460D02*
X13629705Y-13513984D01*
X13629705Y-13513984D02*
X13620182Y-13504460D01*
X13620182Y-13504460D02*
X13629705Y-13494936D01*
X13629705Y-13494936D02*
X13629705Y-13513984D01*
X13629705Y-13390174D02*
X13639229Y-13399698D01*
X13639229Y-13399698D02*
X13629705Y-13409222D01*
X13629705Y-13409222D02*
X13620182Y-13399698D01*
X13620182Y-13399698D02*
X13629705Y-13390174D01*
X13629705Y-13390174D02*
X13629705Y-13409222D01*
M02*
