M48
; DRILL file {KiCad 8.0.1} date 2024-04-24T16:47:28+0700
; FORMAT={-:-/ absolute / metric / decimal}
; #@! TF.CreationDate,2024-04-24T16:47:28+07:00
; #@! TF.GenerationSoftware,Kicad,Pcbnew,8.0.1
; #@! TF.FileFunction,Plated,1,2,PTH
FMAT,2
METRIC
; #@! TA.AperFunction,Plated,PTH,ViaDrill
T1C0.300
; #@! TA.AperFunction,Plated,PTH,ComponentDrill
T2C1.000
%
G90
G05
T1
X148.8Y-109.0
X148.8Y-110.2
X152.0Y-109.6
X153.0Y-109.6
T2
X124.0Y-101.22
X124.0Y-103.76
X124.0Y-106.3
X124.0Y-108.84
X124.0Y-111.38
X124.0Y-113.92
X124.0Y-116.46
X124.0Y-119.0
X124.0Y-121.54
X124.0Y-124.08
X124.0Y-126.62
X128.76Y-128.0
X131.3Y-128.0
X133.84Y-128.0
X136.38Y-128.0
X138.92Y-128.0
X141.46Y-128.0
X144.0Y-128.0
X146.54Y-128.0
X149.08Y-128.0
X151.62Y-128.0
X154.0Y-116.2
X154.0Y-118.74
X154.16Y-128.0
X156.7Y-128.0
X162.0Y-101.3
X162.0Y-103.84
X162.0Y-106.38
X162.0Y-108.92
X162.0Y-111.46
X162.0Y-114.0
X162.0Y-116.54
X162.0Y-119.08
X162.0Y-121.62
X162.0Y-124.16
X162.0Y-126.7
M30
