%TF.GenerationSoftware,KiCad,Pcbnew,8.0.1*%
%TF.CreationDate,2024-04-24T16:47:31+07:00*%
%TF.ProjectId,holyiot-21043-nrf52810,686f6c79-696f-4742-9d32-313034332d6e,rev?*%
%TF.SameCoordinates,Original*%
%TF.FileFunction,Copper,L1,Top*%
%TF.FilePolarity,Positive*%
%FSLAX46Y46*%
G04 Gerber Fmt 4.6, Leading zero omitted, Abs format (unit mm)*
G04 Created by KiCad (PCBNEW 8.0.1) date 2024-04-24 16:47:31*
%MOMM*%
%LPD*%
G01*
G04 APERTURE LIST*
%TA.AperFunction,ComponentPad*%
%ADD10R,1.700000X1.700000*%
%TD*%
%TA.AperFunction,ComponentPad*%
%ADD11O,1.700000X1.700000*%
%TD*%
%TA.AperFunction,SMDPad,CuDef*%
%ADD12R,1.500000X0.850000*%
%TD*%
%TA.AperFunction,SMDPad,CuDef*%
%ADD13R,0.850000X1.500000*%
%TD*%
%TA.AperFunction,ViaPad*%
%ADD14C,0.600000*%
%TD*%
%TA.AperFunction,Conductor*%
%ADD15C,0.200000*%
%TD*%
%TA.AperFunction,Conductor*%
%ADD16C,0.800000*%
%TD*%
G04 APERTURE END LIST*
D10*
%TO.P,J1,1,Pin_1*%
%TO.N,/P0.25*%
X162000000Y-101300000D03*
D11*
%TO.P,J1,2,Pin_2*%
%TO.N,/P0.26*%
X162000000Y-103840000D03*
%TO.P,J1,3,Pin_3*%
%TO.N,/P0.27*%
X162000000Y-106380000D03*
%TO.P,J1,4,Pin_4*%
%TO.N,/P0.28*%
X162000000Y-108920000D03*
%TO.P,J1,5,Pin_5*%
%TO.N,/P0.29*%
X162000000Y-111460000D03*
%TO.P,J1,6,Pin_6*%
%TO.N,/P0.30*%
X162000000Y-114000000D03*
%TO.P,J1,7,Pin_7*%
%TO.N,/P0.31*%
X162000000Y-116540000D03*
%TO.P,J1,8,Pin_8*%
%TO.N,/P0.02*%
X162000000Y-119080000D03*
%TO.P,J1,9,Pin_9*%
%TO.N,/P0.03*%
X162000000Y-121620000D03*
%TO.P,J1,10,Pin_10*%
%TO.N,/GND*%
X162000000Y-124160000D03*
%TO.P,J1,11,Pin_11*%
%TO.N,/VCC*%
X162000000Y-126700000D03*
%TD*%
D10*
%TO.P,J4,1,Pin_1*%
%TO.N,/VCC*%
X154000000Y-118740000D03*
D11*
%TO.P,J4,2,Pin_2*%
%TO.N,Net-(J4-Pin_2)*%
X154000000Y-116200000D03*
%TD*%
D12*
%TO.P,U1,1,P0.25*%
%TO.N,/P0.25*%
X150500010Y-99680000D03*
%TO.P,U1,2,P0.26*%
%TO.N,/P0.26*%
X150500010Y-100780000D03*
%TO.P,U1,3,P0.27*%
%TO.N,/P0.27*%
X150500010Y-101880000D03*
%TO.P,U1,4,P0.28*%
%TO.N,/P0.28*%
X150500010Y-102980000D03*
%TO.P,U1,5,P0.29*%
%TO.N,/P0.29*%
X150500010Y-104080000D03*
%TO.P,U1,6,P0.30*%
%TO.N,/P0.30*%
X150500010Y-105180000D03*
%TO.P,U1,7,P0.31*%
%TO.N,/P0.31*%
X150500010Y-106280000D03*
%TO.P,U1,8,P0.02*%
%TO.N,/P0.02*%
X150500010Y-107380000D03*
%TO.P,U1,9,P0.03*%
%TO.N,/P0.03*%
X150500010Y-108480000D03*
%TO.P,U1,10,GND*%
%TO.N,/GND*%
X150500010Y-109580000D03*
%TO.P,U1,11,VCC*%
%TO.N,Net-(J4-Pin_2)*%
X150500010Y-110680000D03*
D13*
%TO.P,U1,12,P0.04*%
%TO.N,/P0.04*%
X149050010Y-112320000D03*
%TO.P,U1,13,P0.05*%
%TO.N,/P0.05*%
X147950010Y-112320000D03*
%TO.P,U1,14,P0.06*%
%TO.N,/P0.06*%
X146850010Y-112320000D03*
%TO.P,U1,15,P0.07*%
%TO.N,/P0.07*%
X145750010Y-112320000D03*
%TO.P,U1,16,P0.08*%
%TO.N,/P0.08*%
X144650010Y-112320000D03*
%TO.P,U1,17,P0.09*%
%TO.N,/P0.09*%
X143550010Y-112320000D03*
%TO.P,U1,18,P0.10*%
%TO.N,/P0.10*%
X142450000Y-112320000D03*
%TO.P,U1,19,P0.11*%
%TO.N,/P0.11*%
X141350000Y-112320000D03*
%TO.P,U1,20,P0.12*%
%TO.N,/P0.12*%
X140250010Y-112320000D03*
%TO.P,U1,21,P0.13*%
%TO.N,/P0.13*%
X139150010Y-112320000D03*
%TO.P,U1,22,P0.14*%
%TO.N,/P0.14*%
X138050010Y-112320000D03*
%TO.P,U1,23,P0.15*%
%TO.N,/P0.15*%
X136950000Y-112320000D03*
D12*
%TO.P,U1,24,P0.21/RESET*%
%TO.N,/P0.21{slash}RESET*%
X135499990Y-110680000D03*
%TO.P,U1,25,P0.20*%
%TO.N,/P0.20*%
X135499990Y-109580000D03*
%TO.P,U1,26,P0.19*%
%TO.N,/P0.19*%
X135499990Y-108480000D03*
%TO.P,U1,27,P0.18*%
%TO.N,/P0.18*%
X135499990Y-107380000D03*
%TO.P,U1,28,P0.17*%
%TO.N,/P0.17*%
X135499990Y-106280000D03*
%TO.P,U1,29,P0.16*%
%TO.N,/P0.16*%
X135499990Y-105180000D03*
%TO.P,U1,30,SWDCLK*%
%TO.N,/SWDCLK*%
X135499990Y-104080000D03*
%TO.P,U1,31,SWDIO*%
%TO.N,/SWDIO*%
X135499990Y-102980000D03*
%TO.P,U1,32,P0.22*%
%TO.N,/P0.22*%
X135499990Y-101880000D03*
%TO.P,U1,33,P0.23*%
%TO.N,/P0.23*%
X135499990Y-100780000D03*
%TO.P,U1,34,P0.24*%
%TO.N,/P0.24*%
X135499990Y-99680000D03*
%TD*%
D10*
%TO.P,J2,1,Pin_1*%
%TO.N,/P0.24*%
X124000000Y-101220000D03*
D11*
%TO.P,J2,2,Pin_2*%
%TO.N,/P0.23*%
X124000000Y-103760000D03*
%TO.P,J2,3,Pin_3*%
%TO.N,/P0.22*%
X124000000Y-106300000D03*
%TO.P,J2,4,Pin_4*%
%TO.N,/SWDIO*%
X124000000Y-108840000D03*
%TO.P,J2,5,Pin_5*%
%TO.N,/SWDCLK*%
X124000000Y-111380000D03*
%TO.P,J2,6,Pin_6*%
%TO.N,/P0.16*%
X124000000Y-113920000D03*
%TO.P,J2,7,Pin_7*%
%TO.N,/P0.17*%
X124000000Y-116460000D03*
%TO.P,J2,8,Pin_8*%
%TO.N,/P0.18*%
X124000000Y-119000000D03*
%TO.P,J2,9,Pin_9*%
%TO.N,/P0.19*%
X124000000Y-121540000D03*
%TO.P,J2,10,Pin_10*%
%TO.N,/P0.20*%
X124000000Y-124080000D03*
%TO.P,J2,11,Pin_11*%
%TO.N,/P0.21{slash}RESET*%
X124000000Y-126620000D03*
%TD*%
D10*
%TO.P,J3,1,Pin_1*%
%TO.N,/P0.15*%
X128760000Y-128000000D03*
D11*
%TO.P,J3,2,Pin_2*%
%TO.N,/P0.14*%
X131300000Y-128000000D03*
%TO.P,J3,3,Pin_3*%
%TO.N,/P0.13*%
X133840000Y-128000000D03*
%TO.P,J3,4,Pin_4*%
%TO.N,/P0.12*%
X136380000Y-128000000D03*
%TO.P,J3,5,Pin_5*%
%TO.N,/P0.11*%
X138920000Y-128000000D03*
%TO.P,J3,6,Pin_6*%
%TO.N,/P0.10*%
X141460000Y-128000000D03*
%TO.P,J3,7,Pin_7*%
%TO.N,/P0.09*%
X144000000Y-128000000D03*
%TO.P,J3,8,Pin_8*%
%TO.N,/P0.08*%
X146540000Y-128000000D03*
%TO.P,J3,9,Pin_9*%
%TO.N,/P0.07*%
X149080000Y-128000000D03*
%TO.P,J3,10,Pin_10*%
%TO.N,/P0.06*%
X151620000Y-128000000D03*
%TO.P,J3,11,Pin_11*%
%TO.N,/P0.05*%
X154160000Y-128000000D03*
%TO.P,J3,12,Pin_12*%
%TO.N,/P0.04*%
X156700000Y-128000000D03*
%TD*%
D14*
%TO.N,/GND*%
X153000000Y-109600000D03*
X148800000Y-110200000D03*
X152000000Y-109600000D03*
X148800000Y-109000000D03*
%TD*%
D15*
%TO.N,/P0.31*%
X154680000Y-106280000D02*
X158800000Y-110400000D01*
X150500010Y-106280000D02*
X154680000Y-106280000D01*
X158800000Y-110400000D02*
X158800000Y-113340000D01*
X158800000Y-113340000D02*
X162000000Y-116540000D01*
%TO.N,/P0.28*%
X154580000Y-102980000D02*
X160520000Y-108920000D01*
X160520000Y-108920000D02*
X162000000Y-108920000D01*
X150500010Y-102980000D02*
X154580000Y-102980000D01*
%TO.N,/P0.25*%
X156500000Y-101300000D02*
X162000000Y-101300000D01*
X154880000Y-99680000D02*
X156500000Y-101300000D01*
X150500010Y-99680000D02*
X154880000Y-99680000D01*
%TO.N,/P0.02*%
X154780000Y-107380000D02*
X158200000Y-110800000D01*
X150500010Y-107380000D02*
X154780000Y-107380000D01*
X158200000Y-110800000D02*
X158200000Y-115280000D01*
X158200000Y-115280000D02*
X162000000Y-119080000D01*
D16*
%TO.N,/GND*%
X153800000Y-109600000D02*
X153000000Y-109600000D01*
X156400000Y-118560000D02*
X156400000Y-112200000D01*
X156400000Y-112200000D02*
X153800000Y-109600000D01*
X162000000Y-124160000D02*
X156400000Y-118560000D01*
%TO.N,/VCC*%
X154000000Y-118740000D02*
X154040000Y-118740000D01*
X154040000Y-118740000D02*
X162000000Y-126700000D01*
D15*
%TO.N,/P0.03*%
X157600000Y-111200000D02*
X157600000Y-115600000D01*
X150500010Y-108480000D02*
X154880000Y-108480000D01*
X154880000Y-108480000D02*
X157600000Y-111200000D01*
X160200000Y-118200000D02*
X160200000Y-119820000D01*
X157600000Y-115600000D02*
X160200000Y-118200000D01*
X160200000Y-119820000D02*
X162000000Y-121620000D01*
%TO.N,/P0.26*%
X157840000Y-103840000D02*
X162000000Y-103840000D01*
X150500010Y-100780000D02*
X154780000Y-100780000D01*
X154780000Y-100780000D02*
X157840000Y-103840000D01*
%TO.N,/P0.29*%
X150500010Y-104080000D02*
X154620000Y-104080000D01*
X154620000Y-104080000D02*
X162000000Y-111460000D01*
%TO.N,/P0.30*%
X154580000Y-105180000D02*
X159400000Y-110000000D01*
X159400000Y-111400000D02*
X162000000Y-114000000D01*
X150500010Y-105180000D02*
X154580000Y-105180000D01*
X159400000Y-110000000D02*
X159400000Y-111400000D01*
%TO.N,/P0.27*%
X150500010Y-101880000D02*
X154680000Y-101880000D01*
X154680000Y-101880000D02*
X159180000Y-106380000D01*
X159180000Y-106380000D02*
X162000000Y-106380000D01*
%TO.N,/P0.19*%
X135499990Y-108480000D02*
X133120000Y-108480000D01*
X128200000Y-113400000D02*
X128200000Y-117340000D01*
X128200000Y-117340000D02*
X124000000Y-121540000D01*
X133120000Y-108480000D02*
X128200000Y-113400000D01*
%TO.N,/P0.18*%
X127200000Y-113200000D02*
X127200000Y-115800000D01*
X134804990Y-107400000D02*
X133000000Y-107400000D01*
X135499990Y-107380000D02*
X134824990Y-107380000D01*
X133000000Y-107400000D02*
X127200000Y-113200000D01*
X127200000Y-115800000D02*
X124000000Y-119000000D01*
X134824990Y-107380000D02*
X134804990Y-107400000D01*
%TO.N,/SWDIO*%
X126760000Y-108840000D02*
X124000000Y-108840000D01*
X132620000Y-102980000D02*
X126760000Y-108840000D01*
X135499990Y-102980000D02*
X132620000Y-102980000D01*
%TO.N,/P0.24*%
X135499990Y-99680000D02*
X131720000Y-99680000D01*
X130180000Y-101220000D02*
X124000000Y-101220000D01*
X131720000Y-99680000D02*
X130180000Y-101220000D01*
%TO.N,/P0.23*%
X129240000Y-103760000D02*
X124000000Y-103760000D01*
X135499990Y-100780000D02*
X132220000Y-100780000D01*
X132220000Y-100780000D02*
X129240000Y-103760000D01*
%TO.N,/P0.17*%
X124140000Y-116460000D02*
X124000000Y-116460000D01*
X126200000Y-114400000D02*
X124140000Y-116460000D01*
X135499990Y-106280000D02*
X132920000Y-106280000D01*
X132920000Y-106280000D02*
X126200000Y-113000000D01*
X126200000Y-113000000D02*
X126200000Y-114400000D01*
%TO.N,/SWDCLK*%
X135499990Y-104080000D02*
X132720000Y-104080000D01*
X132720000Y-104080000D02*
X125420000Y-111380000D01*
X125420000Y-111380000D02*
X124000000Y-111380000D01*
%TO.N,/P0.20*%
X129200000Y-113500000D02*
X129200000Y-118880000D01*
X129200000Y-118880000D02*
X124000000Y-124080000D01*
X135499990Y-109580000D02*
X133120000Y-109580000D01*
X133120000Y-109580000D02*
X129200000Y-113500000D01*
%TO.N,/P0.21{slash}RESET*%
X133320000Y-110680000D02*
X130200000Y-113800000D01*
X130200000Y-113800000D02*
X130200000Y-120420000D01*
X130200000Y-120420000D02*
X124000000Y-126620000D01*
X135499990Y-110680000D02*
X133320000Y-110680000D01*
%TO.N,/P0.16*%
X124080000Y-113920000D02*
X124000000Y-113920000D01*
X132820000Y-105180000D02*
X124080000Y-113920000D01*
X135499990Y-105180000D02*
X132820000Y-105180000D01*
%TO.N,/P0.22*%
X135499990Y-101880000D02*
X132520000Y-101880000D01*
X132520000Y-101880000D02*
X128100000Y-106300000D01*
X128100000Y-106300000D02*
X124000000Y-106300000D01*
%TO.N,/P0.04*%
X149050010Y-116650010D02*
X156700000Y-124300000D01*
X149050010Y-112320000D02*
X149050010Y-116650010D01*
X156700000Y-124300000D02*
X156700000Y-128000000D01*
%TO.N,/P0.11*%
X141350000Y-112320000D02*
X141350000Y-119650000D01*
X141350000Y-119650000D02*
X138920000Y-122080000D01*
X138920000Y-122080000D02*
X138920000Y-128000000D01*
%TO.N,/P0.14*%
X131300000Y-123500000D02*
X131300000Y-128000000D01*
X138050010Y-116749990D02*
X131300000Y-123500000D01*
X138050010Y-112320000D02*
X138050010Y-116749990D01*
%TO.N,/P0.07*%
X145750010Y-119550010D02*
X149080000Y-122880000D01*
X145750010Y-112320000D02*
X145750010Y-119550010D01*
X149080000Y-122880000D02*
X149080000Y-128000000D01*
%TO.N,/P0.09*%
X143550010Y-121750010D02*
X144000000Y-122200000D01*
X143550010Y-112320000D02*
X143550010Y-121750010D01*
X144000000Y-122200000D02*
X144000000Y-128000000D01*
%TO.N,/P0.10*%
X142450000Y-121750000D02*
X141460000Y-122740000D01*
X142450000Y-112320000D02*
X142450000Y-121750000D01*
X141460000Y-122740000D02*
X141460000Y-128000000D01*
%TO.N,/P0.15*%
X136950000Y-115650000D02*
X128800000Y-123800000D01*
X128760000Y-124240000D02*
X128760000Y-128000000D01*
X136950000Y-112320000D02*
X136950000Y-115650000D01*
X128800000Y-123800000D02*
X128800000Y-124200000D01*
X128800000Y-124200000D02*
X128760000Y-124240000D01*
%TO.N,/P0.08*%
X144650010Y-120850010D02*
X146540000Y-122740000D01*
X146540000Y-122740000D02*
X146540000Y-128000000D01*
X144650010Y-112320000D02*
X144650010Y-120850010D01*
%TO.N,/P0.05*%
X154160000Y-123760000D02*
X154160000Y-128000000D01*
X147950010Y-117550010D02*
X154160000Y-123760000D01*
X147950010Y-112320000D02*
X147950010Y-117550010D01*
%TO.N,/P0.12*%
X140250010Y-118549990D02*
X136380000Y-122420000D01*
X136380000Y-122420000D02*
X136380000Y-128000000D01*
X140250010Y-112320000D02*
X140250010Y-118549990D01*
%TO.N,/P0.13*%
X139150010Y-112320000D02*
X139150010Y-117449990D01*
X133840000Y-122760000D02*
X133840000Y-128000000D01*
X139150010Y-117449990D02*
X133840000Y-122760000D01*
%TO.N,/P0.06*%
X146850010Y-118650010D02*
X151620000Y-123420000D01*
X146850010Y-112320000D02*
X146850010Y-118650010D01*
X151620000Y-123420000D02*
X151620000Y-128000000D01*
D16*
%TO.N,Net-(J4-Pin_2)*%
X154000000Y-112400000D02*
X154000000Y-116200000D01*
X150500010Y-110680000D02*
X152280000Y-110680000D01*
X152280000Y-110680000D02*
X154000000Y-112400000D01*
%TD*%
%TA.AperFunction,Conductor*%
%TO.N,/GND*%
G36*
X149143039Y-108619685D02*
G01*
X149188794Y-108672489D01*
X149200000Y-108724000D01*
X149200000Y-109200000D01*
X151200000Y-109200000D01*
X153476000Y-109200000D01*
X153543039Y-109219685D01*
X153588794Y-109272489D01*
X153600000Y-109324000D01*
X153600000Y-109876000D01*
X153580315Y-109943039D01*
X153527511Y-109988794D01*
X153476000Y-110000000D01*
X149200000Y-110000000D01*
X149200000Y-110476000D01*
X149180315Y-110543039D01*
X149127511Y-110588794D01*
X149076000Y-110600000D01*
X149000000Y-110600000D01*
X148524000Y-110600000D01*
X148456961Y-110580315D01*
X148411206Y-110527511D01*
X148400000Y-110476000D01*
X148400000Y-108724000D01*
X148419685Y-108656961D01*
X148472489Y-108611206D01*
X148524000Y-108600000D01*
X149076000Y-108600000D01*
X149143039Y-108619685D01*
G37*
%TD.AperFunction*%
%TD*%
M02*
