%TF.GenerationSoftware,KiCad,Pcbnew,8.0.1*%
%TF.CreationDate,2024-04-24T16:47:31+07:00*%
%TF.ProjectId,holyiot-21043-nrf52810,686f6c79-696f-4742-9d32-313034332d6e,rev?*%
%TF.SameCoordinates,Original*%
%TF.FileFunction,Copper,L2,Bot*%
%TF.FilePolarity,Positive*%
%FSLAX46Y46*%
G04 Gerber Fmt 4.6, Leading zero omitted, Abs format (unit mm)*
G04 Created by KiCad (PCBNEW 8.0.1) date 2024-04-24 16:47:31*
%MOMM*%
%LPD*%
G01*
G04 APERTURE LIST*
%TA.AperFunction,ComponentPad*%
%ADD10R,1.700000X1.700000*%
%TD*%
%TA.AperFunction,ComponentPad*%
%ADD11O,1.700000X1.700000*%
%TD*%
%TA.AperFunction,ViaPad*%
%ADD12C,0.600000*%
%TD*%
G04 APERTURE END LIST*
D10*
%TO.P,J1,1,Pin_1*%
%TO.N,/P0.25*%
X162000000Y-101300000D03*
D11*
%TO.P,J1,2,Pin_2*%
%TO.N,/P0.26*%
X162000000Y-103840000D03*
%TO.P,J1,3,Pin_3*%
%TO.N,/P0.27*%
X162000000Y-106380000D03*
%TO.P,J1,4,Pin_4*%
%TO.N,/P0.28*%
X162000000Y-108920000D03*
%TO.P,J1,5,Pin_5*%
%TO.N,/P0.29*%
X162000000Y-111460000D03*
%TO.P,J1,6,Pin_6*%
%TO.N,/P0.30*%
X162000000Y-114000000D03*
%TO.P,J1,7,Pin_7*%
%TO.N,/P0.31*%
X162000000Y-116540000D03*
%TO.P,J1,8,Pin_8*%
%TO.N,/P0.02*%
X162000000Y-119080000D03*
%TO.P,J1,9,Pin_9*%
%TO.N,/P0.03*%
X162000000Y-121620000D03*
%TO.P,J1,10,Pin_10*%
%TO.N,/GND*%
X162000000Y-124160000D03*
%TO.P,J1,11,Pin_11*%
%TO.N,/VCC*%
X162000000Y-126700000D03*
%TD*%
D10*
%TO.P,J4,1,Pin_1*%
%TO.N,/VCC*%
X154000000Y-118740000D03*
D11*
%TO.P,J4,2,Pin_2*%
%TO.N,Net-(J4-Pin_2)*%
X154000000Y-116200000D03*
%TD*%
D10*
%TO.P,J2,1,Pin_1*%
%TO.N,/P0.24*%
X124000000Y-101220000D03*
D11*
%TO.P,J2,2,Pin_2*%
%TO.N,/P0.23*%
X124000000Y-103760000D03*
%TO.P,J2,3,Pin_3*%
%TO.N,/P0.22*%
X124000000Y-106300000D03*
%TO.P,J2,4,Pin_4*%
%TO.N,/SWDIO*%
X124000000Y-108840000D03*
%TO.P,J2,5,Pin_5*%
%TO.N,/SWDCLK*%
X124000000Y-111380000D03*
%TO.P,J2,6,Pin_6*%
%TO.N,/P0.16*%
X124000000Y-113920000D03*
%TO.P,J2,7,Pin_7*%
%TO.N,/P0.17*%
X124000000Y-116460000D03*
%TO.P,J2,8,Pin_8*%
%TO.N,/P0.18*%
X124000000Y-119000000D03*
%TO.P,J2,9,Pin_9*%
%TO.N,/P0.19*%
X124000000Y-121540000D03*
%TO.P,J2,10,Pin_10*%
%TO.N,/P0.20*%
X124000000Y-124080000D03*
%TO.P,J2,11,Pin_11*%
%TO.N,/P0.21{slash}RESET*%
X124000000Y-126620000D03*
%TD*%
D10*
%TO.P,J3,1,Pin_1*%
%TO.N,/P0.15*%
X128760000Y-128000000D03*
D11*
%TO.P,J3,2,Pin_2*%
%TO.N,/P0.14*%
X131300000Y-128000000D03*
%TO.P,J3,3,Pin_3*%
%TO.N,/P0.13*%
X133840000Y-128000000D03*
%TO.P,J3,4,Pin_4*%
%TO.N,/P0.12*%
X136380000Y-128000000D03*
%TO.P,J3,5,Pin_5*%
%TO.N,/P0.11*%
X138920000Y-128000000D03*
%TO.P,J3,6,Pin_6*%
%TO.N,/P0.10*%
X141460000Y-128000000D03*
%TO.P,J3,7,Pin_7*%
%TO.N,/P0.09*%
X144000000Y-128000000D03*
%TO.P,J3,8,Pin_8*%
%TO.N,/P0.08*%
X146540000Y-128000000D03*
%TO.P,J3,9,Pin_9*%
%TO.N,/P0.07*%
X149080000Y-128000000D03*
%TO.P,J3,10,Pin_10*%
%TO.N,/P0.06*%
X151620000Y-128000000D03*
%TO.P,J3,11,Pin_11*%
%TO.N,/P0.05*%
X154160000Y-128000000D03*
%TO.P,J3,12,Pin_12*%
%TO.N,/P0.04*%
X156700000Y-128000000D03*
%TD*%
D12*
%TO.N,/GND*%
X153000000Y-109600000D03*
X148800000Y-110200000D03*
X152000000Y-109600000D03*
X148800000Y-109000000D03*
%TD*%
%TA.AperFunction,Conductor*%
%TO.N,/GND*%
G36*
X165442539Y-99220185D02*
G01*
X165488294Y-99272989D01*
X165499500Y-99324500D01*
X165499500Y-131375500D01*
X165479815Y-131442539D01*
X165427011Y-131488294D01*
X165375500Y-131499500D01*
X120624500Y-131499500D01*
X120557461Y-131479815D01*
X120511706Y-131427011D01*
X120500500Y-131375500D01*
X120500500Y-128869752D01*
X127709500Y-128869752D01*
X127721131Y-128928229D01*
X127721132Y-128928230D01*
X127765447Y-128994552D01*
X127831769Y-129038867D01*
X127831770Y-129038868D01*
X127890247Y-129050499D01*
X127890250Y-129050500D01*
X127890252Y-129050500D01*
X129629750Y-129050500D01*
X129629751Y-129050499D01*
X129644568Y-129047552D01*
X129688229Y-129038868D01*
X129688229Y-129038867D01*
X129688231Y-129038867D01*
X129754552Y-128994552D01*
X129798867Y-128928231D01*
X129798867Y-128928229D01*
X129798868Y-128928229D01*
X129810499Y-128869752D01*
X129810500Y-128869750D01*
X129810500Y-128000000D01*
X130244417Y-128000000D01*
X130264699Y-128205932D01*
X130264700Y-128205934D01*
X130324768Y-128403954D01*
X130422315Y-128586450D01*
X130422317Y-128586452D01*
X130553589Y-128746410D01*
X130650209Y-128825702D01*
X130713550Y-128877685D01*
X130896046Y-128975232D01*
X131094066Y-129035300D01*
X131094065Y-129035300D01*
X131112529Y-129037118D01*
X131300000Y-129055583D01*
X131505934Y-129035300D01*
X131703954Y-128975232D01*
X131886450Y-128877685D01*
X132046410Y-128746410D01*
X132177685Y-128586450D01*
X132275232Y-128403954D01*
X132335300Y-128205934D01*
X132355583Y-128000000D01*
X132784417Y-128000000D01*
X132804699Y-128205932D01*
X132804700Y-128205934D01*
X132864768Y-128403954D01*
X132962315Y-128586450D01*
X132962317Y-128586452D01*
X133093589Y-128746410D01*
X133190209Y-128825702D01*
X133253550Y-128877685D01*
X133436046Y-128975232D01*
X133634066Y-129035300D01*
X133634065Y-129035300D01*
X133652529Y-129037118D01*
X133840000Y-129055583D01*
X134045934Y-129035300D01*
X134243954Y-128975232D01*
X134426450Y-128877685D01*
X134586410Y-128746410D01*
X134717685Y-128586450D01*
X134815232Y-128403954D01*
X134875300Y-128205934D01*
X134895583Y-128000000D01*
X135324417Y-128000000D01*
X135344699Y-128205932D01*
X135344700Y-128205934D01*
X135404768Y-128403954D01*
X135502315Y-128586450D01*
X135502317Y-128586452D01*
X135633589Y-128746410D01*
X135730209Y-128825702D01*
X135793550Y-128877685D01*
X135976046Y-128975232D01*
X136174066Y-129035300D01*
X136174065Y-129035300D01*
X136192529Y-129037118D01*
X136380000Y-129055583D01*
X136585934Y-129035300D01*
X136783954Y-128975232D01*
X136966450Y-128877685D01*
X137126410Y-128746410D01*
X137257685Y-128586450D01*
X137355232Y-128403954D01*
X137415300Y-128205934D01*
X137435583Y-128000000D01*
X137864417Y-128000000D01*
X137884699Y-128205932D01*
X137884700Y-128205934D01*
X137944768Y-128403954D01*
X138042315Y-128586450D01*
X138042317Y-128586452D01*
X138173589Y-128746410D01*
X138270209Y-128825702D01*
X138333550Y-128877685D01*
X138516046Y-128975232D01*
X138714066Y-129035300D01*
X138714065Y-129035300D01*
X138732529Y-129037118D01*
X138920000Y-129055583D01*
X139125934Y-129035300D01*
X139323954Y-128975232D01*
X139506450Y-128877685D01*
X139666410Y-128746410D01*
X139797685Y-128586450D01*
X139895232Y-128403954D01*
X139955300Y-128205934D01*
X139975583Y-128000000D01*
X140404417Y-128000000D01*
X140424699Y-128205932D01*
X140424700Y-128205934D01*
X140484768Y-128403954D01*
X140582315Y-128586450D01*
X140582317Y-128586452D01*
X140713589Y-128746410D01*
X140810209Y-128825702D01*
X140873550Y-128877685D01*
X141056046Y-128975232D01*
X141254066Y-129035300D01*
X141254065Y-129035300D01*
X141272529Y-129037118D01*
X141460000Y-129055583D01*
X141665934Y-129035300D01*
X141863954Y-128975232D01*
X142046450Y-128877685D01*
X142206410Y-128746410D01*
X142337685Y-128586450D01*
X142435232Y-128403954D01*
X142495300Y-128205934D01*
X142515583Y-128000000D01*
X142944417Y-128000000D01*
X142964699Y-128205932D01*
X142964700Y-128205934D01*
X143024768Y-128403954D01*
X143122315Y-128586450D01*
X143122317Y-128586452D01*
X143253589Y-128746410D01*
X143350209Y-128825702D01*
X143413550Y-128877685D01*
X143596046Y-128975232D01*
X143794066Y-129035300D01*
X143794065Y-129035300D01*
X143812529Y-129037118D01*
X144000000Y-129055583D01*
X144205934Y-129035300D01*
X144403954Y-128975232D01*
X144586450Y-128877685D01*
X144746410Y-128746410D01*
X144877685Y-128586450D01*
X144975232Y-128403954D01*
X145035300Y-128205934D01*
X145055583Y-128000000D01*
X145484417Y-128000000D01*
X145504699Y-128205932D01*
X145504700Y-128205934D01*
X145564768Y-128403954D01*
X145662315Y-128586450D01*
X145662317Y-128586452D01*
X145793589Y-128746410D01*
X145890209Y-128825702D01*
X145953550Y-128877685D01*
X146136046Y-128975232D01*
X146334066Y-129035300D01*
X146334065Y-129035300D01*
X146352529Y-129037118D01*
X146540000Y-129055583D01*
X146745934Y-129035300D01*
X146943954Y-128975232D01*
X147126450Y-128877685D01*
X147286410Y-128746410D01*
X147417685Y-128586450D01*
X147515232Y-128403954D01*
X147575300Y-128205934D01*
X147595583Y-128000000D01*
X148024417Y-128000000D01*
X148044699Y-128205932D01*
X148044700Y-128205934D01*
X148104768Y-128403954D01*
X148202315Y-128586450D01*
X148202317Y-128586452D01*
X148333589Y-128746410D01*
X148430209Y-128825702D01*
X148493550Y-128877685D01*
X148676046Y-128975232D01*
X148874066Y-129035300D01*
X148874065Y-129035300D01*
X148892529Y-129037118D01*
X149080000Y-129055583D01*
X149285934Y-129035300D01*
X149483954Y-128975232D01*
X149666450Y-128877685D01*
X149826410Y-128746410D01*
X149957685Y-128586450D01*
X150055232Y-128403954D01*
X150115300Y-128205934D01*
X150135583Y-128000000D01*
X150564417Y-128000000D01*
X150584699Y-128205932D01*
X150584700Y-128205934D01*
X150644768Y-128403954D01*
X150742315Y-128586450D01*
X150742317Y-128586452D01*
X150873589Y-128746410D01*
X150970209Y-128825702D01*
X151033550Y-128877685D01*
X151216046Y-128975232D01*
X151414066Y-129035300D01*
X151414065Y-129035300D01*
X151432529Y-129037118D01*
X151620000Y-129055583D01*
X151825934Y-129035300D01*
X152023954Y-128975232D01*
X152206450Y-128877685D01*
X152366410Y-128746410D01*
X152497685Y-128586450D01*
X152595232Y-128403954D01*
X152655300Y-128205934D01*
X152675583Y-128000000D01*
X153104417Y-128000000D01*
X153124699Y-128205932D01*
X153124700Y-128205934D01*
X153184768Y-128403954D01*
X153282315Y-128586450D01*
X153282317Y-128586452D01*
X153413589Y-128746410D01*
X153510209Y-128825702D01*
X153573550Y-128877685D01*
X153756046Y-128975232D01*
X153954066Y-129035300D01*
X153954065Y-129035300D01*
X153972529Y-129037118D01*
X154160000Y-129055583D01*
X154365934Y-129035300D01*
X154563954Y-128975232D01*
X154746450Y-128877685D01*
X154906410Y-128746410D01*
X155037685Y-128586450D01*
X155135232Y-128403954D01*
X155195300Y-128205934D01*
X155215583Y-128000000D01*
X155644417Y-128000000D01*
X155664699Y-128205932D01*
X155664700Y-128205934D01*
X155724768Y-128403954D01*
X155822315Y-128586450D01*
X155822317Y-128586452D01*
X155953589Y-128746410D01*
X156050209Y-128825702D01*
X156113550Y-128877685D01*
X156296046Y-128975232D01*
X156494066Y-129035300D01*
X156494065Y-129035300D01*
X156512529Y-129037118D01*
X156700000Y-129055583D01*
X156905934Y-129035300D01*
X157103954Y-128975232D01*
X157286450Y-128877685D01*
X157446410Y-128746410D01*
X157577685Y-128586450D01*
X157675232Y-128403954D01*
X157735300Y-128205934D01*
X157755583Y-128000000D01*
X157735300Y-127794066D01*
X157675232Y-127596046D01*
X157577685Y-127413550D01*
X157525702Y-127350209D01*
X157446410Y-127253589D01*
X157296121Y-127130252D01*
X157286450Y-127122315D01*
X157103954Y-127024768D01*
X156905934Y-126964700D01*
X156905932Y-126964699D01*
X156905934Y-126964699D01*
X156700000Y-126944417D01*
X156494067Y-126964699D01*
X156359736Y-127005448D01*
X156298730Y-127023954D01*
X156296043Y-127024769D01*
X156208114Y-127071769D01*
X156113550Y-127122315D01*
X156113548Y-127122316D01*
X156113547Y-127122317D01*
X155953589Y-127253589D01*
X155822317Y-127413547D01*
X155724769Y-127596043D01*
X155664699Y-127794067D01*
X155644417Y-128000000D01*
X155215583Y-128000000D01*
X155195300Y-127794066D01*
X155135232Y-127596046D01*
X155037685Y-127413550D01*
X154985702Y-127350209D01*
X154906410Y-127253589D01*
X154756121Y-127130252D01*
X154746450Y-127122315D01*
X154563954Y-127024768D01*
X154365934Y-126964700D01*
X154365932Y-126964699D01*
X154365934Y-126964699D01*
X154160000Y-126944417D01*
X153954067Y-126964699D01*
X153819736Y-127005448D01*
X153758730Y-127023954D01*
X153756043Y-127024769D01*
X153668114Y-127071769D01*
X153573550Y-127122315D01*
X153573548Y-127122316D01*
X153573547Y-127122317D01*
X153413589Y-127253589D01*
X153282317Y-127413547D01*
X153184769Y-127596043D01*
X153124699Y-127794067D01*
X153104417Y-128000000D01*
X152675583Y-128000000D01*
X152655300Y-127794066D01*
X152595232Y-127596046D01*
X152497685Y-127413550D01*
X152445702Y-127350209D01*
X152366410Y-127253589D01*
X152216121Y-127130252D01*
X152206450Y-127122315D01*
X152023954Y-127024768D01*
X151825934Y-126964700D01*
X151825932Y-126964699D01*
X151825934Y-126964699D01*
X151620000Y-126944417D01*
X151414067Y-126964699D01*
X151279736Y-127005448D01*
X151218730Y-127023954D01*
X151216043Y-127024769D01*
X151128114Y-127071769D01*
X151033550Y-127122315D01*
X151033548Y-127122316D01*
X151033547Y-127122317D01*
X150873589Y-127253589D01*
X150742317Y-127413547D01*
X150644769Y-127596043D01*
X150584699Y-127794067D01*
X150564417Y-128000000D01*
X150135583Y-128000000D01*
X150115300Y-127794066D01*
X150055232Y-127596046D01*
X149957685Y-127413550D01*
X149905702Y-127350209D01*
X149826410Y-127253589D01*
X149676121Y-127130252D01*
X149666450Y-127122315D01*
X149483954Y-127024768D01*
X149285934Y-126964700D01*
X149285932Y-126964699D01*
X149285934Y-126964699D01*
X149080000Y-126944417D01*
X148874067Y-126964699D01*
X148739736Y-127005448D01*
X148678730Y-127023954D01*
X148676043Y-127024769D01*
X148588114Y-127071769D01*
X148493550Y-127122315D01*
X148493548Y-127122316D01*
X148493547Y-127122317D01*
X148333589Y-127253589D01*
X148202317Y-127413547D01*
X148104769Y-127596043D01*
X148044699Y-127794067D01*
X148024417Y-128000000D01*
X147595583Y-128000000D01*
X147575300Y-127794066D01*
X147515232Y-127596046D01*
X147417685Y-127413550D01*
X147365702Y-127350209D01*
X147286410Y-127253589D01*
X147136121Y-127130252D01*
X147126450Y-127122315D01*
X146943954Y-127024768D01*
X146745934Y-126964700D01*
X146745932Y-126964699D01*
X146745934Y-126964699D01*
X146540000Y-126944417D01*
X146334067Y-126964699D01*
X146199736Y-127005448D01*
X146138730Y-127023954D01*
X146136043Y-127024769D01*
X146048114Y-127071769D01*
X145953550Y-127122315D01*
X145953548Y-127122316D01*
X145953547Y-127122317D01*
X145793589Y-127253589D01*
X145662317Y-127413547D01*
X145564769Y-127596043D01*
X145504699Y-127794067D01*
X145484417Y-128000000D01*
X145055583Y-128000000D01*
X145035300Y-127794066D01*
X144975232Y-127596046D01*
X144877685Y-127413550D01*
X144825702Y-127350209D01*
X144746410Y-127253589D01*
X144596121Y-127130252D01*
X144586450Y-127122315D01*
X144403954Y-127024768D01*
X144205934Y-126964700D01*
X144205932Y-126964699D01*
X144205934Y-126964699D01*
X144000000Y-126944417D01*
X143794067Y-126964699D01*
X143659736Y-127005448D01*
X143598730Y-127023954D01*
X143596043Y-127024769D01*
X143508114Y-127071769D01*
X143413550Y-127122315D01*
X143413548Y-127122316D01*
X143413547Y-127122317D01*
X143253589Y-127253589D01*
X143122317Y-127413547D01*
X143024769Y-127596043D01*
X142964699Y-127794067D01*
X142944417Y-128000000D01*
X142515583Y-128000000D01*
X142495300Y-127794066D01*
X142435232Y-127596046D01*
X142337685Y-127413550D01*
X142285702Y-127350209D01*
X142206410Y-127253589D01*
X142056121Y-127130252D01*
X142046450Y-127122315D01*
X141863954Y-127024768D01*
X141665934Y-126964700D01*
X141665932Y-126964699D01*
X141665934Y-126964699D01*
X141460000Y-126944417D01*
X141254067Y-126964699D01*
X141119736Y-127005448D01*
X141058730Y-127023954D01*
X141056043Y-127024769D01*
X140968114Y-127071769D01*
X140873550Y-127122315D01*
X140873548Y-127122316D01*
X140873547Y-127122317D01*
X140713589Y-127253589D01*
X140582317Y-127413547D01*
X140484769Y-127596043D01*
X140424699Y-127794067D01*
X140404417Y-128000000D01*
X139975583Y-128000000D01*
X139955300Y-127794066D01*
X139895232Y-127596046D01*
X139797685Y-127413550D01*
X139745702Y-127350209D01*
X139666410Y-127253589D01*
X139516121Y-127130252D01*
X139506450Y-127122315D01*
X139323954Y-127024768D01*
X139125934Y-126964700D01*
X139125932Y-126964699D01*
X139125934Y-126964699D01*
X138920000Y-126944417D01*
X138714067Y-126964699D01*
X138579736Y-127005448D01*
X138518730Y-127023954D01*
X138516043Y-127024769D01*
X138428114Y-127071769D01*
X138333550Y-127122315D01*
X138333548Y-127122316D01*
X138333547Y-127122317D01*
X138173589Y-127253589D01*
X138042317Y-127413547D01*
X137944769Y-127596043D01*
X137884699Y-127794067D01*
X137864417Y-128000000D01*
X137435583Y-128000000D01*
X137415300Y-127794066D01*
X137355232Y-127596046D01*
X137257685Y-127413550D01*
X137205702Y-127350209D01*
X137126410Y-127253589D01*
X136976121Y-127130252D01*
X136966450Y-127122315D01*
X136783954Y-127024768D01*
X136585934Y-126964700D01*
X136585932Y-126964699D01*
X136585934Y-126964699D01*
X136380000Y-126944417D01*
X136174067Y-126964699D01*
X136039736Y-127005448D01*
X135978730Y-127023954D01*
X135976043Y-127024769D01*
X135888114Y-127071769D01*
X135793550Y-127122315D01*
X135793548Y-127122316D01*
X135793547Y-127122317D01*
X135633589Y-127253589D01*
X135502317Y-127413547D01*
X135404769Y-127596043D01*
X135344699Y-127794067D01*
X135324417Y-128000000D01*
X134895583Y-128000000D01*
X134875300Y-127794066D01*
X134815232Y-127596046D01*
X134717685Y-127413550D01*
X134665702Y-127350209D01*
X134586410Y-127253589D01*
X134436121Y-127130252D01*
X134426450Y-127122315D01*
X134243954Y-127024768D01*
X134045934Y-126964700D01*
X134045932Y-126964699D01*
X134045934Y-126964699D01*
X133840000Y-126944417D01*
X133634067Y-126964699D01*
X133499736Y-127005448D01*
X133438730Y-127023954D01*
X133436043Y-127024769D01*
X133348114Y-127071769D01*
X133253550Y-127122315D01*
X133253548Y-127122316D01*
X133253547Y-127122317D01*
X133093589Y-127253589D01*
X132962317Y-127413547D01*
X132864769Y-127596043D01*
X132804699Y-127794067D01*
X132784417Y-128000000D01*
X132355583Y-128000000D01*
X132335300Y-127794066D01*
X132275232Y-127596046D01*
X132177685Y-127413550D01*
X132125702Y-127350209D01*
X132046410Y-127253589D01*
X131896121Y-127130252D01*
X131886450Y-127122315D01*
X131703954Y-127024768D01*
X131505934Y-126964700D01*
X131505932Y-126964699D01*
X131505934Y-126964699D01*
X131300000Y-126944417D01*
X131094067Y-126964699D01*
X130959736Y-127005448D01*
X130898730Y-127023954D01*
X130896043Y-127024769D01*
X130808114Y-127071769D01*
X130713550Y-127122315D01*
X130713548Y-127122316D01*
X130713547Y-127122317D01*
X130553589Y-127253589D01*
X130422317Y-127413547D01*
X130324769Y-127596043D01*
X130264699Y-127794067D01*
X130244417Y-128000000D01*
X129810500Y-128000000D01*
X129810500Y-127130249D01*
X129810499Y-127130247D01*
X129798868Y-127071770D01*
X129798867Y-127071769D01*
X129754552Y-127005447D01*
X129688230Y-126961132D01*
X129688229Y-126961131D01*
X129629752Y-126949500D01*
X129629748Y-126949500D01*
X127890252Y-126949500D01*
X127890247Y-126949500D01*
X127831770Y-126961131D01*
X127831769Y-126961132D01*
X127765447Y-127005447D01*
X127721132Y-127071769D01*
X127721131Y-127071770D01*
X127709500Y-127130247D01*
X127709500Y-128869752D01*
X120500500Y-128869752D01*
X120500500Y-126620000D01*
X122944417Y-126620000D01*
X122964699Y-126825932D01*
X122964700Y-126825934D01*
X123024768Y-127023954D01*
X123122315Y-127206450D01*
X123122317Y-127206452D01*
X123253589Y-127366410D01*
X123350209Y-127445702D01*
X123413550Y-127497685D01*
X123596046Y-127595232D01*
X123794066Y-127655300D01*
X123794065Y-127655300D01*
X123812529Y-127657118D01*
X124000000Y-127675583D01*
X124205934Y-127655300D01*
X124403954Y-127595232D01*
X124586450Y-127497685D01*
X124746410Y-127366410D01*
X124877685Y-127206450D01*
X124975232Y-127023954D01*
X125035300Y-126825934D01*
X125047704Y-126700000D01*
X160944417Y-126700000D01*
X160964699Y-126905932D01*
X160981444Y-126961132D01*
X161024768Y-127103954D01*
X161122315Y-127286450D01*
X161122317Y-127286452D01*
X161253589Y-127446410D01*
X161316065Y-127497682D01*
X161413550Y-127577685D01*
X161596046Y-127675232D01*
X161794066Y-127735300D01*
X161794065Y-127735300D01*
X161812529Y-127737118D01*
X162000000Y-127755583D01*
X162205934Y-127735300D01*
X162403954Y-127675232D01*
X162586450Y-127577685D01*
X162746410Y-127446410D01*
X162877685Y-127286450D01*
X162975232Y-127103954D01*
X163035300Y-126905934D01*
X163055583Y-126700000D01*
X163035300Y-126494066D01*
X162975232Y-126296046D01*
X162877685Y-126113550D01*
X162812029Y-126033547D01*
X162746410Y-125953589D01*
X162586452Y-125822317D01*
X162586453Y-125822317D01*
X162586450Y-125822315D01*
X162403954Y-125724768D01*
X162205934Y-125664700D01*
X162205932Y-125664699D01*
X162205934Y-125664699D01*
X162000000Y-125644417D01*
X161794067Y-125664699D01*
X161596043Y-125724769D01*
X161563214Y-125742317D01*
X161413550Y-125822315D01*
X161413548Y-125822316D01*
X161413547Y-125822317D01*
X161253589Y-125953589D01*
X161122317Y-126113547D01*
X161024769Y-126296043D01*
X160964699Y-126494067D01*
X160944417Y-126700000D01*
X125047704Y-126700000D01*
X125055583Y-126620000D01*
X125035300Y-126414066D01*
X124975232Y-126216046D01*
X124877685Y-126033550D01*
X124812063Y-125953589D01*
X124746410Y-125873589D01*
X124586452Y-125742317D01*
X124586453Y-125742317D01*
X124586450Y-125742315D01*
X124403954Y-125644768D01*
X124205934Y-125584700D01*
X124205932Y-125584699D01*
X124205934Y-125584699D01*
X124000000Y-125564417D01*
X123794067Y-125584699D01*
X123596043Y-125644769D01*
X123485898Y-125703643D01*
X123413550Y-125742315D01*
X123413548Y-125742316D01*
X123413547Y-125742317D01*
X123253589Y-125873589D01*
X123122317Y-126033547D01*
X123024769Y-126216043D01*
X122964699Y-126414067D01*
X122944417Y-126620000D01*
X120500500Y-126620000D01*
X120500500Y-124080000D01*
X122944417Y-124080000D01*
X122964699Y-124285932D01*
X122964700Y-124285934D01*
X123024768Y-124483954D01*
X123122315Y-124666450D01*
X123122317Y-124666452D01*
X123253589Y-124826410D01*
X123350209Y-124905702D01*
X123413550Y-124957685D01*
X123596046Y-125055232D01*
X123794066Y-125115300D01*
X123794065Y-125115300D01*
X123812529Y-125117118D01*
X124000000Y-125135583D01*
X124205934Y-125115300D01*
X124403954Y-125055232D01*
X124586450Y-124957685D01*
X124746410Y-124826410D01*
X124877685Y-124666450D01*
X124975232Y-124483954D01*
X125035300Y-124285934D01*
X125055583Y-124080000D01*
X125035300Y-123874066D01*
X124975232Y-123676046D01*
X124877685Y-123493550D01*
X124825702Y-123430209D01*
X124746410Y-123333589D01*
X124586452Y-123202317D01*
X124586453Y-123202317D01*
X124586450Y-123202315D01*
X124403954Y-123104768D01*
X124205934Y-123044700D01*
X124205932Y-123044699D01*
X124205934Y-123044699D01*
X124000000Y-123024417D01*
X123794067Y-123044699D01*
X123596043Y-123104769D01*
X123485898Y-123163643D01*
X123413550Y-123202315D01*
X123413548Y-123202316D01*
X123413547Y-123202317D01*
X123253589Y-123333589D01*
X123122317Y-123493547D01*
X123024769Y-123676043D01*
X122964699Y-123874067D01*
X122944417Y-124080000D01*
X120500500Y-124080000D01*
X120500500Y-121540000D01*
X122944417Y-121540000D01*
X122964699Y-121745932D01*
X122964700Y-121745934D01*
X123024768Y-121943954D01*
X123122315Y-122126450D01*
X123122317Y-122126452D01*
X123253589Y-122286410D01*
X123350209Y-122365702D01*
X123413550Y-122417685D01*
X123596046Y-122515232D01*
X123794066Y-122575300D01*
X123794065Y-122575300D01*
X123812529Y-122577118D01*
X124000000Y-122595583D01*
X124205934Y-122575300D01*
X124403954Y-122515232D01*
X124586450Y-122417685D01*
X124746410Y-122286410D01*
X124877685Y-122126450D01*
X124975232Y-121943954D01*
X125035300Y-121745934D01*
X125047704Y-121620000D01*
X160944417Y-121620000D01*
X160964699Y-121825932D01*
X160964700Y-121825934D01*
X161024768Y-122023954D01*
X161122315Y-122206450D01*
X161122317Y-122206452D01*
X161253589Y-122366410D01*
X161316065Y-122417682D01*
X161413550Y-122497685D01*
X161596046Y-122595232D01*
X161794066Y-122655300D01*
X161794065Y-122655300D01*
X161812529Y-122657118D01*
X162000000Y-122675583D01*
X162205934Y-122655300D01*
X162403954Y-122595232D01*
X162586450Y-122497685D01*
X162746410Y-122366410D01*
X162877685Y-122206450D01*
X162975232Y-122023954D01*
X163035300Y-121825934D01*
X163055583Y-121620000D01*
X163035300Y-121414066D01*
X162975232Y-121216046D01*
X162877685Y-121033550D01*
X162812029Y-120953547D01*
X162746410Y-120873589D01*
X162586452Y-120742317D01*
X162586453Y-120742317D01*
X162586450Y-120742315D01*
X162403954Y-120644768D01*
X162205934Y-120584700D01*
X162205932Y-120584699D01*
X162205934Y-120584699D01*
X162000000Y-120564417D01*
X161794067Y-120584699D01*
X161596043Y-120644769D01*
X161563214Y-120662317D01*
X161413550Y-120742315D01*
X161413548Y-120742316D01*
X161413547Y-120742317D01*
X161253589Y-120873589D01*
X161122317Y-121033547D01*
X161024769Y-121216043D01*
X160964699Y-121414067D01*
X160944417Y-121620000D01*
X125047704Y-121620000D01*
X125055583Y-121540000D01*
X125035300Y-121334066D01*
X124975232Y-121136046D01*
X124877685Y-120953550D01*
X124812063Y-120873589D01*
X124746410Y-120793589D01*
X124586452Y-120662317D01*
X124586453Y-120662317D01*
X124586450Y-120662315D01*
X124403954Y-120564768D01*
X124205934Y-120504700D01*
X124205932Y-120504699D01*
X124205934Y-120504699D01*
X124000000Y-120484417D01*
X123794067Y-120504699D01*
X123596043Y-120564769D01*
X123485898Y-120623643D01*
X123413550Y-120662315D01*
X123413548Y-120662316D01*
X123413547Y-120662317D01*
X123253589Y-120793589D01*
X123122317Y-120953547D01*
X123024769Y-121136043D01*
X122964699Y-121334067D01*
X122944417Y-121540000D01*
X120500500Y-121540000D01*
X120500500Y-119000000D01*
X122944417Y-119000000D01*
X122964699Y-119205932D01*
X122964700Y-119205934D01*
X123024768Y-119403954D01*
X123122315Y-119586450D01*
X123156969Y-119628677D01*
X123253589Y-119746410D01*
X123307314Y-119790500D01*
X123413550Y-119877685D01*
X123596046Y-119975232D01*
X123794066Y-120035300D01*
X123794065Y-120035300D01*
X123812529Y-120037118D01*
X124000000Y-120055583D01*
X124205934Y-120035300D01*
X124403954Y-119975232D01*
X124586450Y-119877685D01*
X124746410Y-119746410D01*
X124858562Y-119609752D01*
X152949500Y-119609752D01*
X152961131Y-119668229D01*
X152961132Y-119668230D01*
X153005447Y-119734552D01*
X153071769Y-119778867D01*
X153071770Y-119778868D01*
X153130247Y-119790499D01*
X153130250Y-119790500D01*
X153130252Y-119790500D01*
X154869750Y-119790500D01*
X154869751Y-119790499D01*
X154884568Y-119787552D01*
X154928229Y-119778868D01*
X154928229Y-119778867D01*
X154928231Y-119778867D01*
X154994552Y-119734552D01*
X155038867Y-119668231D01*
X155038867Y-119668229D01*
X155038868Y-119668229D01*
X155050499Y-119609752D01*
X155050500Y-119609750D01*
X155050500Y-119080000D01*
X160944417Y-119080000D01*
X160964699Y-119285932D01*
X160964700Y-119285934D01*
X161024768Y-119483954D01*
X161122315Y-119666450D01*
X161122317Y-119666452D01*
X161253589Y-119826410D01*
X161316065Y-119877682D01*
X161413550Y-119957685D01*
X161596046Y-120055232D01*
X161794066Y-120115300D01*
X161794065Y-120115300D01*
X161812529Y-120117118D01*
X162000000Y-120135583D01*
X162205934Y-120115300D01*
X162403954Y-120055232D01*
X162586450Y-119957685D01*
X162746410Y-119826410D01*
X162877685Y-119666450D01*
X162975232Y-119483954D01*
X163035300Y-119285934D01*
X163055583Y-119080000D01*
X163035300Y-118874066D01*
X162975232Y-118676046D01*
X162877685Y-118493550D01*
X162812029Y-118413547D01*
X162746410Y-118333589D01*
X162586452Y-118202317D01*
X162586453Y-118202317D01*
X162586450Y-118202315D01*
X162403954Y-118104768D01*
X162205934Y-118044700D01*
X162205932Y-118044699D01*
X162205934Y-118044699D01*
X162000000Y-118024417D01*
X161794067Y-118044699D01*
X161596043Y-118104769D01*
X161563214Y-118122317D01*
X161413550Y-118202315D01*
X161413548Y-118202316D01*
X161413547Y-118202317D01*
X161253589Y-118333589D01*
X161122317Y-118493547D01*
X161024769Y-118676043D01*
X160964699Y-118874067D01*
X160944417Y-119080000D01*
X155050500Y-119080000D01*
X155050500Y-117870249D01*
X155050499Y-117870247D01*
X155038868Y-117811770D01*
X155038867Y-117811769D01*
X154994552Y-117745447D01*
X154928230Y-117701132D01*
X154928229Y-117701131D01*
X154869752Y-117689500D01*
X154869748Y-117689500D01*
X153130252Y-117689500D01*
X153130247Y-117689500D01*
X153071770Y-117701131D01*
X153071769Y-117701132D01*
X153005447Y-117745447D01*
X152961132Y-117811769D01*
X152961131Y-117811770D01*
X152949500Y-117870247D01*
X152949500Y-119609752D01*
X124858562Y-119609752D01*
X124877685Y-119586450D01*
X124975232Y-119403954D01*
X125035300Y-119205934D01*
X125055583Y-119000000D01*
X125035300Y-118794066D01*
X124975232Y-118596046D01*
X124877685Y-118413550D01*
X124812063Y-118333589D01*
X124746410Y-118253589D01*
X124586452Y-118122317D01*
X124586453Y-118122317D01*
X124586450Y-118122315D01*
X124403954Y-118024768D01*
X124205934Y-117964700D01*
X124205932Y-117964699D01*
X124205934Y-117964699D01*
X124000000Y-117944417D01*
X123794067Y-117964699D01*
X123596043Y-118024769D01*
X123485898Y-118083643D01*
X123413550Y-118122315D01*
X123413548Y-118122316D01*
X123413547Y-118122317D01*
X123253589Y-118253589D01*
X123122317Y-118413547D01*
X123024769Y-118596043D01*
X122964699Y-118794067D01*
X122944417Y-119000000D01*
X120500500Y-119000000D01*
X120500500Y-116460000D01*
X122944417Y-116460000D01*
X122964699Y-116665932D01*
X122964700Y-116665934D01*
X123024768Y-116863954D01*
X123122315Y-117046450D01*
X123122317Y-117046452D01*
X123253589Y-117206410D01*
X123350209Y-117285702D01*
X123413550Y-117337685D01*
X123596046Y-117435232D01*
X123794066Y-117495300D01*
X123794065Y-117495300D01*
X123812529Y-117497118D01*
X124000000Y-117515583D01*
X124205934Y-117495300D01*
X124403954Y-117435232D01*
X124586450Y-117337685D01*
X124746410Y-117206410D01*
X124877685Y-117046450D01*
X124975232Y-116863954D01*
X125035300Y-116665934D01*
X125055583Y-116460000D01*
X125035300Y-116254066D01*
X125018899Y-116200000D01*
X152944417Y-116200000D01*
X152964699Y-116405932D01*
X152994734Y-116504944D01*
X153024768Y-116603954D01*
X153122315Y-116786450D01*
X153122317Y-116786452D01*
X153253589Y-116946410D01*
X153350209Y-117025702D01*
X153413550Y-117077685D01*
X153596046Y-117175232D01*
X153794066Y-117235300D01*
X153794065Y-117235300D01*
X153812529Y-117237118D01*
X154000000Y-117255583D01*
X154205934Y-117235300D01*
X154403954Y-117175232D01*
X154586450Y-117077685D01*
X154746410Y-116946410D01*
X154877685Y-116786450D01*
X154975232Y-116603954D01*
X154994632Y-116540000D01*
X160944417Y-116540000D01*
X160964699Y-116745932D01*
X160964700Y-116745934D01*
X161024768Y-116943954D01*
X161122315Y-117126450D01*
X161122317Y-117126452D01*
X161253589Y-117286410D01*
X161316065Y-117337682D01*
X161413550Y-117417685D01*
X161596046Y-117515232D01*
X161794066Y-117575300D01*
X161794065Y-117575300D01*
X161812529Y-117577118D01*
X162000000Y-117595583D01*
X162205934Y-117575300D01*
X162403954Y-117515232D01*
X162586450Y-117417685D01*
X162746410Y-117286410D01*
X162877685Y-117126450D01*
X162975232Y-116943954D01*
X163035300Y-116745934D01*
X163055583Y-116540000D01*
X163035300Y-116334066D01*
X162975232Y-116136046D01*
X162877685Y-115953550D01*
X162748426Y-115796046D01*
X162746410Y-115793589D01*
X162586452Y-115662317D01*
X162586453Y-115662317D01*
X162586450Y-115662315D01*
X162403954Y-115564768D01*
X162205934Y-115504700D01*
X162205932Y-115504699D01*
X162205934Y-115504699D01*
X162000000Y-115484417D01*
X161794067Y-115504699D01*
X161596043Y-115564769D01*
X161563214Y-115582317D01*
X161413550Y-115662315D01*
X161413548Y-115662316D01*
X161413547Y-115662317D01*
X161253589Y-115793589D01*
X161122317Y-115953547D01*
X161024769Y-116136043D01*
X160964699Y-116334067D01*
X160944417Y-116540000D01*
X154994632Y-116540000D01*
X155035300Y-116405934D01*
X155055583Y-116200000D01*
X155035300Y-115994066D01*
X154975232Y-115796046D01*
X154877685Y-115613550D01*
X154771998Y-115484769D01*
X154746410Y-115453589D01*
X154586452Y-115322317D01*
X154586453Y-115322317D01*
X154586450Y-115322315D01*
X154403954Y-115224768D01*
X154205934Y-115164700D01*
X154205932Y-115164699D01*
X154205934Y-115164699D01*
X154000000Y-115144417D01*
X153794067Y-115164699D01*
X153596043Y-115224769D01*
X153485898Y-115283643D01*
X153413550Y-115322315D01*
X153413548Y-115322316D01*
X153413547Y-115322317D01*
X153253589Y-115453589D01*
X153122317Y-115613547D01*
X153024769Y-115796043D01*
X152964699Y-115994067D01*
X152944417Y-116200000D01*
X125018899Y-116200000D01*
X124975232Y-116056046D01*
X124877685Y-115873550D01*
X124825702Y-115810209D01*
X124746410Y-115713589D01*
X124624510Y-115613550D01*
X124586450Y-115582315D01*
X124403954Y-115484768D01*
X124205934Y-115424700D01*
X124205932Y-115424699D01*
X124205934Y-115424699D01*
X124000000Y-115404417D01*
X123794067Y-115424699D01*
X123596043Y-115484769D01*
X123485898Y-115543643D01*
X123413550Y-115582315D01*
X123413548Y-115582316D01*
X123413547Y-115582317D01*
X123253589Y-115713589D01*
X123122317Y-115873547D01*
X123024769Y-116056043D01*
X122964699Y-116254067D01*
X122944417Y-116460000D01*
X120500500Y-116460000D01*
X120500500Y-113920000D01*
X122944417Y-113920000D01*
X122964699Y-114125932D01*
X122964700Y-114125934D01*
X123024768Y-114323954D01*
X123122315Y-114506450D01*
X123122317Y-114506452D01*
X123253589Y-114666410D01*
X123350209Y-114745702D01*
X123413550Y-114797685D01*
X123596046Y-114895232D01*
X123794066Y-114955300D01*
X123794065Y-114955300D01*
X123812529Y-114957118D01*
X124000000Y-114975583D01*
X124205934Y-114955300D01*
X124403954Y-114895232D01*
X124586450Y-114797685D01*
X124746410Y-114666410D01*
X124877685Y-114506450D01*
X124975232Y-114323954D01*
X125035300Y-114125934D01*
X125047704Y-114000000D01*
X160944417Y-114000000D01*
X160964699Y-114205932D01*
X160964700Y-114205934D01*
X161024768Y-114403954D01*
X161122315Y-114586450D01*
X161122317Y-114586452D01*
X161253589Y-114746410D01*
X161316065Y-114797682D01*
X161413550Y-114877685D01*
X161596046Y-114975232D01*
X161794066Y-115035300D01*
X161794065Y-115035300D01*
X161812529Y-115037118D01*
X162000000Y-115055583D01*
X162205934Y-115035300D01*
X162403954Y-114975232D01*
X162586450Y-114877685D01*
X162746410Y-114746410D01*
X162877685Y-114586450D01*
X162975232Y-114403954D01*
X163035300Y-114205934D01*
X163055583Y-114000000D01*
X163035300Y-113794066D01*
X162975232Y-113596046D01*
X162877685Y-113413550D01*
X162812029Y-113333547D01*
X162746410Y-113253589D01*
X162586452Y-113122317D01*
X162586453Y-113122317D01*
X162586450Y-113122315D01*
X162403954Y-113024768D01*
X162205934Y-112964700D01*
X162205932Y-112964699D01*
X162205934Y-112964699D01*
X162000000Y-112944417D01*
X161794067Y-112964699D01*
X161596043Y-113024769D01*
X161563214Y-113042317D01*
X161413550Y-113122315D01*
X161413548Y-113122316D01*
X161413547Y-113122317D01*
X161253589Y-113253589D01*
X161122317Y-113413547D01*
X161024769Y-113596043D01*
X160964699Y-113794067D01*
X160944417Y-114000000D01*
X125047704Y-114000000D01*
X125055583Y-113920000D01*
X125035300Y-113714066D01*
X124975232Y-113516046D01*
X124877685Y-113333550D01*
X124812063Y-113253589D01*
X124746410Y-113173589D01*
X124586452Y-113042317D01*
X124586453Y-113042317D01*
X124586450Y-113042315D01*
X124403954Y-112944768D01*
X124205934Y-112884700D01*
X124205932Y-112884699D01*
X124205934Y-112884699D01*
X124000000Y-112864417D01*
X123794067Y-112884699D01*
X123596043Y-112944769D01*
X123485898Y-113003643D01*
X123413550Y-113042315D01*
X123413548Y-113042316D01*
X123413547Y-113042317D01*
X123253589Y-113173589D01*
X123122317Y-113333547D01*
X123024769Y-113516043D01*
X122964699Y-113714067D01*
X122944417Y-113920000D01*
X120500500Y-113920000D01*
X120500500Y-111380000D01*
X122944417Y-111380000D01*
X122964699Y-111585932D01*
X122964700Y-111585934D01*
X123024768Y-111783954D01*
X123122315Y-111966450D01*
X123122317Y-111966452D01*
X123253589Y-112126410D01*
X123350209Y-112205702D01*
X123413550Y-112257685D01*
X123596046Y-112355232D01*
X123794066Y-112415300D01*
X123794065Y-112415300D01*
X123812529Y-112417118D01*
X124000000Y-112435583D01*
X124205934Y-112415300D01*
X124403954Y-112355232D01*
X124586450Y-112257685D01*
X124746410Y-112126410D01*
X124877685Y-111966450D01*
X124975232Y-111783954D01*
X125035300Y-111585934D01*
X125047704Y-111460000D01*
X160944417Y-111460000D01*
X160964699Y-111665932D01*
X160964700Y-111665934D01*
X161024768Y-111863954D01*
X161122315Y-112046450D01*
X161122317Y-112046452D01*
X161253589Y-112206410D01*
X161316065Y-112257682D01*
X161413550Y-112337685D01*
X161596046Y-112435232D01*
X161794066Y-112495300D01*
X161794065Y-112495300D01*
X161812529Y-112497118D01*
X162000000Y-112515583D01*
X162205934Y-112495300D01*
X162403954Y-112435232D01*
X162586450Y-112337685D01*
X162746410Y-112206410D01*
X162877685Y-112046450D01*
X162975232Y-111863954D01*
X163035300Y-111665934D01*
X163055583Y-111460000D01*
X163035300Y-111254066D01*
X162975232Y-111056046D01*
X162877685Y-110873550D01*
X162812029Y-110793547D01*
X162746410Y-110713589D01*
X162586452Y-110582317D01*
X162586453Y-110582317D01*
X162586450Y-110582315D01*
X162403954Y-110484768D01*
X162205934Y-110424700D01*
X162205932Y-110424699D01*
X162205934Y-110424699D01*
X162000000Y-110404417D01*
X161794067Y-110424699D01*
X161596043Y-110484769D01*
X161563214Y-110502317D01*
X161413550Y-110582315D01*
X161413548Y-110582316D01*
X161413547Y-110582317D01*
X161253589Y-110713589D01*
X161122317Y-110873547D01*
X161024769Y-111056043D01*
X160964699Y-111254067D01*
X160944417Y-111460000D01*
X125047704Y-111460000D01*
X125055583Y-111380000D01*
X125035300Y-111174066D01*
X124975232Y-110976046D01*
X124877685Y-110793550D01*
X124812063Y-110713589D01*
X124746410Y-110633589D01*
X124586452Y-110502317D01*
X124586453Y-110502317D01*
X124586450Y-110502315D01*
X124403954Y-110404768D01*
X124205934Y-110344700D01*
X124205932Y-110344699D01*
X124205934Y-110344699D01*
X124000000Y-110324417D01*
X123794067Y-110344699D01*
X123596043Y-110404769D01*
X123485898Y-110463643D01*
X123413550Y-110502315D01*
X123413548Y-110502316D01*
X123413547Y-110502317D01*
X123253589Y-110633589D01*
X123122317Y-110793547D01*
X123024769Y-110976043D01*
X122964699Y-111174067D01*
X122944417Y-111380000D01*
X120500500Y-111380000D01*
X120500500Y-108840000D01*
X122944417Y-108840000D01*
X122964699Y-109045932D01*
X122964700Y-109045934D01*
X123024768Y-109243954D01*
X123122315Y-109426450D01*
X123122317Y-109426452D01*
X123253589Y-109586410D01*
X123350209Y-109665702D01*
X123413550Y-109717685D01*
X123596046Y-109815232D01*
X123794066Y-109875300D01*
X123794065Y-109875300D01*
X123812529Y-109877118D01*
X124000000Y-109895583D01*
X124205934Y-109875300D01*
X124403954Y-109815232D01*
X124586450Y-109717685D01*
X124746410Y-109586410D01*
X124877685Y-109426450D01*
X124975232Y-109243954D01*
X125035300Y-109045934D01*
X125047704Y-108920000D01*
X160944417Y-108920000D01*
X160964699Y-109125932D01*
X160964700Y-109125934D01*
X161024768Y-109323954D01*
X161122315Y-109506450D01*
X161122317Y-109506452D01*
X161253589Y-109666410D01*
X161316065Y-109717682D01*
X161413550Y-109797685D01*
X161596046Y-109895232D01*
X161794066Y-109955300D01*
X161794065Y-109955300D01*
X161812529Y-109957118D01*
X162000000Y-109975583D01*
X162205934Y-109955300D01*
X162403954Y-109895232D01*
X162586450Y-109797685D01*
X162746410Y-109666410D01*
X162877685Y-109506450D01*
X162975232Y-109323954D01*
X163035300Y-109125934D01*
X163055583Y-108920000D01*
X163035300Y-108714066D01*
X162975232Y-108516046D01*
X162877685Y-108333550D01*
X162812029Y-108253547D01*
X162746410Y-108173589D01*
X162586452Y-108042317D01*
X162586453Y-108042317D01*
X162586450Y-108042315D01*
X162403954Y-107944768D01*
X162205934Y-107884700D01*
X162205932Y-107884699D01*
X162205934Y-107884699D01*
X162000000Y-107864417D01*
X161794067Y-107884699D01*
X161596043Y-107944769D01*
X161563214Y-107962317D01*
X161413550Y-108042315D01*
X161413548Y-108042316D01*
X161413547Y-108042317D01*
X161253589Y-108173589D01*
X161122317Y-108333547D01*
X161024769Y-108516043D01*
X160964699Y-108714067D01*
X160944417Y-108920000D01*
X125047704Y-108920000D01*
X125055583Y-108840000D01*
X125035300Y-108634066D01*
X124975232Y-108436046D01*
X124877685Y-108253550D01*
X124812063Y-108173589D01*
X124746410Y-108093589D01*
X124586452Y-107962317D01*
X124586453Y-107962317D01*
X124586450Y-107962315D01*
X124403954Y-107864768D01*
X124205934Y-107804700D01*
X124205932Y-107804699D01*
X124205934Y-107804699D01*
X124000000Y-107784417D01*
X123794067Y-107804699D01*
X123596043Y-107864769D01*
X123485898Y-107923643D01*
X123413550Y-107962315D01*
X123413548Y-107962316D01*
X123413547Y-107962317D01*
X123253589Y-108093589D01*
X123122317Y-108253547D01*
X123024769Y-108436043D01*
X122964699Y-108634067D01*
X122944417Y-108840000D01*
X120500500Y-108840000D01*
X120500500Y-106300000D01*
X122944417Y-106300000D01*
X122964699Y-106505932D01*
X122964700Y-106505934D01*
X123024768Y-106703954D01*
X123122315Y-106886450D01*
X123122317Y-106886452D01*
X123253589Y-107046410D01*
X123350209Y-107125702D01*
X123413550Y-107177685D01*
X123596046Y-107275232D01*
X123794066Y-107335300D01*
X123794065Y-107335300D01*
X123812529Y-107337118D01*
X124000000Y-107355583D01*
X124205934Y-107335300D01*
X124403954Y-107275232D01*
X124586450Y-107177685D01*
X124746410Y-107046410D01*
X124877685Y-106886450D01*
X124975232Y-106703954D01*
X125035300Y-106505934D01*
X125047704Y-106380000D01*
X160944417Y-106380000D01*
X160964699Y-106585932D01*
X160964700Y-106585934D01*
X161024768Y-106783954D01*
X161122315Y-106966450D01*
X161122317Y-106966452D01*
X161253589Y-107126410D01*
X161316065Y-107177682D01*
X161413550Y-107257685D01*
X161596046Y-107355232D01*
X161794066Y-107415300D01*
X161794065Y-107415300D01*
X161812529Y-107417118D01*
X162000000Y-107435583D01*
X162205934Y-107415300D01*
X162403954Y-107355232D01*
X162586450Y-107257685D01*
X162746410Y-107126410D01*
X162877685Y-106966450D01*
X162975232Y-106783954D01*
X163035300Y-106585934D01*
X163055583Y-106380000D01*
X163035300Y-106174066D01*
X162975232Y-105976046D01*
X162877685Y-105793550D01*
X162812029Y-105713547D01*
X162746410Y-105633589D01*
X162586452Y-105502317D01*
X162586453Y-105502317D01*
X162586450Y-105502315D01*
X162403954Y-105404768D01*
X162205934Y-105344700D01*
X162205932Y-105344699D01*
X162205934Y-105344699D01*
X162000000Y-105324417D01*
X161794067Y-105344699D01*
X161596043Y-105404769D01*
X161563214Y-105422317D01*
X161413550Y-105502315D01*
X161413548Y-105502316D01*
X161413547Y-105502317D01*
X161253589Y-105633589D01*
X161122317Y-105793547D01*
X161024769Y-105976043D01*
X160964699Y-106174067D01*
X160944417Y-106380000D01*
X125047704Y-106380000D01*
X125055583Y-106300000D01*
X125035300Y-106094066D01*
X124975232Y-105896046D01*
X124877685Y-105713550D01*
X124812063Y-105633589D01*
X124746410Y-105553589D01*
X124586452Y-105422317D01*
X124586453Y-105422317D01*
X124586450Y-105422315D01*
X124403954Y-105324768D01*
X124205934Y-105264700D01*
X124205932Y-105264699D01*
X124205934Y-105264699D01*
X124000000Y-105244417D01*
X123794067Y-105264699D01*
X123596043Y-105324769D01*
X123485898Y-105383643D01*
X123413550Y-105422315D01*
X123413548Y-105422316D01*
X123413547Y-105422317D01*
X123253589Y-105553589D01*
X123122317Y-105713547D01*
X123024769Y-105896043D01*
X122964699Y-106094067D01*
X122944417Y-106300000D01*
X120500500Y-106300000D01*
X120500500Y-103760000D01*
X122944417Y-103760000D01*
X122964699Y-103965932D01*
X122964700Y-103965934D01*
X123024768Y-104163954D01*
X123122315Y-104346450D01*
X123122317Y-104346452D01*
X123253589Y-104506410D01*
X123350209Y-104585702D01*
X123413550Y-104637685D01*
X123596046Y-104735232D01*
X123794066Y-104795300D01*
X123794065Y-104795300D01*
X123812529Y-104797118D01*
X124000000Y-104815583D01*
X124205934Y-104795300D01*
X124403954Y-104735232D01*
X124586450Y-104637685D01*
X124746410Y-104506410D01*
X124877685Y-104346450D01*
X124975232Y-104163954D01*
X125035300Y-103965934D01*
X125047704Y-103840000D01*
X160944417Y-103840000D01*
X160964699Y-104045932D01*
X160964700Y-104045934D01*
X161024768Y-104243954D01*
X161122315Y-104426450D01*
X161122317Y-104426452D01*
X161253589Y-104586410D01*
X161316065Y-104637682D01*
X161413550Y-104717685D01*
X161596046Y-104815232D01*
X161794066Y-104875300D01*
X161794065Y-104875300D01*
X161812529Y-104877118D01*
X162000000Y-104895583D01*
X162205934Y-104875300D01*
X162403954Y-104815232D01*
X162586450Y-104717685D01*
X162746410Y-104586410D01*
X162877685Y-104426450D01*
X162975232Y-104243954D01*
X163035300Y-104045934D01*
X163055583Y-103840000D01*
X163035300Y-103634066D01*
X162975232Y-103436046D01*
X162877685Y-103253550D01*
X162812029Y-103173547D01*
X162746410Y-103093589D01*
X162586452Y-102962317D01*
X162586453Y-102962317D01*
X162586450Y-102962315D01*
X162403954Y-102864768D01*
X162205934Y-102804700D01*
X162205932Y-102804699D01*
X162205934Y-102804699D01*
X162000000Y-102784417D01*
X161794067Y-102804699D01*
X161596043Y-102864769D01*
X161563214Y-102882317D01*
X161413550Y-102962315D01*
X161413548Y-102962316D01*
X161413547Y-102962317D01*
X161253589Y-103093589D01*
X161122317Y-103253547D01*
X161024769Y-103436043D01*
X160964699Y-103634067D01*
X160944417Y-103840000D01*
X125047704Y-103840000D01*
X125055583Y-103760000D01*
X125035300Y-103554066D01*
X124975232Y-103356046D01*
X124877685Y-103173550D01*
X124812063Y-103093589D01*
X124746410Y-103013589D01*
X124586452Y-102882317D01*
X124586453Y-102882317D01*
X124586450Y-102882315D01*
X124403954Y-102784768D01*
X124205934Y-102724700D01*
X124205932Y-102724699D01*
X124205934Y-102724699D01*
X124000000Y-102704417D01*
X123794067Y-102724699D01*
X123596043Y-102784769D01*
X123485898Y-102843643D01*
X123413550Y-102882315D01*
X123413548Y-102882316D01*
X123413547Y-102882317D01*
X123253589Y-103013589D01*
X123122317Y-103173547D01*
X123024769Y-103356043D01*
X122964699Y-103554067D01*
X122944417Y-103760000D01*
X120500500Y-103760000D01*
X120500500Y-102089752D01*
X122949500Y-102089752D01*
X122961131Y-102148229D01*
X122961132Y-102148230D01*
X123005447Y-102214552D01*
X123071769Y-102258867D01*
X123071770Y-102258868D01*
X123130247Y-102270499D01*
X123130250Y-102270500D01*
X123130252Y-102270500D01*
X124869750Y-102270500D01*
X124869751Y-102270499D01*
X124884568Y-102267552D01*
X124928229Y-102258868D01*
X124928229Y-102258867D01*
X124928231Y-102258867D01*
X124994552Y-102214552D01*
X125024487Y-102169752D01*
X160949500Y-102169752D01*
X160961131Y-102228229D01*
X160961132Y-102228230D01*
X161005447Y-102294552D01*
X161071769Y-102338867D01*
X161071770Y-102338868D01*
X161130247Y-102350499D01*
X161130250Y-102350500D01*
X161130252Y-102350500D01*
X162869750Y-102350500D01*
X162869751Y-102350499D01*
X162884568Y-102347552D01*
X162928229Y-102338868D01*
X162928229Y-102338867D01*
X162928231Y-102338867D01*
X162994552Y-102294552D01*
X163038867Y-102228231D01*
X163038867Y-102228229D01*
X163038868Y-102228229D01*
X163050499Y-102169752D01*
X163050500Y-102169750D01*
X163050500Y-100430249D01*
X163050499Y-100430247D01*
X163038868Y-100371770D01*
X163038867Y-100371769D01*
X162994552Y-100305447D01*
X162928230Y-100261132D01*
X162928229Y-100261131D01*
X162869752Y-100249500D01*
X162869748Y-100249500D01*
X161130252Y-100249500D01*
X161130247Y-100249500D01*
X161071770Y-100261131D01*
X161071769Y-100261132D01*
X161005447Y-100305447D01*
X160961132Y-100371769D01*
X160961131Y-100371770D01*
X160949500Y-100430247D01*
X160949500Y-102169752D01*
X125024487Y-102169752D01*
X125038867Y-102148231D01*
X125038867Y-102148229D01*
X125038868Y-102148229D01*
X125050499Y-102089752D01*
X125050500Y-102089750D01*
X125050500Y-100350249D01*
X125050499Y-100350247D01*
X125038868Y-100291770D01*
X125038867Y-100291769D01*
X124994552Y-100225447D01*
X124928230Y-100181132D01*
X124928229Y-100181131D01*
X124869752Y-100169500D01*
X124869748Y-100169500D01*
X123130252Y-100169500D01*
X123130247Y-100169500D01*
X123071770Y-100181131D01*
X123071769Y-100181132D01*
X123005447Y-100225447D01*
X122961132Y-100291769D01*
X122961131Y-100291770D01*
X122949500Y-100350247D01*
X122949500Y-102089752D01*
X120500500Y-102089752D01*
X120500500Y-99324500D01*
X120520185Y-99257461D01*
X120572989Y-99211706D01*
X120624500Y-99200500D01*
X165375500Y-99200500D01*
X165442539Y-99220185D01*
G37*
%TD.AperFunction*%
%TD*%
M02*
