%TF.GenerationSoftware,KiCad,Pcbnew,8.0.1*%
%TF.CreationDate,2024-04-24T16:47:31+07:00*%
%TF.ProjectId,holyiot-21043-nrf52810,686f6c79-696f-4742-9d32-313034332d6e,rev?*%
%TF.SameCoordinates,Original*%
%TF.FileFunction,Soldermask,Top*%
%TF.FilePolarity,Negative*%
%FSLAX46Y46*%
G04 Gerber Fmt 4.6, Leading zero omitted, Abs format (unit mm)*
G04 Created by KiCad (PCBNEW 8.0.1) date 2024-04-24 16:47:31*
%MOMM*%
%LPD*%
G01*
G04 APERTURE LIST*
%ADD10R,1.700000X1.700000*%
%ADD11O,1.700000X1.700000*%
%ADD12R,1.500000X0.850000*%
%ADD13R,0.850000X1.500000*%
G04 APERTURE END LIST*
D10*
%TO.C,J1*%
X162000000Y-101300000D03*
D11*
X162000000Y-103840000D03*
X162000000Y-106380000D03*
X162000000Y-108920000D03*
X162000000Y-111460000D03*
X162000000Y-114000000D03*
X162000000Y-116540000D03*
X162000000Y-119080000D03*
X162000000Y-121620000D03*
X162000000Y-124160000D03*
X162000000Y-126700000D03*
%TD*%
D10*
%TO.C,J4*%
X154000000Y-118740000D03*
D11*
X154000000Y-116200000D03*
%TD*%
D12*
%TO.C,U1*%
X150500010Y-99680000D03*
X150500010Y-100780000D03*
X150500010Y-101880000D03*
X150500010Y-102980000D03*
X150500010Y-104080000D03*
X150500010Y-105180000D03*
X150500010Y-106280000D03*
X150500010Y-107380000D03*
X150500010Y-108480000D03*
X150500010Y-109580000D03*
X150500010Y-110680000D03*
D13*
X149050010Y-112320000D03*
X147950010Y-112320000D03*
X146850010Y-112320000D03*
X145750010Y-112320000D03*
X144650010Y-112320000D03*
X143550010Y-112320000D03*
X142450000Y-112320000D03*
X141350000Y-112320000D03*
X140250010Y-112320000D03*
X139150010Y-112320000D03*
X138050010Y-112320000D03*
X136950000Y-112320000D03*
D12*
X135499990Y-110680000D03*
X135499990Y-109580000D03*
X135499990Y-108480000D03*
X135499990Y-107380000D03*
X135499990Y-106280000D03*
X135499990Y-105180000D03*
X135499990Y-104080000D03*
X135499990Y-102980000D03*
X135499990Y-101880000D03*
X135499990Y-100780000D03*
X135499990Y-99680000D03*
%TD*%
D10*
%TO.C,J2*%
X124000000Y-101220000D03*
D11*
X124000000Y-103760000D03*
X124000000Y-106300000D03*
X124000000Y-108840000D03*
X124000000Y-111380000D03*
X124000000Y-113920000D03*
X124000000Y-116460000D03*
X124000000Y-119000000D03*
X124000000Y-121540000D03*
X124000000Y-124080000D03*
X124000000Y-126620000D03*
%TD*%
D10*
%TO.C,J3*%
X128760000Y-128000000D03*
D11*
X131300000Y-128000000D03*
X133840000Y-128000000D03*
X136380000Y-128000000D03*
X138920000Y-128000000D03*
X141460000Y-128000000D03*
X144000000Y-128000000D03*
X146540000Y-128000000D03*
X149080000Y-128000000D03*
X151620000Y-128000000D03*
X154160000Y-128000000D03*
X156700000Y-128000000D03*
%TD*%
M02*
