%TF.GenerationSoftware,KiCad,Pcbnew,8.0.1*%
%TF.CreationDate,2024-04-24T16:47:29+07:00*%
%TF.ProjectId,holyiot-21043-nrf52810,686f6c79-696f-4742-9d32-313034332d6e,rev?*%
%TF.SameCoordinates,Original*%
%TF.FileFunction,Drillmap*%
%TF.FilePolarity,Positive*%
%FSLAX45Y45*%
G04 Gerber Fmt 4.5, Leading zero omitted, Abs format (unit mm)*
G04 Created by KiCad (PCBNEW 8.0.1) date 2024-04-24 16:47:29*
%MOMM*%
%LPD*%
G01*
G04 APERTURE LIST*
%ADD10C,0.050000*%
%ADD11C,0.200000*%
%ADD12C,0.100000*%
G04 APERTURE END LIST*
D10*
X12000000Y-9870000D02*
X16600000Y-9870000D01*
X16600000Y-13200000D01*
X12000000Y-13200000D01*
X12000000Y-9870000D01*
D11*
D12*
X14865000Y-10885000D02*
X14895000Y-10915000D01*
X14895000Y-10885000D02*
X14865000Y-10915000D01*
X14865000Y-11005000D02*
X14895000Y-11035000D01*
X14895000Y-11005000D02*
X14865000Y-11035000D01*
X15185000Y-10945000D02*
X15215000Y-10975000D01*
X15215000Y-10945000D02*
X15185000Y-10975000D01*
X15285000Y-10945000D02*
X15315000Y-10975000D01*
X15315000Y-10945000D02*
X15285000Y-10975000D01*
X12450000Y-10122000D02*
G75*
G02*
X12350000Y-10122000I-50000J0D01*
G01*
X12350000Y-10122000D02*
G75*
G02*
X12450000Y-10122000I50000J0D01*
G01*
X12450000Y-10376000D02*
G75*
G02*
X12350000Y-10376000I-50000J0D01*
G01*
X12350000Y-10376000D02*
G75*
G02*
X12450000Y-10376000I50000J0D01*
G01*
X12450000Y-10630000D02*
G75*
G02*
X12350000Y-10630000I-50000J0D01*
G01*
X12350000Y-10630000D02*
G75*
G02*
X12450000Y-10630000I50000J0D01*
G01*
X12450000Y-10884000D02*
G75*
G02*
X12350000Y-10884000I-50000J0D01*
G01*
X12350000Y-10884000D02*
G75*
G02*
X12450000Y-10884000I50000J0D01*
G01*
X12450000Y-11138000D02*
G75*
G02*
X12350000Y-11138000I-50000J0D01*
G01*
X12350000Y-11138000D02*
G75*
G02*
X12450000Y-11138000I50000J0D01*
G01*
X12450000Y-11392000D02*
G75*
G02*
X12350000Y-11392000I-50000J0D01*
G01*
X12350000Y-11392000D02*
G75*
G02*
X12450000Y-11392000I50000J0D01*
G01*
X12450000Y-11646000D02*
G75*
G02*
X12350000Y-11646000I-50000J0D01*
G01*
X12350000Y-11646000D02*
G75*
G02*
X12450000Y-11646000I50000J0D01*
G01*
X12450000Y-11900000D02*
G75*
G02*
X12350000Y-11900000I-50000J0D01*
G01*
X12350000Y-11900000D02*
G75*
G02*
X12450000Y-11900000I50000J0D01*
G01*
X12450000Y-12154000D02*
G75*
G02*
X12350000Y-12154000I-50000J0D01*
G01*
X12350000Y-12154000D02*
G75*
G02*
X12450000Y-12154000I50000J0D01*
G01*
X12450000Y-12408000D02*
G75*
G02*
X12350000Y-12408000I-50000J0D01*
G01*
X12350000Y-12408000D02*
G75*
G02*
X12450000Y-12408000I50000J0D01*
G01*
X12450000Y-12662000D02*
G75*
G02*
X12350000Y-12662000I-50000J0D01*
G01*
X12350000Y-12662000D02*
G75*
G02*
X12450000Y-12662000I50000J0D01*
G01*
X12926000Y-12800000D02*
G75*
G02*
X12826000Y-12800000I-50000J0D01*
G01*
X12826000Y-12800000D02*
G75*
G02*
X12926000Y-12800000I50000J0D01*
G01*
X13180000Y-12800000D02*
G75*
G02*
X13080000Y-12800000I-50000J0D01*
G01*
X13080000Y-12800000D02*
G75*
G02*
X13180000Y-12800000I50000J0D01*
G01*
X13434000Y-12800000D02*
G75*
G02*
X13334000Y-12800000I-50000J0D01*
G01*
X13334000Y-12800000D02*
G75*
G02*
X13434000Y-12800000I50000J0D01*
G01*
X13688000Y-12800000D02*
G75*
G02*
X13588000Y-12800000I-50000J0D01*
G01*
X13588000Y-12800000D02*
G75*
G02*
X13688000Y-12800000I50000J0D01*
G01*
X13942000Y-12800000D02*
G75*
G02*
X13842000Y-12800000I-50000J0D01*
G01*
X13842000Y-12800000D02*
G75*
G02*
X13942000Y-12800000I50000J0D01*
G01*
X14196000Y-12800000D02*
G75*
G02*
X14096000Y-12800000I-50000J0D01*
G01*
X14096000Y-12800000D02*
G75*
G02*
X14196000Y-12800000I50000J0D01*
G01*
X14450000Y-12800000D02*
G75*
G02*
X14350000Y-12800000I-50000J0D01*
G01*
X14350000Y-12800000D02*
G75*
G02*
X14450000Y-12800000I50000J0D01*
G01*
X14704000Y-12800000D02*
G75*
G02*
X14604000Y-12800000I-50000J0D01*
G01*
X14604000Y-12800000D02*
G75*
G02*
X14704000Y-12800000I50000J0D01*
G01*
X14958000Y-12800000D02*
G75*
G02*
X14858000Y-12800000I-50000J0D01*
G01*
X14858000Y-12800000D02*
G75*
G02*
X14958000Y-12800000I50000J0D01*
G01*
X15212000Y-12800000D02*
G75*
G02*
X15112000Y-12800000I-50000J0D01*
G01*
X15112000Y-12800000D02*
G75*
G02*
X15212000Y-12800000I50000J0D01*
G01*
X15450000Y-11620000D02*
G75*
G02*
X15350000Y-11620000I-50000J0D01*
G01*
X15350000Y-11620000D02*
G75*
G02*
X15450000Y-11620000I50000J0D01*
G01*
X15450000Y-11874000D02*
G75*
G02*
X15350000Y-11874000I-50000J0D01*
G01*
X15350000Y-11874000D02*
G75*
G02*
X15450000Y-11874000I50000J0D01*
G01*
X15466000Y-12800000D02*
G75*
G02*
X15366000Y-12800000I-50000J0D01*
G01*
X15366000Y-12800000D02*
G75*
G02*
X15466000Y-12800000I50000J0D01*
G01*
X15720000Y-12800000D02*
G75*
G02*
X15620000Y-12800000I-50000J0D01*
G01*
X15620000Y-12800000D02*
G75*
G02*
X15720000Y-12800000I50000J0D01*
G01*
X16250000Y-10130000D02*
G75*
G02*
X16150000Y-10130000I-50000J0D01*
G01*
X16150000Y-10130000D02*
G75*
G02*
X16250000Y-10130000I50000J0D01*
G01*
X16250000Y-10384000D02*
G75*
G02*
X16150000Y-10384000I-50000J0D01*
G01*
X16150000Y-10384000D02*
G75*
G02*
X16250000Y-10384000I50000J0D01*
G01*
X16250000Y-10638000D02*
G75*
G02*
X16150000Y-10638000I-50000J0D01*
G01*
X16150000Y-10638000D02*
G75*
G02*
X16250000Y-10638000I50000J0D01*
G01*
X16250000Y-10892000D02*
G75*
G02*
X16150000Y-10892000I-50000J0D01*
G01*
X16150000Y-10892000D02*
G75*
G02*
X16250000Y-10892000I50000J0D01*
G01*
X16250000Y-11146000D02*
G75*
G02*
X16150000Y-11146000I-50000J0D01*
G01*
X16150000Y-11146000D02*
G75*
G02*
X16250000Y-11146000I50000J0D01*
G01*
X16250000Y-11400000D02*
G75*
G02*
X16150000Y-11400000I-50000J0D01*
G01*
X16150000Y-11400000D02*
G75*
G02*
X16250000Y-11400000I50000J0D01*
G01*
X16250000Y-11654000D02*
G75*
G02*
X16150000Y-11654000I-50000J0D01*
G01*
X16150000Y-11654000D02*
G75*
G02*
X16250000Y-11654000I50000J0D01*
G01*
X16250000Y-11908000D02*
G75*
G02*
X16150000Y-11908000I-50000J0D01*
G01*
X16150000Y-11908000D02*
G75*
G02*
X16250000Y-11908000I50000J0D01*
G01*
X16250000Y-12162000D02*
G75*
G02*
X16150000Y-12162000I-50000J0D01*
G01*
X16150000Y-12162000D02*
G75*
G02*
X16250000Y-12162000I50000J0D01*
G01*
X16250000Y-12416000D02*
G75*
G02*
X16150000Y-12416000I-50000J0D01*
G01*
X16150000Y-12416000D02*
G75*
G02*
X16250000Y-12416000I50000J0D01*
G01*
X16250000Y-12670000D02*
G75*
G02*
X16150000Y-12670000I-50000J0D01*
G01*
X16150000Y-12670000D02*
G75*
G02*
X16250000Y-12670000I50000J0D01*
G01*
D11*
X12258277Y-13513984D02*
X12258277Y-13313984D01*
X12258277Y-13313984D02*
X12305896Y-13313984D01*
X12305896Y-13313984D02*
X12334467Y-13323508D01*
X12334467Y-13323508D02*
X12353515Y-13342555D01*
X12353515Y-13342555D02*
X12363039Y-13361603D01*
X12363039Y-13361603D02*
X12372562Y-13399698D01*
X12372562Y-13399698D02*
X12372562Y-13428269D01*
X12372562Y-13428269D02*
X12363039Y-13466365D01*
X12363039Y-13466365D02*
X12353515Y-13485412D01*
X12353515Y-13485412D02*
X12334467Y-13504460D01*
X12334467Y-13504460D02*
X12305896Y-13513984D01*
X12305896Y-13513984D02*
X12258277Y-13513984D01*
X12458277Y-13513984D02*
X12458277Y-13380650D01*
X12458277Y-13418746D02*
X12467801Y-13399698D01*
X12467801Y-13399698D02*
X12477324Y-13390174D01*
X12477324Y-13390174D02*
X12496372Y-13380650D01*
X12496372Y-13380650D02*
X12515420Y-13380650D01*
X12582086Y-13513984D02*
X12582086Y-13380650D01*
X12582086Y-13313984D02*
X12572562Y-13323508D01*
X12572562Y-13323508D02*
X12582086Y-13333031D01*
X12582086Y-13333031D02*
X12591610Y-13323508D01*
X12591610Y-13323508D02*
X12582086Y-13313984D01*
X12582086Y-13313984D02*
X12582086Y-13333031D01*
X12705896Y-13513984D02*
X12686848Y-13504460D01*
X12686848Y-13504460D02*
X12677324Y-13485412D01*
X12677324Y-13485412D02*
X12677324Y-13313984D01*
X12810658Y-13513984D02*
X12791610Y-13504460D01*
X12791610Y-13504460D02*
X12782086Y-13485412D01*
X12782086Y-13485412D02*
X12782086Y-13313984D01*
X13039229Y-13513984D02*
X13039229Y-13313984D01*
X13039229Y-13313984D02*
X13105896Y-13456841D01*
X13105896Y-13456841D02*
X13172562Y-13313984D01*
X13172562Y-13313984D02*
X13172562Y-13513984D01*
X13353515Y-13513984D02*
X13353515Y-13409222D01*
X13353515Y-13409222D02*
X13343991Y-13390174D01*
X13343991Y-13390174D02*
X13324943Y-13380650D01*
X13324943Y-13380650D02*
X13286848Y-13380650D01*
X13286848Y-13380650D02*
X13267801Y-13390174D01*
X13353515Y-13504460D02*
X13334467Y-13513984D01*
X13334467Y-13513984D02*
X13286848Y-13513984D01*
X13286848Y-13513984D02*
X13267801Y-13504460D01*
X13267801Y-13504460D02*
X13258277Y-13485412D01*
X13258277Y-13485412D02*
X13258277Y-13466365D01*
X13258277Y-13466365D02*
X13267801Y-13447317D01*
X13267801Y-13447317D02*
X13286848Y-13437793D01*
X13286848Y-13437793D02*
X13334467Y-13437793D01*
X13334467Y-13437793D02*
X13353515Y-13428269D01*
X13448753Y-13380650D02*
X13448753Y-13580650D01*
X13448753Y-13390174D02*
X13467801Y-13380650D01*
X13467801Y-13380650D02*
X13505896Y-13380650D01*
X13505896Y-13380650D02*
X13524943Y-13390174D01*
X13524943Y-13390174D02*
X13534467Y-13399698D01*
X13534467Y-13399698D02*
X13543991Y-13418746D01*
X13543991Y-13418746D02*
X13543991Y-13475888D01*
X13543991Y-13475888D02*
X13534467Y-13494936D01*
X13534467Y-13494936D02*
X13524943Y-13504460D01*
X13524943Y-13504460D02*
X13505896Y-13513984D01*
X13505896Y-13513984D02*
X13467801Y-13513984D01*
X13467801Y-13513984D02*
X13448753Y-13504460D01*
X13629705Y-13494936D02*
X13639229Y-13504460D01*
X13639229Y-13504460D02*
X13629705Y-13513984D01*
X13629705Y-13513984D02*
X13620182Y-13504460D01*
X13620182Y-13504460D02*
X13629705Y-13494936D01*
X13629705Y-13494936D02*
X13629705Y-13513984D01*
X13629705Y-13390174D02*
X13639229Y-13399698D01*
X13639229Y-13399698D02*
X13629705Y-13409222D01*
X13629705Y-13409222D02*
X13620182Y-13399698D01*
X13620182Y-13399698D02*
X13629705Y-13390174D01*
X13629705Y-13390174D02*
X13629705Y-13409222D01*
D12*
X11967500Y-13827500D02*
X11997500Y-13857500D01*
X11997500Y-13827500D02*
X11967500Y-13857500D01*
D11*
X12296372Y-13733984D02*
X12315420Y-13733984D01*
X12315420Y-13733984D02*
X12334467Y-13743508D01*
X12334467Y-13743508D02*
X12343991Y-13753031D01*
X12343991Y-13753031D02*
X12353515Y-13772079D01*
X12353515Y-13772079D02*
X12363039Y-13810174D01*
X12363039Y-13810174D02*
X12363039Y-13857793D01*
X12363039Y-13857793D02*
X12353515Y-13895888D01*
X12353515Y-13895888D02*
X12343991Y-13914936D01*
X12343991Y-13914936D02*
X12334467Y-13924460D01*
X12334467Y-13924460D02*
X12315420Y-13933984D01*
X12315420Y-13933984D02*
X12296372Y-13933984D01*
X12296372Y-13933984D02*
X12277324Y-13924460D01*
X12277324Y-13924460D02*
X12267801Y-13914936D01*
X12267801Y-13914936D02*
X12258277Y-13895888D01*
X12258277Y-13895888D02*
X12248753Y-13857793D01*
X12248753Y-13857793D02*
X12248753Y-13810174D01*
X12248753Y-13810174D02*
X12258277Y-13772079D01*
X12258277Y-13772079D02*
X12267801Y-13753031D01*
X12267801Y-13753031D02*
X12277324Y-13743508D01*
X12277324Y-13743508D02*
X12296372Y-13733984D01*
X12448753Y-13914936D02*
X12458277Y-13924460D01*
X12458277Y-13924460D02*
X12448753Y-13933984D01*
X12448753Y-13933984D02*
X12439229Y-13924460D01*
X12439229Y-13924460D02*
X12448753Y-13914936D01*
X12448753Y-13914936D02*
X12448753Y-13933984D01*
X12524943Y-13733984D02*
X12648753Y-13733984D01*
X12648753Y-13733984D02*
X12582086Y-13810174D01*
X12582086Y-13810174D02*
X12610658Y-13810174D01*
X12610658Y-13810174D02*
X12629705Y-13819698D01*
X12629705Y-13819698D02*
X12639229Y-13829222D01*
X12639229Y-13829222D02*
X12648753Y-13848269D01*
X12648753Y-13848269D02*
X12648753Y-13895888D01*
X12648753Y-13895888D02*
X12639229Y-13914936D01*
X12639229Y-13914936D02*
X12629705Y-13924460D01*
X12629705Y-13924460D02*
X12610658Y-13933984D01*
X12610658Y-13933984D02*
X12553515Y-13933984D01*
X12553515Y-13933984D02*
X12534467Y-13924460D01*
X12534467Y-13924460D02*
X12524943Y-13914936D01*
X12772562Y-13733984D02*
X12791610Y-13733984D01*
X12791610Y-13733984D02*
X12810658Y-13743508D01*
X12810658Y-13743508D02*
X12820182Y-13753031D01*
X12820182Y-13753031D02*
X12829705Y-13772079D01*
X12829705Y-13772079D02*
X12839229Y-13810174D01*
X12839229Y-13810174D02*
X12839229Y-13857793D01*
X12839229Y-13857793D02*
X12829705Y-13895888D01*
X12829705Y-13895888D02*
X12820182Y-13914936D01*
X12820182Y-13914936D02*
X12810658Y-13924460D01*
X12810658Y-13924460D02*
X12791610Y-13933984D01*
X12791610Y-13933984D02*
X12772562Y-13933984D01*
X12772562Y-13933984D02*
X12753515Y-13924460D01*
X12753515Y-13924460D02*
X12743991Y-13914936D01*
X12743991Y-13914936D02*
X12734467Y-13895888D01*
X12734467Y-13895888D02*
X12724943Y-13857793D01*
X12724943Y-13857793D02*
X12724943Y-13810174D01*
X12724943Y-13810174D02*
X12734467Y-13772079D01*
X12734467Y-13772079D02*
X12743991Y-13753031D01*
X12743991Y-13753031D02*
X12753515Y-13743508D01*
X12753515Y-13743508D02*
X12772562Y-13733984D01*
X12963039Y-13733984D02*
X12982086Y-13733984D01*
X12982086Y-13733984D02*
X13001134Y-13743508D01*
X13001134Y-13743508D02*
X13010658Y-13753031D01*
X13010658Y-13753031D02*
X13020182Y-13772079D01*
X13020182Y-13772079D02*
X13029705Y-13810174D01*
X13029705Y-13810174D02*
X13029705Y-13857793D01*
X13029705Y-13857793D02*
X13020182Y-13895888D01*
X13020182Y-13895888D02*
X13010658Y-13914936D01*
X13010658Y-13914936D02*
X13001134Y-13924460D01*
X13001134Y-13924460D02*
X12982086Y-13933984D01*
X12982086Y-13933984D02*
X12963039Y-13933984D01*
X12963039Y-13933984D02*
X12943991Y-13924460D01*
X12943991Y-13924460D02*
X12934467Y-13914936D01*
X12934467Y-13914936D02*
X12924943Y-13895888D01*
X12924943Y-13895888D02*
X12915420Y-13857793D01*
X12915420Y-13857793D02*
X12915420Y-13810174D01*
X12915420Y-13810174D02*
X12924943Y-13772079D01*
X12924943Y-13772079D02*
X12934467Y-13753031D01*
X12934467Y-13753031D02*
X12943991Y-13743508D01*
X12943991Y-13743508D02*
X12963039Y-13733984D01*
X13115420Y-13933984D02*
X13115420Y-13800650D01*
X13115420Y-13819698D02*
X13124943Y-13810174D01*
X13124943Y-13810174D02*
X13143991Y-13800650D01*
X13143991Y-13800650D02*
X13172563Y-13800650D01*
X13172563Y-13800650D02*
X13191610Y-13810174D01*
X13191610Y-13810174D02*
X13201134Y-13829222D01*
X13201134Y-13829222D02*
X13201134Y-13933984D01*
X13201134Y-13829222D02*
X13210658Y-13810174D01*
X13210658Y-13810174D02*
X13229705Y-13800650D01*
X13229705Y-13800650D02*
X13258277Y-13800650D01*
X13258277Y-13800650D02*
X13277324Y-13810174D01*
X13277324Y-13810174D02*
X13286848Y-13829222D01*
X13286848Y-13829222D02*
X13286848Y-13933984D01*
X13382086Y-13933984D02*
X13382086Y-13800650D01*
X13382086Y-13819698D02*
X13391610Y-13810174D01*
X13391610Y-13810174D02*
X13410658Y-13800650D01*
X13410658Y-13800650D02*
X13439229Y-13800650D01*
X13439229Y-13800650D02*
X13458277Y-13810174D01*
X13458277Y-13810174D02*
X13467801Y-13829222D01*
X13467801Y-13829222D02*
X13467801Y-13933984D01*
X13467801Y-13829222D02*
X13477324Y-13810174D01*
X13477324Y-13810174D02*
X13496372Y-13800650D01*
X13496372Y-13800650D02*
X13524943Y-13800650D01*
X13524943Y-13800650D02*
X13543991Y-13810174D01*
X13543991Y-13810174D02*
X13553515Y-13829222D01*
X13553515Y-13829222D02*
X13553515Y-13933984D01*
X13943991Y-13724460D02*
X13772563Y-13981603D01*
X14201134Y-13733984D02*
X14220182Y-13733984D01*
X14220182Y-13733984D02*
X14239229Y-13743508D01*
X14239229Y-13743508D02*
X14248753Y-13753031D01*
X14248753Y-13753031D02*
X14258277Y-13772079D01*
X14258277Y-13772079D02*
X14267801Y-13810174D01*
X14267801Y-13810174D02*
X14267801Y-13857793D01*
X14267801Y-13857793D02*
X14258277Y-13895888D01*
X14258277Y-13895888D02*
X14248753Y-13914936D01*
X14248753Y-13914936D02*
X14239229Y-13924460D01*
X14239229Y-13924460D02*
X14220182Y-13933984D01*
X14220182Y-13933984D02*
X14201134Y-13933984D01*
X14201134Y-13933984D02*
X14182086Y-13924460D01*
X14182086Y-13924460D02*
X14172563Y-13914936D01*
X14172563Y-13914936D02*
X14163039Y-13895888D01*
X14163039Y-13895888D02*
X14153515Y-13857793D01*
X14153515Y-13857793D02*
X14153515Y-13810174D01*
X14153515Y-13810174D02*
X14163039Y-13772079D01*
X14163039Y-13772079D02*
X14172563Y-13753031D01*
X14172563Y-13753031D02*
X14182086Y-13743508D01*
X14182086Y-13743508D02*
X14201134Y-13733984D01*
X14353515Y-13914936D02*
X14363039Y-13924460D01*
X14363039Y-13924460D02*
X14353515Y-13933984D01*
X14353515Y-13933984D02*
X14343991Y-13924460D01*
X14343991Y-13924460D02*
X14353515Y-13914936D01*
X14353515Y-13914936D02*
X14353515Y-13933984D01*
X14486848Y-13733984D02*
X14505896Y-13733984D01*
X14505896Y-13733984D02*
X14524944Y-13743508D01*
X14524944Y-13743508D02*
X14534467Y-13753031D01*
X14534467Y-13753031D02*
X14543991Y-13772079D01*
X14543991Y-13772079D02*
X14553515Y-13810174D01*
X14553515Y-13810174D02*
X14553515Y-13857793D01*
X14553515Y-13857793D02*
X14543991Y-13895888D01*
X14543991Y-13895888D02*
X14534467Y-13914936D01*
X14534467Y-13914936D02*
X14524944Y-13924460D01*
X14524944Y-13924460D02*
X14505896Y-13933984D01*
X14505896Y-13933984D02*
X14486848Y-13933984D01*
X14486848Y-13933984D02*
X14467801Y-13924460D01*
X14467801Y-13924460D02*
X14458277Y-13914936D01*
X14458277Y-13914936D02*
X14448753Y-13895888D01*
X14448753Y-13895888D02*
X14439229Y-13857793D01*
X14439229Y-13857793D02*
X14439229Y-13810174D01*
X14439229Y-13810174D02*
X14448753Y-13772079D01*
X14448753Y-13772079D02*
X14458277Y-13753031D01*
X14458277Y-13753031D02*
X14467801Y-13743508D01*
X14467801Y-13743508D02*
X14486848Y-13733984D01*
X14743991Y-13933984D02*
X14629706Y-13933984D01*
X14686848Y-13933984D02*
X14686848Y-13733984D01*
X14686848Y-13733984D02*
X14667801Y-13762555D01*
X14667801Y-13762555D02*
X14648753Y-13781603D01*
X14648753Y-13781603D02*
X14629706Y-13791127D01*
X14934467Y-13933984D02*
X14820182Y-13933984D01*
X14877325Y-13933984D02*
X14877325Y-13733984D01*
X14877325Y-13733984D02*
X14858277Y-13762555D01*
X14858277Y-13762555D02*
X14839229Y-13781603D01*
X14839229Y-13781603D02*
X14820182Y-13791127D01*
X15048753Y-13819698D02*
X15029706Y-13810174D01*
X15029706Y-13810174D02*
X15020182Y-13800650D01*
X15020182Y-13800650D02*
X15010658Y-13781603D01*
X15010658Y-13781603D02*
X15010658Y-13772079D01*
X15010658Y-13772079D02*
X15020182Y-13753031D01*
X15020182Y-13753031D02*
X15029706Y-13743508D01*
X15029706Y-13743508D02*
X15048753Y-13733984D01*
X15048753Y-13733984D02*
X15086848Y-13733984D01*
X15086848Y-13733984D02*
X15105896Y-13743508D01*
X15105896Y-13743508D02*
X15115420Y-13753031D01*
X15115420Y-13753031D02*
X15124944Y-13772079D01*
X15124944Y-13772079D02*
X15124944Y-13781603D01*
X15124944Y-13781603D02*
X15115420Y-13800650D01*
X15115420Y-13800650D02*
X15105896Y-13810174D01*
X15105896Y-13810174D02*
X15086848Y-13819698D01*
X15086848Y-13819698D02*
X15048753Y-13819698D01*
X15048753Y-13819698D02*
X15029706Y-13829222D01*
X15029706Y-13829222D02*
X15020182Y-13838746D01*
X15020182Y-13838746D02*
X15010658Y-13857793D01*
X15010658Y-13857793D02*
X15010658Y-13895888D01*
X15010658Y-13895888D02*
X15020182Y-13914936D01*
X15020182Y-13914936D02*
X15029706Y-13924460D01*
X15029706Y-13924460D02*
X15048753Y-13933984D01*
X15048753Y-13933984D02*
X15086848Y-13933984D01*
X15086848Y-13933984D02*
X15105896Y-13924460D01*
X15105896Y-13924460D02*
X15115420Y-13914936D01*
X15115420Y-13914936D02*
X15124944Y-13895888D01*
X15124944Y-13895888D02*
X15124944Y-13857793D01*
X15124944Y-13857793D02*
X15115420Y-13838746D01*
X15115420Y-13838746D02*
X15105896Y-13829222D01*
X15105896Y-13829222D02*
X15086848Y-13819698D01*
X15201134Y-13733984D02*
X15201134Y-13772079D01*
X15277325Y-13733984D02*
X15277325Y-13772079D01*
X15572563Y-14010174D02*
X15563039Y-14000650D01*
X15563039Y-14000650D02*
X15543991Y-13972079D01*
X15543991Y-13972079D02*
X15534468Y-13953031D01*
X15534468Y-13953031D02*
X15524944Y-13924460D01*
X15524944Y-13924460D02*
X15515420Y-13876841D01*
X15515420Y-13876841D02*
X15515420Y-13838746D01*
X15515420Y-13838746D02*
X15524944Y-13791127D01*
X15524944Y-13791127D02*
X15534468Y-13762555D01*
X15534468Y-13762555D02*
X15543991Y-13743508D01*
X15543991Y-13743508D02*
X15563039Y-13714936D01*
X15563039Y-13714936D02*
X15572563Y-13705412D01*
X15734468Y-13800650D02*
X15734468Y-13933984D01*
X15686848Y-13724460D02*
X15639229Y-13867317D01*
X15639229Y-13867317D02*
X15763039Y-13867317D01*
X15991610Y-13933984D02*
X15991610Y-13733984D01*
X16077325Y-13933984D02*
X16077325Y-13829222D01*
X16077325Y-13829222D02*
X16067801Y-13810174D01*
X16067801Y-13810174D02*
X16048753Y-13800650D01*
X16048753Y-13800650D02*
X16020182Y-13800650D01*
X16020182Y-13800650D02*
X16001134Y-13810174D01*
X16001134Y-13810174D02*
X15991610Y-13819698D01*
X16201134Y-13933984D02*
X16182087Y-13924460D01*
X16182087Y-13924460D02*
X16172563Y-13914936D01*
X16172563Y-13914936D02*
X16163039Y-13895888D01*
X16163039Y-13895888D02*
X16163039Y-13838746D01*
X16163039Y-13838746D02*
X16172563Y-13819698D01*
X16172563Y-13819698D02*
X16182087Y-13810174D01*
X16182087Y-13810174D02*
X16201134Y-13800650D01*
X16201134Y-13800650D02*
X16229706Y-13800650D01*
X16229706Y-13800650D02*
X16248753Y-13810174D01*
X16248753Y-13810174D02*
X16258277Y-13819698D01*
X16258277Y-13819698D02*
X16267801Y-13838746D01*
X16267801Y-13838746D02*
X16267801Y-13895888D01*
X16267801Y-13895888D02*
X16258277Y-13914936D01*
X16258277Y-13914936D02*
X16248753Y-13924460D01*
X16248753Y-13924460D02*
X16229706Y-13933984D01*
X16229706Y-13933984D02*
X16201134Y-13933984D01*
X16382087Y-13933984D02*
X16363039Y-13924460D01*
X16363039Y-13924460D02*
X16353515Y-13905412D01*
X16353515Y-13905412D02*
X16353515Y-13733984D01*
X16534468Y-13924460D02*
X16515420Y-13933984D01*
X16515420Y-13933984D02*
X16477325Y-13933984D01*
X16477325Y-13933984D02*
X16458277Y-13924460D01*
X16458277Y-13924460D02*
X16448753Y-13905412D01*
X16448753Y-13905412D02*
X16448753Y-13829222D01*
X16448753Y-13829222D02*
X16458277Y-13810174D01*
X16458277Y-13810174D02*
X16477325Y-13800650D01*
X16477325Y-13800650D02*
X16515420Y-13800650D01*
X16515420Y-13800650D02*
X16534468Y-13810174D01*
X16534468Y-13810174D02*
X16543991Y-13829222D01*
X16543991Y-13829222D02*
X16543991Y-13848269D01*
X16543991Y-13848269D02*
X16448753Y-13867317D01*
X16620182Y-13924460D02*
X16639230Y-13933984D01*
X16639230Y-13933984D02*
X16677325Y-13933984D01*
X16677325Y-13933984D02*
X16696372Y-13924460D01*
X16696372Y-13924460D02*
X16705896Y-13905412D01*
X16705896Y-13905412D02*
X16705896Y-13895888D01*
X16705896Y-13895888D02*
X16696372Y-13876841D01*
X16696372Y-13876841D02*
X16677325Y-13867317D01*
X16677325Y-13867317D02*
X16648753Y-13867317D01*
X16648753Y-13867317D02*
X16629706Y-13857793D01*
X16629706Y-13857793D02*
X16620182Y-13838746D01*
X16620182Y-13838746D02*
X16620182Y-13829222D01*
X16620182Y-13829222D02*
X16629706Y-13810174D01*
X16629706Y-13810174D02*
X16648753Y-13800650D01*
X16648753Y-13800650D02*
X16677325Y-13800650D01*
X16677325Y-13800650D02*
X16696372Y-13810174D01*
X16772563Y-14010174D02*
X16782087Y-14000650D01*
X16782087Y-14000650D02*
X16801134Y-13972079D01*
X16801134Y-13972079D02*
X16810658Y-13953031D01*
X16810658Y-13953031D02*
X16820182Y-13924460D01*
X16820182Y-13924460D02*
X16829706Y-13876841D01*
X16829706Y-13876841D02*
X16829706Y-13838746D01*
X16829706Y-13838746D02*
X16820182Y-13791127D01*
X16820182Y-13791127D02*
X16810658Y-13762555D01*
X16810658Y-13762555D02*
X16801134Y-13743508D01*
X16801134Y-13743508D02*
X16782087Y-13714936D01*
X16782087Y-13714936D02*
X16772563Y-13705412D01*
D12*
X11997500Y-14106500D02*
G75*
G02*
X11897500Y-14106500I-50000J0D01*
G01*
X11897500Y-14106500D02*
G75*
G02*
X11997500Y-14106500I50000J0D01*
G01*
D11*
X12363039Y-14197984D02*
X12248753Y-14197984D01*
X12305896Y-14197984D02*
X12305896Y-13997984D01*
X12305896Y-13997984D02*
X12286848Y-14026555D01*
X12286848Y-14026555D02*
X12267801Y-14045603D01*
X12267801Y-14045603D02*
X12248753Y-14055127D01*
X12448753Y-14178936D02*
X12458277Y-14188460D01*
X12458277Y-14188460D02*
X12448753Y-14197984D01*
X12448753Y-14197984D02*
X12439229Y-14188460D01*
X12439229Y-14188460D02*
X12448753Y-14178936D01*
X12448753Y-14178936D02*
X12448753Y-14197984D01*
X12582086Y-13997984D02*
X12601134Y-13997984D01*
X12601134Y-13997984D02*
X12620182Y-14007508D01*
X12620182Y-14007508D02*
X12629705Y-14017031D01*
X12629705Y-14017031D02*
X12639229Y-14036079D01*
X12639229Y-14036079D02*
X12648753Y-14074174D01*
X12648753Y-14074174D02*
X12648753Y-14121793D01*
X12648753Y-14121793D02*
X12639229Y-14159888D01*
X12639229Y-14159888D02*
X12629705Y-14178936D01*
X12629705Y-14178936D02*
X12620182Y-14188460D01*
X12620182Y-14188460D02*
X12601134Y-14197984D01*
X12601134Y-14197984D02*
X12582086Y-14197984D01*
X12582086Y-14197984D02*
X12563039Y-14188460D01*
X12563039Y-14188460D02*
X12553515Y-14178936D01*
X12553515Y-14178936D02*
X12543991Y-14159888D01*
X12543991Y-14159888D02*
X12534467Y-14121793D01*
X12534467Y-14121793D02*
X12534467Y-14074174D01*
X12534467Y-14074174D02*
X12543991Y-14036079D01*
X12543991Y-14036079D02*
X12553515Y-14017031D01*
X12553515Y-14017031D02*
X12563039Y-14007508D01*
X12563039Y-14007508D02*
X12582086Y-13997984D01*
X12772562Y-13997984D02*
X12791610Y-13997984D01*
X12791610Y-13997984D02*
X12810658Y-14007508D01*
X12810658Y-14007508D02*
X12820182Y-14017031D01*
X12820182Y-14017031D02*
X12829705Y-14036079D01*
X12829705Y-14036079D02*
X12839229Y-14074174D01*
X12839229Y-14074174D02*
X12839229Y-14121793D01*
X12839229Y-14121793D02*
X12829705Y-14159888D01*
X12829705Y-14159888D02*
X12820182Y-14178936D01*
X12820182Y-14178936D02*
X12810658Y-14188460D01*
X12810658Y-14188460D02*
X12791610Y-14197984D01*
X12791610Y-14197984D02*
X12772562Y-14197984D01*
X12772562Y-14197984D02*
X12753515Y-14188460D01*
X12753515Y-14188460D02*
X12743991Y-14178936D01*
X12743991Y-14178936D02*
X12734467Y-14159888D01*
X12734467Y-14159888D02*
X12724943Y-14121793D01*
X12724943Y-14121793D02*
X12724943Y-14074174D01*
X12724943Y-14074174D02*
X12734467Y-14036079D01*
X12734467Y-14036079D02*
X12743991Y-14017031D01*
X12743991Y-14017031D02*
X12753515Y-14007508D01*
X12753515Y-14007508D02*
X12772562Y-13997984D01*
X12963039Y-13997984D02*
X12982086Y-13997984D01*
X12982086Y-13997984D02*
X13001134Y-14007508D01*
X13001134Y-14007508D02*
X13010658Y-14017031D01*
X13010658Y-14017031D02*
X13020182Y-14036079D01*
X13020182Y-14036079D02*
X13029705Y-14074174D01*
X13029705Y-14074174D02*
X13029705Y-14121793D01*
X13029705Y-14121793D02*
X13020182Y-14159888D01*
X13020182Y-14159888D02*
X13010658Y-14178936D01*
X13010658Y-14178936D02*
X13001134Y-14188460D01*
X13001134Y-14188460D02*
X12982086Y-14197984D01*
X12982086Y-14197984D02*
X12963039Y-14197984D01*
X12963039Y-14197984D02*
X12943991Y-14188460D01*
X12943991Y-14188460D02*
X12934467Y-14178936D01*
X12934467Y-14178936D02*
X12924943Y-14159888D01*
X12924943Y-14159888D02*
X12915420Y-14121793D01*
X12915420Y-14121793D02*
X12915420Y-14074174D01*
X12915420Y-14074174D02*
X12924943Y-14036079D01*
X12924943Y-14036079D02*
X12934467Y-14017031D01*
X12934467Y-14017031D02*
X12943991Y-14007508D01*
X12943991Y-14007508D02*
X12963039Y-13997984D01*
X13115420Y-14197984D02*
X13115420Y-14064650D01*
X13115420Y-14083698D02*
X13124943Y-14074174D01*
X13124943Y-14074174D02*
X13143991Y-14064650D01*
X13143991Y-14064650D02*
X13172563Y-14064650D01*
X13172563Y-14064650D02*
X13191610Y-14074174D01*
X13191610Y-14074174D02*
X13201134Y-14093222D01*
X13201134Y-14093222D02*
X13201134Y-14197984D01*
X13201134Y-14093222D02*
X13210658Y-14074174D01*
X13210658Y-14074174D02*
X13229705Y-14064650D01*
X13229705Y-14064650D02*
X13258277Y-14064650D01*
X13258277Y-14064650D02*
X13277324Y-14074174D01*
X13277324Y-14074174D02*
X13286848Y-14093222D01*
X13286848Y-14093222D02*
X13286848Y-14197984D01*
X13382086Y-14197984D02*
X13382086Y-14064650D01*
X13382086Y-14083698D02*
X13391610Y-14074174D01*
X13391610Y-14074174D02*
X13410658Y-14064650D01*
X13410658Y-14064650D02*
X13439229Y-14064650D01*
X13439229Y-14064650D02*
X13458277Y-14074174D01*
X13458277Y-14074174D02*
X13467801Y-14093222D01*
X13467801Y-14093222D02*
X13467801Y-14197984D01*
X13467801Y-14093222D02*
X13477324Y-14074174D01*
X13477324Y-14074174D02*
X13496372Y-14064650D01*
X13496372Y-14064650D02*
X13524943Y-14064650D01*
X13524943Y-14064650D02*
X13543991Y-14074174D01*
X13543991Y-14074174D02*
X13553515Y-14093222D01*
X13553515Y-14093222D02*
X13553515Y-14197984D01*
X13943991Y-13988460D02*
X13772563Y-14245603D01*
X14201134Y-13997984D02*
X14220182Y-13997984D01*
X14220182Y-13997984D02*
X14239229Y-14007508D01*
X14239229Y-14007508D02*
X14248753Y-14017031D01*
X14248753Y-14017031D02*
X14258277Y-14036079D01*
X14258277Y-14036079D02*
X14267801Y-14074174D01*
X14267801Y-14074174D02*
X14267801Y-14121793D01*
X14267801Y-14121793D02*
X14258277Y-14159888D01*
X14258277Y-14159888D02*
X14248753Y-14178936D01*
X14248753Y-14178936D02*
X14239229Y-14188460D01*
X14239229Y-14188460D02*
X14220182Y-14197984D01*
X14220182Y-14197984D02*
X14201134Y-14197984D01*
X14201134Y-14197984D02*
X14182086Y-14188460D01*
X14182086Y-14188460D02*
X14172563Y-14178936D01*
X14172563Y-14178936D02*
X14163039Y-14159888D01*
X14163039Y-14159888D02*
X14153515Y-14121793D01*
X14153515Y-14121793D02*
X14153515Y-14074174D01*
X14153515Y-14074174D02*
X14163039Y-14036079D01*
X14163039Y-14036079D02*
X14172563Y-14017031D01*
X14172563Y-14017031D02*
X14182086Y-14007508D01*
X14182086Y-14007508D02*
X14201134Y-13997984D01*
X14353515Y-14178936D02*
X14363039Y-14188460D01*
X14363039Y-14188460D02*
X14353515Y-14197984D01*
X14353515Y-14197984D02*
X14343991Y-14188460D01*
X14343991Y-14188460D02*
X14353515Y-14178936D01*
X14353515Y-14178936D02*
X14353515Y-14197984D01*
X14486848Y-13997984D02*
X14505896Y-13997984D01*
X14505896Y-13997984D02*
X14524944Y-14007508D01*
X14524944Y-14007508D02*
X14534467Y-14017031D01*
X14534467Y-14017031D02*
X14543991Y-14036079D01*
X14543991Y-14036079D02*
X14553515Y-14074174D01*
X14553515Y-14074174D02*
X14553515Y-14121793D01*
X14553515Y-14121793D02*
X14543991Y-14159888D01*
X14543991Y-14159888D02*
X14534467Y-14178936D01*
X14534467Y-14178936D02*
X14524944Y-14188460D01*
X14524944Y-14188460D02*
X14505896Y-14197984D01*
X14505896Y-14197984D02*
X14486848Y-14197984D01*
X14486848Y-14197984D02*
X14467801Y-14188460D01*
X14467801Y-14188460D02*
X14458277Y-14178936D01*
X14458277Y-14178936D02*
X14448753Y-14159888D01*
X14448753Y-14159888D02*
X14439229Y-14121793D01*
X14439229Y-14121793D02*
X14439229Y-14074174D01*
X14439229Y-14074174D02*
X14448753Y-14036079D01*
X14448753Y-14036079D02*
X14458277Y-14017031D01*
X14458277Y-14017031D02*
X14467801Y-14007508D01*
X14467801Y-14007508D02*
X14486848Y-13997984D01*
X14620182Y-13997984D02*
X14743991Y-13997984D01*
X14743991Y-13997984D02*
X14677325Y-14074174D01*
X14677325Y-14074174D02*
X14705896Y-14074174D01*
X14705896Y-14074174D02*
X14724944Y-14083698D01*
X14724944Y-14083698D02*
X14734467Y-14093222D01*
X14734467Y-14093222D02*
X14743991Y-14112269D01*
X14743991Y-14112269D02*
X14743991Y-14159888D01*
X14743991Y-14159888D02*
X14734467Y-14178936D01*
X14734467Y-14178936D02*
X14724944Y-14188460D01*
X14724944Y-14188460D02*
X14705896Y-14197984D01*
X14705896Y-14197984D02*
X14648753Y-14197984D01*
X14648753Y-14197984D02*
X14629706Y-14188460D01*
X14629706Y-14188460D02*
X14620182Y-14178936D01*
X14839229Y-14197984D02*
X14877325Y-14197984D01*
X14877325Y-14197984D02*
X14896372Y-14188460D01*
X14896372Y-14188460D02*
X14905896Y-14178936D01*
X14905896Y-14178936D02*
X14924944Y-14150365D01*
X14924944Y-14150365D02*
X14934467Y-14112269D01*
X14934467Y-14112269D02*
X14934467Y-14036079D01*
X14934467Y-14036079D02*
X14924944Y-14017031D01*
X14924944Y-14017031D02*
X14915420Y-14007508D01*
X14915420Y-14007508D02*
X14896372Y-13997984D01*
X14896372Y-13997984D02*
X14858277Y-13997984D01*
X14858277Y-13997984D02*
X14839229Y-14007508D01*
X14839229Y-14007508D02*
X14829706Y-14017031D01*
X14829706Y-14017031D02*
X14820182Y-14036079D01*
X14820182Y-14036079D02*
X14820182Y-14083698D01*
X14820182Y-14083698D02*
X14829706Y-14102746D01*
X14829706Y-14102746D02*
X14839229Y-14112269D01*
X14839229Y-14112269D02*
X14858277Y-14121793D01*
X14858277Y-14121793D02*
X14896372Y-14121793D01*
X14896372Y-14121793D02*
X14915420Y-14112269D01*
X14915420Y-14112269D02*
X14924944Y-14102746D01*
X14924944Y-14102746D02*
X14934467Y-14083698D01*
X15105896Y-14064650D02*
X15105896Y-14197984D01*
X15058277Y-13988460D02*
X15010658Y-14131317D01*
X15010658Y-14131317D02*
X15134467Y-14131317D01*
X15201134Y-13997984D02*
X15201134Y-14036079D01*
X15277325Y-13997984D02*
X15277325Y-14036079D01*
X15572563Y-14274174D02*
X15563039Y-14264650D01*
X15563039Y-14264650D02*
X15543991Y-14236079D01*
X15543991Y-14236079D02*
X15534468Y-14217031D01*
X15534468Y-14217031D02*
X15524944Y-14188460D01*
X15524944Y-14188460D02*
X15515420Y-14140841D01*
X15515420Y-14140841D02*
X15515420Y-14102746D01*
X15515420Y-14102746D02*
X15524944Y-14055127D01*
X15524944Y-14055127D02*
X15534468Y-14026555D01*
X15534468Y-14026555D02*
X15543991Y-14007508D01*
X15543991Y-14007508D02*
X15563039Y-13978936D01*
X15563039Y-13978936D02*
X15572563Y-13969412D01*
X15629706Y-13997984D02*
X15753515Y-13997984D01*
X15753515Y-13997984D02*
X15686848Y-14074174D01*
X15686848Y-14074174D02*
X15715420Y-14074174D01*
X15715420Y-14074174D02*
X15734468Y-14083698D01*
X15734468Y-14083698D02*
X15743991Y-14093222D01*
X15743991Y-14093222D02*
X15753515Y-14112269D01*
X15753515Y-14112269D02*
X15753515Y-14159888D01*
X15753515Y-14159888D02*
X15743991Y-14178936D01*
X15743991Y-14178936D02*
X15734468Y-14188460D01*
X15734468Y-14188460D02*
X15715420Y-14197984D01*
X15715420Y-14197984D02*
X15658277Y-14197984D01*
X15658277Y-14197984D02*
X15639229Y-14188460D01*
X15639229Y-14188460D02*
X15629706Y-14178936D01*
X15924944Y-13997984D02*
X15886848Y-13997984D01*
X15886848Y-13997984D02*
X15867801Y-14007508D01*
X15867801Y-14007508D02*
X15858277Y-14017031D01*
X15858277Y-14017031D02*
X15839229Y-14045603D01*
X15839229Y-14045603D02*
X15829706Y-14083698D01*
X15829706Y-14083698D02*
X15829706Y-14159888D01*
X15829706Y-14159888D02*
X15839229Y-14178936D01*
X15839229Y-14178936D02*
X15848753Y-14188460D01*
X15848753Y-14188460D02*
X15867801Y-14197984D01*
X15867801Y-14197984D02*
X15905896Y-14197984D01*
X15905896Y-14197984D02*
X15924944Y-14188460D01*
X15924944Y-14188460D02*
X15934468Y-14178936D01*
X15934468Y-14178936D02*
X15943991Y-14159888D01*
X15943991Y-14159888D02*
X15943991Y-14112269D01*
X15943991Y-14112269D02*
X15934468Y-14093222D01*
X15934468Y-14093222D02*
X15924944Y-14083698D01*
X15924944Y-14083698D02*
X15905896Y-14074174D01*
X15905896Y-14074174D02*
X15867801Y-14074174D01*
X15867801Y-14074174D02*
X15848753Y-14083698D01*
X15848753Y-14083698D02*
X15839229Y-14093222D01*
X15839229Y-14093222D02*
X15829706Y-14112269D01*
X16182087Y-14197984D02*
X16182087Y-13997984D01*
X16267801Y-14197984D02*
X16267801Y-14093222D01*
X16267801Y-14093222D02*
X16258277Y-14074174D01*
X16258277Y-14074174D02*
X16239230Y-14064650D01*
X16239230Y-14064650D02*
X16210658Y-14064650D01*
X16210658Y-14064650D02*
X16191610Y-14074174D01*
X16191610Y-14074174D02*
X16182087Y-14083698D01*
X16391610Y-14197984D02*
X16372563Y-14188460D01*
X16372563Y-14188460D02*
X16363039Y-14178936D01*
X16363039Y-14178936D02*
X16353515Y-14159888D01*
X16353515Y-14159888D02*
X16353515Y-14102746D01*
X16353515Y-14102746D02*
X16363039Y-14083698D01*
X16363039Y-14083698D02*
X16372563Y-14074174D01*
X16372563Y-14074174D02*
X16391610Y-14064650D01*
X16391610Y-14064650D02*
X16420182Y-14064650D01*
X16420182Y-14064650D02*
X16439230Y-14074174D01*
X16439230Y-14074174D02*
X16448753Y-14083698D01*
X16448753Y-14083698D02*
X16458277Y-14102746D01*
X16458277Y-14102746D02*
X16458277Y-14159888D01*
X16458277Y-14159888D02*
X16448753Y-14178936D01*
X16448753Y-14178936D02*
X16439230Y-14188460D01*
X16439230Y-14188460D02*
X16420182Y-14197984D01*
X16420182Y-14197984D02*
X16391610Y-14197984D01*
X16572563Y-14197984D02*
X16553515Y-14188460D01*
X16553515Y-14188460D02*
X16543991Y-14169412D01*
X16543991Y-14169412D02*
X16543991Y-13997984D01*
X16724944Y-14188460D02*
X16705896Y-14197984D01*
X16705896Y-14197984D02*
X16667801Y-14197984D01*
X16667801Y-14197984D02*
X16648753Y-14188460D01*
X16648753Y-14188460D02*
X16639230Y-14169412D01*
X16639230Y-14169412D02*
X16639230Y-14093222D01*
X16639230Y-14093222D02*
X16648753Y-14074174D01*
X16648753Y-14074174D02*
X16667801Y-14064650D01*
X16667801Y-14064650D02*
X16705896Y-14064650D01*
X16705896Y-14064650D02*
X16724944Y-14074174D01*
X16724944Y-14074174D02*
X16734468Y-14093222D01*
X16734468Y-14093222D02*
X16734468Y-14112269D01*
X16734468Y-14112269D02*
X16639230Y-14131317D01*
X16810658Y-14188460D02*
X16829706Y-14197984D01*
X16829706Y-14197984D02*
X16867801Y-14197984D01*
X16867801Y-14197984D02*
X16886849Y-14188460D01*
X16886849Y-14188460D02*
X16896373Y-14169412D01*
X16896373Y-14169412D02*
X16896373Y-14159888D01*
X16896373Y-14159888D02*
X16886849Y-14140841D01*
X16886849Y-14140841D02*
X16867801Y-14131317D01*
X16867801Y-14131317D02*
X16839230Y-14131317D01*
X16839230Y-14131317D02*
X16820182Y-14121793D01*
X16820182Y-14121793D02*
X16810658Y-14102746D01*
X16810658Y-14102746D02*
X16810658Y-14093222D01*
X16810658Y-14093222D02*
X16820182Y-14074174D01*
X16820182Y-14074174D02*
X16839230Y-14064650D01*
X16839230Y-14064650D02*
X16867801Y-14064650D01*
X16867801Y-14064650D02*
X16886849Y-14074174D01*
X16963039Y-14274174D02*
X16972563Y-14264650D01*
X16972563Y-14264650D02*
X16991611Y-14236079D01*
X16991611Y-14236079D02*
X17001134Y-14217031D01*
X17001134Y-14217031D02*
X17010658Y-14188460D01*
X17010658Y-14188460D02*
X17020182Y-14140841D01*
X17020182Y-14140841D02*
X17020182Y-14102746D01*
X17020182Y-14102746D02*
X17010658Y-14055127D01*
X17010658Y-14055127D02*
X17001134Y-14026555D01*
X17001134Y-14026555D02*
X16991611Y-14007508D01*
X16991611Y-14007508D02*
X16972563Y-13978936D01*
X16972563Y-13978936D02*
X16963039Y-13969412D01*
M02*
