%TF.GenerationSoftware,KiCad,Pcbnew,8.0.1*%
%TF.CreationDate,2024-04-24T16:47:31+07:00*%
%TF.ProjectId,holyiot-21043-nrf52810,686f6c79-696f-4742-9d32-313034332d6e,rev?*%
%TF.SameCoordinates,Original*%
%TF.FileFunction,Legend,Top*%
%TF.FilePolarity,Positive*%
%FSLAX46Y46*%
G04 Gerber Fmt 4.6, Leading zero omitted, Abs format (unit mm)*
G04 Created by KiCad (PCBNEW 8.0.1) date 2024-04-24 16:47:31*
%MOMM*%
%LPD*%
G01*
G04 APERTURE LIST*
%ADD10C,0.100000*%
%ADD11C,0.150000*%
%ADD12C,0.120000*%
%ADD13C,0.500000*%
G04 APERTURE END LIST*
D10*
X126056265Y-111824800D02*
X126199122Y-111872419D01*
X126199122Y-111872419D02*
X126437217Y-111872419D01*
X126437217Y-111872419D02*
X126532455Y-111824800D01*
X126532455Y-111824800D02*
X126580074Y-111777180D01*
X126580074Y-111777180D02*
X126627693Y-111681942D01*
X126627693Y-111681942D02*
X126627693Y-111586704D01*
X126627693Y-111586704D02*
X126580074Y-111491466D01*
X126580074Y-111491466D02*
X126532455Y-111443847D01*
X126532455Y-111443847D02*
X126437217Y-111396228D01*
X126437217Y-111396228D02*
X126246741Y-111348609D01*
X126246741Y-111348609D02*
X126151503Y-111300990D01*
X126151503Y-111300990D02*
X126103884Y-111253371D01*
X126103884Y-111253371D02*
X126056265Y-111158133D01*
X126056265Y-111158133D02*
X126056265Y-111062895D01*
X126056265Y-111062895D02*
X126103884Y-110967657D01*
X126103884Y-110967657D02*
X126151503Y-110920038D01*
X126151503Y-110920038D02*
X126246741Y-110872419D01*
X126246741Y-110872419D02*
X126484836Y-110872419D01*
X126484836Y-110872419D02*
X126627693Y-110920038D01*
X126961027Y-110872419D02*
X127199122Y-111872419D01*
X127199122Y-111872419D02*
X127389598Y-111158133D01*
X127389598Y-111158133D02*
X127580074Y-111872419D01*
X127580074Y-111872419D02*
X127818170Y-110872419D01*
X128199122Y-111872419D02*
X128199122Y-110872419D01*
X128199122Y-110872419D02*
X128437217Y-110872419D01*
X128437217Y-110872419D02*
X128580074Y-110920038D01*
X128580074Y-110920038D02*
X128675312Y-111015276D01*
X128675312Y-111015276D02*
X128722931Y-111110514D01*
X128722931Y-111110514D02*
X128770550Y-111300990D01*
X128770550Y-111300990D02*
X128770550Y-111443847D01*
X128770550Y-111443847D02*
X128722931Y-111634323D01*
X128722931Y-111634323D02*
X128675312Y-111729561D01*
X128675312Y-111729561D02*
X128580074Y-111824800D01*
X128580074Y-111824800D02*
X128437217Y-111872419D01*
X128437217Y-111872419D02*
X128199122Y-111872419D01*
X129770550Y-111777180D02*
X129722931Y-111824800D01*
X129722931Y-111824800D02*
X129580074Y-111872419D01*
X129580074Y-111872419D02*
X129484836Y-111872419D01*
X129484836Y-111872419D02*
X129341979Y-111824800D01*
X129341979Y-111824800D02*
X129246741Y-111729561D01*
X129246741Y-111729561D02*
X129199122Y-111634323D01*
X129199122Y-111634323D02*
X129151503Y-111443847D01*
X129151503Y-111443847D02*
X129151503Y-111300990D01*
X129151503Y-111300990D02*
X129199122Y-111110514D01*
X129199122Y-111110514D02*
X129246741Y-111015276D01*
X129246741Y-111015276D02*
X129341979Y-110920038D01*
X129341979Y-110920038D02*
X129484836Y-110872419D01*
X129484836Y-110872419D02*
X129580074Y-110872419D01*
X129580074Y-110872419D02*
X129722931Y-110920038D01*
X129722931Y-110920038D02*
X129770550Y-110967657D01*
X130675312Y-111872419D02*
X130199122Y-111872419D01*
X130199122Y-111872419D02*
X130199122Y-110872419D01*
X131008646Y-111872419D02*
X131008646Y-110872419D01*
X131580074Y-111872419D02*
X131151503Y-111300990D01*
X131580074Y-110872419D02*
X131008646Y-111443847D01*
X141872419Y-125896115D02*
X140872419Y-125896115D01*
X140872419Y-125896115D02*
X140872419Y-125515163D01*
X140872419Y-125515163D02*
X140920038Y-125419925D01*
X140920038Y-125419925D02*
X140967657Y-125372306D01*
X140967657Y-125372306D02*
X141062895Y-125324687D01*
X141062895Y-125324687D02*
X141205752Y-125324687D01*
X141205752Y-125324687D02*
X141300990Y-125372306D01*
X141300990Y-125372306D02*
X141348609Y-125419925D01*
X141348609Y-125419925D02*
X141396228Y-125515163D01*
X141396228Y-125515163D02*
X141396228Y-125896115D01*
X140872419Y-124705639D02*
X140872419Y-124610401D01*
X140872419Y-124610401D02*
X140920038Y-124515163D01*
X140920038Y-124515163D02*
X140967657Y-124467544D01*
X140967657Y-124467544D02*
X141062895Y-124419925D01*
X141062895Y-124419925D02*
X141253371Y-124372306D01*
X141253371Y-124372306D02*
X141491466Y-124372306D01*
X141491466Y-124372306D02*
X141681942Y-124419925D01*
X141681942Y-124419925D02*
X141777180Y-124467544D01*
X141777180Y-124467544D02*
X141824800Y-124515163D01*
X141824800Y-124515163D02*
X141872419Y-124610401D01*
X141872419Y-124610401D02*
X141872419Y-124705639D01*
X141872419Y-124705639D02*
X141824800Y-124800877D01*
X141824800Y-124800877D02*
X141777180Y-124848496D01*
X141777180Y-124848496D02*
X141681942Y-124896115D01*
X141681942Y-124896115D02*
X141491466Y-124943734D01*
X141491466Y-124943734D02*
X141253371Y-124943734D01*
X141253371Y-124943734D02*
X141062895Y-124896115D01*
X141062895Y-124896115D02*
X140967657Y-124848496D01*
X140967657Y-124848496D02*
X140920038Y-124800877D01*
X140920038Y-124800877D02*
X140872419Y-124705639D01*
X141777180Y-123943734D02*
X141824800Y-123896115D01*
X141824800Y-123896115D02*
X141872419Y-123943734D01*
X141872419Y-123943734D02*
X141824800Y-123991353D01*
X141824800Y-123991353D02*
X141777180Y-123943734D01*
X141777180Y-123943734D02*
X141872419Y-123943734D01*
X141872419Y-122943735D02*
X141872419Y-123515163D01*
X141872419Y-123229449D02*
X140872419Y-123229449D01*
X140872419Y-123229449D02*
X141015276Y-123324687D01*
X141015276Y-123324687D02*
X141110514Y-123419925D01*
X141110514Y-123419925D02*
X141158133Y-123515163D01*
X140872419Y-122324687D02*
X140872419Y-122229449D01*
X140872419Y-122229449D02*
X140920038Y-122134211D01*
X140920038Y-122134211D02*
X140967657Y-122086592D01*
X140967657Y-122086592D02*
X141062895Y-122038973D01*
X141062895Y-122038973D02*
X141253371Y-121991354D01*
X141253371Y-121991354D02*
X141491466Y-121991354D01*
X141491466Y-121991354D02*
X141681942Y-122038973D01*
X141681942Y-122038973D02*
X141777180Y-122086592D01*
X141777180Y-122086592D02*
X141824800Y-122134211D01*
X141824800Y-122134211D02*
X141872419Y-122229449D01*
X141872419Y-122229449D02*
X141872419Y-122324687D01*
X141872419Y-122324687D02*
X141824800Y-122419925D01*
X141824800Y-122419925D02*
X141777180Y-122467544D01*
X141777180Y-122467544D02*
X141681942Y-122515163D01*
X141681942Y-122515163D02*
X141491466Y-122562782D01*
X141491466Y-122562782D02*
X141253371Y-122562782D01*
X141253371Y-122562782D02*
X141062895Y-122515163D01*
X141062895Y-122515163D02*
X140967657Y-122467544D01*
X140967657Y-122467544D02*
X140920038Y-122419925D01*
X140920038Y-122419925D02*
X140872419Y-122324687D01*
X156303884Y-112072419D02*
X156303884Y-111072419D01*
X156303884Y-111072419D02*
X156684836Y-111072419D01*
X156684836Y-111072419D02*
X156780074Y-111120038D01*
X156780074Y-111120038D02*
X156827693Y-111167657D01*
X156827693Y-111167657D02*
X156875312Y-111262895D01*
X156875312Y-111262895D02*
X156875312Y-111405752D01*
X156875312Y-111405752D02*
X156827693Y-111500990D01*
X156827693Y-111500990D02*
X156780074Y-111548609D01*
X156780074Y-111548609D02*
X156684836Y-111596228D01*
X156684836Y-111596228D02*
X156303884Y-111596228D01*
X157494360Y-111072419D02*
X157589598Y-111072419D01*
X157589598Y-111072419D02*
X157684836Y-111120038D01*
X157684836Y-111120038D02*
X157732455Y-111167657D01*
X157732455Y-111167657D02*
X157780074Y-111262895D01*
X157780074Y-111262895D02*
X157827693Y-111453371D01*
X157827693Y-111453371D02*
X157827693Y-111691466D01*
X157827693Y-111691466D02*
X157780074Y-111881942D01*
X157780074Y-111881942D02*
X157732455Y-111977180D01*
X157732455Y-111977180D02*
X157684836Y-112024800D01*
X157684836Y-112024800D02*
X157589598Y-112072419D01*
X157589598Y-112072419D02*
X157494360Y-112072419D01*
X157494360Y-112072419D02*
X157399122Y-112024800D01*
X157399122Y-112024800D02*
X157351503Y-111977180D01*
X157351503Y-111977180D02*
X157303884Y-111881942D01*
X157303884Y-111881942D02*
X157256265Y-111691466D01*
X157256265Y-111691466D02*
X157256265Y-111453371D01*
X157256265Y-111453371D02*
X157303884Y-111262895D01*
X157303884Y-111262895D02*
X157351503Y-111167657D01*
X157351503Y-111167657D02*
X157399122Y-111120038D01*
X157399122Y-111120038D02*
X157494360Y-111072419D01*
X158256265Y-111977180D02*
X158303884Y-112024800D01*
X158303884Y-112024800D02*
X158256265Y-112072419D01*
X158256265Y-112072419D02*
X158208646Y-112024800D01*
X158208646Y-112024800D02*
X158256265Y-111977180D01*
X158256265Y-111977180D02*
X158256265Y-112072419D01*
X158684836Y-111167657D02*
X158732455Y-111120038D01*
X158732455Y-111120038D02*
X158827693Y-111072419D01*
X158827693Y-111072419D02*
X159065788Y-111072419D01*
X159065788Y-111072419D02*
X159161026Y-111120038D01*
X159161026Y-111120038D02*
X159208645Y-111167657D01*
X159208645Y-111167657D02*
X159256264Y-111262895D01*
X159256264Y-111262895D02*
X159256264Y-111358133D01*
X159256264Y-111358133D02*
X159208645Y-111500990D01*
X159208645Y-111500990D02*
X158637217Y-112072419D01*
X158637217Y-112072419D02*
X159256264Y-112072419D01*
X159732455Y-112072419D02*
X159922931Y-112072419D01*
X159922931Y-112072419D02*
X160018169Y-112024800D01*
X160018169Y-112024800D02*
X160065788Y-111977180D01*
X160065788Y-111977180D02*
X160161026Y-111834323D01*
X160161026Y-111834323D02*
X160208645Y-111643847D01*
X160208645Y-111643847D02*
X160208645Y-111262895D01*
X160208645Y-111262895D02*
X160161026Y-111167657D01*
X160161026Y-111167657D02*
X160113407Y-111120038D01*
X160113407Y-111120038D02*
X160018169Y-111072419D01*
X160018169Y-111072419D02*
X159827693Y-111072419D01*
X159827693Y-111072419D02*
X159732455Y-111120038D01*
X159732455Y-111120038D02*
X159684836Y-111167657D01*
X159684836Y-111167657D02*
X159637217Y-111262895D01*
X159637217Y-111262895D02*
X159637217Y-111500990D01*
X159637217Y-111500990D02*
X159684836Y-111596228D01*
X159684836Y-111596228D02*
X159732455Y-111643847D01*
X159732455Y-111643847D02*
X159827693Y-111691466D01*
X159827693Y-111691466D02*
X160018169Y-111691466D01*
X160018169Y-111691466D02*
X160113407Y-111643847D01*
X160113407Y-111643847D02*
X160161026Y-111596228D01*
X160161026Y-111596228D02*
X160208645Y-111500990D01*
X136872419Y-125896115D02*
X135872419Y-125896115D01*
X135872419Y-125896115D02*
X135872419Y-125515163D01*
X135872419Y-125515163D02*
X135920038Y-125419925D01*
X135920038Y-125419925D02*
X135967657Y-125372306D01*
X135967657Y-125372306D02*
X136062895Y-125324687D01*
X136062895Y-125324687D02*
X136205752Y-125324687D01*
X136205752Y-125324687D02*
X136300990Y-125372306D01*
X136300990Y-125372306D02*
X136348609Y-125419925D01*
X136348609Y-125419925D02*
X136396228Y-125515163D01*
X136396228Y-125515163D02*
X136396228Y-125896115D01*
X135872419Y-124705639D02*
X135872419Y-124610401D01*
X135872419Y-124610401D02*
X135920038Y-124515163D01*
X135920038Y-124515163D02*
X135967657Y-124467544D01*
X135967657Y-124467544D02*
X136062895Y-124419925D01*
X136062895Y-124419925D02*
X136253371Y-124372306D01*
X136253371Y-124372306D02*
X136491466Y-124372306D01*
X136491466Y-124372306D02*
X136681942Y-124419925D01*
X136681942Y-124419925D02*
X136777180Y-124467544D01*
X136777180Y-124467544D02*
X136824800Y-124515163D01*
X136824800Y-124515163D02*
X136872419Y-124610401D01*
X136872419Y-124610401D02*
X136872419Y-124705639D01*
X136872419Y-124705639D02*
X136824800Y-124800877D01*
X136824800Y-124800877D02*
X136777180Y-124848496D01*
X136777180Y-124848496D02*
X136681942Y-124896115D01*
X136681942Y-124896115D02*
X136491466Y-124943734D01*
X136491466Y-124943734D02*
X136253371Y-124943734D01*
X136253371Y-124943734D02*
X136062895Y-124896115D01*
X136062895Y-124896115D02*
X135967657Y-124848496D01*
X135967657Y-124848496D02*
X135920038Y-124800877D01*
X135920038Y-124800877D02*
X135872419Y-124705639D01*
X136777180Y-123943734D02*
X136824800Y-123896115D01*
X136824800Y-123896115D02*
X136872419Y-123943734D01*
X136872419Y-123943734D02*
X136824800Y-123991353D01*
X136824800Y-123991353D02*
X136777180Y-123943734D01*
X136777180Y-123943734D02*
X136872419Y-123943734D01*
X136872419Y-122943735D02*
X136872419Y-123515163D01*
X136872419Y-123229449D02*
X135872419Y-123229449D01*
X135872419Y-123229449D02*
X136015276Y-123324687D01*
X136015276Y-123324687D02*
X136110514Y-123419925D01*
X136110514Y-123419925D02*
X136158133Y-123515163D01*
X135967657Y-122562782D02*
X135920038Y-122515163D01*
X135920038Y-122515163D02*
X135872419Y-122419925D01*
X135872419Y-122419925D02*
X135872419Y-122181830D01*
X135872419Y-122181830D02*
X135920038Y-122086592D01*
X135920038Y-122086592D02*
X135967657Y-122038973D01*
X135967657Y-122038973D02*
X136062895Y-121991354D01*
X136062895Y-121991354D02*
X136158133Y-121991354D01*
X136158133Y-121991354D02*
X136300990Y-122038973D01*
X136300990Y-122038973D02*
X136872419Y-122610401D01*
X136872419Y-122610401D02*
X136872419Y-121991354D01*
X152072419Y-125896115D02*
X151072419Y-125896115D01*
X151072419Y-125896115D02*
X151072419Y-125515163D01*
X151072419Y-125515163D02*
X151120038Y-125419925D01*
X151120038Y-125419925D02*
X151167657Y-125372306D01*
X151167657Y-125372306D02*
X151262895Y-125324687D01*
X151262895Y-125324687D02*
X151405752Y-125324687D01*
X151405752Y-125324687D02*
X151500990Y-125372306D01*
X151500990Y-125372306D02*
X151548609Y-125419925D01*
X151548609Y-125419925D02*
X151596228Y-125515163D01*
X151596228Y-125515163D02*
X151596228Y-125896115D01*
X151072419Y-124705639D02*
X151072419Y-124610401D01*
X151072419Y-124610401D02*
X151120038Y-124515163D01*
X151120038Y-124515163D02*
X151167657Y-124467544D01*
X151167657Y-124467544D02*
X151262895Y-124419925D01*
X151262895Y-124419925D02*
X151453371Y-124372306D01*
X151453371Y-124372306D02*
X151691466Y-124372306D01*
X151691466Y-124372306D02*
X151881942Y-124419925D01*
X151881942Y-124419925D02*
X151977180Y-124467544D01*
X151977180Y-124467544D02*
X152024800Y-124515163D01*
X152024800Y-124515163D02*
X152072419Y-124610401D01*
X152072419Y-124610401D02*
X152072419Y-124705639D01*
X152072419Y-124705639D02*
X152024800Y-124800877D01*
X152024800Y-124800877D02*
X151977180Y-124848496D01*
X151977180Y-124848496D02*
X151881942Y-124896115D01*
X151881942Y-124896115D02*
X151691466Y-124943734D01*
X151691466Y-124943734D02*
X151453371Y-124943734D01*
X151453371Y-124943734D02*
X151262895Y-124896115D01*
X151262895Y-124896115D02*
X151167657Y-124848496D01*
X151167657Y-124848496D02*
X151120038Y-124800877D01*
X151120038Y-124800877D02*
X151072419Y-124705639D01*
X151977180Y-123943734D02*
X152024800Y-123896115D01*
X152024800Y-123896115D02*
X152072419Y-123943734D01*
X152072419Y-123943734D02*
X152024800Y-123991353D01*
X152024800Y-123991353D02*
X151977180Y-123943734D01*
X151977180Y-123943734D02*
X152072419Y-123943734D01*
X151072419Y-123277068D02*
X151072419Y-123181830D01*
X151072419Y-123181830D02*
X151120038Y-123086592D01*
X151120038Y-123086592D02*
X151167657Y-123038973D01*
X151167657Y-123038973D02*
X151262895Y-122991354D01*
X151262895Y-122991354D02*
X151453371Y-122943735D01*
X151453371Y-122943735D02*
X151691466Y-122943735D01*
X151691466Y-122943735D02*
X151881942Y-122991354D01*
X151881942Y-122991354D02*
X151977180Y-123038973D01*
X151977180Y-123038973D02*
X152024800Y-123086592D01*
X152024800Y-123086592D02*
X152072419Y-123181830D01*
X152072419Y-123181830D02*
X152072419Y-123277068D01*
X152072419Y-123277068D02*
X152024800Y-123372306D01*
X152024800Y-123372306D02*
X151977180Y-123419925D01*
X151977180Y-123419925D02*
X151881942Y-123467544D01*
X151881942Y-123467544D02*
X151691466Y-123515163D01*
X151691466Y-123515163D02*
X151453371Y-123515163D01*
X151453371Y-123515163D02*
X151262895Y-123467544D01*
X151262895Y-123467544D02*
X151167657Y-123419925D01*
X151167657Y-123419925D02*
X151120038Y-123372306D01*
X151120038Y-123372306D02*
X151072419Y-123277068D01*
X151072419Y-122086592D02*
X151072419Y-122277068D01*
X151072419Y-122277068D02*
X151120038Y-122372306D01*
X151120038Y-122372306D02*
X151167657Y-122419925D01*
X151167657Y-122419925D02*
X151310514Y-122515163D01*
X151310514Y-122515163D02*
X151500990Y-122562782D01*
X151500990Y-122562782D02*
X151881942Y-122562782D01*
X151881942Y-122562782D02*
X151977180Y-122515163D01*
X151977180Y-122515163D02*
X152024800Y-122467544D01*
X152024800Y-122467544D02*
X152072419Y-122372306D01*
X152072419Y-122372306D02*
X152072419Y-122181830D01*
X152072419Y-122181830D02*
X152024800Y-122086592D01*
X152024800Y-122086592D02*
X151977180Y-122038973D01*
X151977180Y-122038973D02*
X151881942Y-121991354D01*
X151881942Y-121991354D02*
X151643847Y-121991354D01*
X151643847Y-121991354D02*
X151548609Y-122038973D01*
X151548609Y-122038973D02*
X151500990Y-122086592D01*
X151500990Y-122086592D02*
X151453371Y-122181830D01*
X151453371Y-122181830D02*
X151453371Y-122372306D01*
X151453371Y-122372306D02*
X151500990Y-122467544D01*
X151500990Y-122467544D02*
X151548609Y-122515163D01*
X151548609Y-122515163D02*
X151643847Y-122562782D01*
X156827693Y-123720038D02*
X156732455Y-123672419D01*
X156732455Y-123672419D02*
X156589598Y-123672419D01*
X156589598Y-123672419D02*
X156446741Y-123720038D01*
X156446741Y-123720038D02*
X156351503Y-123815276D01*
X156351503Y-123815276D02*
X156303884Y-123910514D01*
X156303884Y-123910514D02*
X156256265Y-124100990D01*
X156256265Y-124100990D02*
X156256265Y-124243847D01*
X156256265Y-124243847D02*
X156303884Y-124434323D01*
X156303884Y-124434323D02*
X156351503Y-124529561D01*
X156351503Y-124529561D02*
X156446741Y-124624800D01*
X156446741Y-124624800D02*
X156589598Y-124672419D01*
X156589598Y-124672419D02*
X156684836Y-124672419D01*
X156684836Y-124672419D02*
X156827693Y-124624800D01*
X156827693Y-124624800D02*
X156875312Y-124577180D01*
X156875312Y-124577180D02*
X156875312Y-124243847D01*
X156875312Y-124243847D02*
X156684836Y-124243847D01*
X157303884Y-124672419D02*
X157303884Y-123672419D01*
X157303884Y-123672419D02*
X157875312Y-124672419D01*
X157875312Y-124672419D02*
X157875312Y-123672419D01*
X158351503Y-124672419D02*
X158351503Y-123672419D01*
X158351503Y-123672419D02*
X158589598Y-123672419D01*
X158589598Y-123672419D02*
X158732455Y-123720038D01*
X158732455Y-123720038D02*
X158827693Y-123815276D01*
X158827693Y-123815276D02*
X158875312Y-123910514D01*
X158875312Y-123910514D02*
X158922931Y-124100990D01*
X158922931Y-124100990D02*
X158922931Y-124243847D01*
X158922931Y-124243847D02*
X158875312Y-124434323D01*
X158875312Y-124434323D02*
X158827693Y-124529561D01*
X158827693Y-124529561D02*
X158732455Y-124624800D01*
X158732455Y-124624800D02*
X158589598Y-124672419D01*
X158589598Y-124672419D02*
X158351503Y-124672419D01*
X126103884Y-104272419D02*
X126103884Y-103272419D01*
X126103884Y-103272419D02*
X126484836Y-103272419D01*
X126484836Y-103272419D02*
X126580074Y-103320038D01*
X126580074Y-103320038D02*
X126627693Y-103367657D01*
X126627693Y-103367657D02*
X126675312Y-103462895D01*
X126675312Y-103462895D02*
X126675312Y-103605752D01*
X126675312Y-103605752D02*
X126627693Y-103700990D01*
X126627693Y-103700990D02*
X126580074Y-103748609D01*
X126580074Y-103748609D02*
X126484836Y-103796228D01*
X126484836Y-103796228D02*
X126103884Y-103796228D01*
X127294360Y-103272419D02*
X127389598Y-103272419D01*
X127389598Y-103272419D02*
X127484836Y-103320038D01*
X127484836Y-103320038D02*
X127532455Y-103367657D01*
X127532455Y-103367657D02*
X127580074Y-103462895D01*
X127580074Y-103462895D02*
X127627693Y-103653371D01*
X127627693Y-103653371D02*
X127627693Y-103891466D01*
X127627693Y-103891466D02*
X127580074Y-104081942D01*
X127580074Y-104081942D02*
X127532455Y-104177180D01*
X127532455Y-104177180D02*
X127484836Y-104224800D01*
X127484836Y-104224800D02*
X127389598Y-104272419D01*
X127389598Y-104272419D02*
X127294360Y-104272419D01*
X127294360Y-104272419D02*
X127199122Y-104224800D01*
X127199122Y-104224800D02*
X127151503Y-104177180D01*
X127151503Y-104177180D02*
X127103884Y-104081942D01*
X127103884Y-104081942D02*
X127056265Y-103891466D01*
X127056265Y-103891466D02*
X127056265Y-103653371D01*
X127056265Y-103653371D02*
X127103884Y-103462895D01*
X127103884Y-103462895D02*
X127151503Y-103367657D01*
X127151503Y-103367657D02*
X127199122Y-103320038D01*
X127199122Y-103320038D02*
X127294360Y-103272419D01*
X128056265Y-104177180D02*
X128103884Y-104224800D01*
X128103884Y-104224800D02*
X128056265Y-104272419D01*
X128056265Y-104272419D02*
X128008646Y-104224800D01*
X128008646Y-104224800D02*
X128056265Y-104177180D01*
X128056265Y-104177180D02*
X128056265Y-104272419D01*
X128484836Y-103367657D02*
X128532455Y-103320038D01*
X128532455Y-103320038D02*
X128627693Y-103272419D01*
X128627693Y-103272419D02*
X128865788Y-103272419D01*
X128865788Y-103272419D02*
X128961026Y-103320038D01*
X128961026Y-103320038D02*
X129008645Y-103367657D01*
X129008645Y-103367657D02*
X129056264Y-103462895D01*
X129056264Y-103462895D02*
X129056264Y-103558133D01*
X129056264Y-103558133D02*
X129008645Y-103700990D01*
X129008645Y-103700990D02*
X128437217Y-104272419D01*
X128437217Y-104272419D02*
X129056264Y-104272419D01*
X129389598Y-103272419D02*
X130008645Y-103272419D01*
X130008645Y-103272419D02*
X129675312Y-103653371D01*
X129675312Y-103653371D02*
X129818169Y-103653371D01*
X129818169Y-103653371D02*
X129913407Y-103700990D01*
X129913407Y-103700990D02*
X129961026Y-103748609D01*
X129961026Y-103748609D02*
X130008645Y-103843847D01*
X130008645Y-103843847D02*
X130008645Y-104081942D01*
X130008645Y-104081942D02*
X129961026Y-104177180D01*
X129961026Y-104177180D02*
X129913407Y-104224800D01*
X129913407Y-104224800D02*
X129818169Y-104272419D01*
X129818169Y-104272419D02*
X129532455Y-104272419D01*
X129532455Y-104272419D02*
X129437217Y-104224800D01*
X129437217Y-104224800D02*
X129389598Y-104177180D01*
X156303884Y-104472419D02*
X156303884Y-103472419D01*
X156303884Y-103472419D02*
X156684836Y-103472419D01*
X156684836Y-103472419D02*
X156780074Y-103520038D01*
X156780074Y-103520038D02*
X156827693Y-103567657D01*
X156827693Y-103567657D02*
X156875312Y-103662895D01*
X156875312Y-103662895D02*
X156875312Y-103805752D01*
X156875312Y-103805752D02*
X156827693Y-103900990D01*
X156827693Y-103900990D02*
X156780074Y-103948609D01*
X156780074Y-103948609D02*
X156684836Y-103996228D01*
X156684836Y-103996228D02*
X156303884Y-103996228D01*
X157494360Y-103472419D02*
X157589598Y-103472419D01*
X157589598Y-103472419D02*
X157684836Y-103520038D01*
X157684836Y-103520038D02*
X157732455Y-103567657D01*
X157732455Y-103567657D02*
X157780074Y-103662895D01*
X157780074Y-103662895D02*
X157827693Y-103853371D01*
X157827693Y-103853371D02*
X157827693Y-104091466D01*
X157827693Y-104091466D02*
X157780074Y-104281942D01*
X157780074Y-104281942D02*
X157732455Y-104377180D01*
X157732455Y-104377180D02*
X157684836Y-104424800D01*
X157684836Y-104424800D02*
X157589598Y-104472419D01*
X157589598Y-104472419D02*
X157494360Y-104472419D01*
X157494360Y-104472419D02*
X157399122Y-104424800D01*
X157399122Y-104424800D02*
X157351503Y-104377180D01*
X157351503Y-104377180D02*
X157303884Y-104281942D01*
X157303884Y-104281942D02*
X157256265Y-104091466D01*
X157256265Y-104091466D02*
X157256265Y-103853371D01*
X157256265Y-103853371D02*
X157303884Y-103662895D01*
X157303884Y-103662895D02*
X157351503Y-103567657D01*
X157351503Y-103567657D02*
X157399122Y-103520038D01*
X157399122Y-103520038D02*
X157494360Y-103472419D01*
X158256265Y-104377180D02*
X158303884Y-104424800D01*
X158303884Y-104424800D02*
X158256265Y-104472419D01*
X158256265Y-104472419D02*
X158208646Y-104424800D01*
X158208646Y-104424800D02*
X158256265Y-104377180D01*
X158256265Y-104377180D02*
X158256265Y-104472419D01*
X158684836Y-103567657D02*
X158732455Y-103520038D01*
X158732455Y-103520038D02*
X158827693Y-103472419D01*
X158827693Y-103472419D02*
X159065788Y-103472419D01*
X159065788Y-103472419D02*
X159161026Y-103520038D01*
X159161026Y-103520038D02*
X159208645Y-103567657D01*
X159208645Y-103567657D02*
X159256264Y-103662895D01*
X159256264Y-103662895D02*
X159256264Y-103758133D01*
X159256264Y-103758133D02*
X159208645Y-103900990D01*
X159208645Y-103900990D02*
X158637217Y-104472419D01*
X158637217Y-104472419D02*
X159256264Y-104472419D01*
X160113407Y-103472419D02*
X159922931Y-103472419D01*
X159922931Y-103472419D02*
X159827693Y-103520038D01*
X159827693Y-103520038D02*
X159780074Y-103567657D01*
X159780074Y-103567657D02*
X159684836Y-103710514D01*
X159684836Y-103710514D02*
X159637217Y-103900990D01*
X159637217Y-103900990D02*
X159637217Y-104281942D01*
X159637217Y-104281942D02*
X159684836Y-104377180D01*
X159684836Y-104377180D02*
X159732455Y-104424800D01*
X159732455Y-104424800D02*
X159827693Y-104472419D01*
X159827693Y-104472419D02*
X160018169Y-104472419D01*
X160018169Y-104472419D02*
X160113407Y-104424800D01*
X160113407Y-104424800D02*
X160161026Y-104377180D01*
X160161026Y-104377180D02*
X160208645Y-104281942D01*
X160208645Y-104281942D02*
X160208645Y-104043847D01*
X160208645Y-104043847D02*
X160161026Y-103948609D01*
X160161026Y-103948609D02*
X160113407Y-103900990D01*
X160113407Y-103900990D02*
X160018169Y-103853371D01*
X160018169Y-103853371D02*
X159827693Y-103853371D01*
X159827693Y-103853371D02*
X159732455Y-103900990D01*
X159732455Y-103900990D02*
X159684836Y-103948609D01*
X159684836Y-103948609D02*
X159637217Y-104043847D01*
X149672419Y-125896115D02*
X148672419Y-125896115D01*
X148672419Y-125896115D02*
X148672419Y-125515163D01*
X148672419Y-125515163D02*
X148720038Y-125419925D01*
X148720038Y-125419925D02*
X148767657Y-125372306D01*
X148767657Y-125372306D02*
X148862895Y-125324687D01*
X148862895Y-125324687D02*
X149005752Y-125324687D01*
X149005752Y-125324687D02*
X149100990Y-125372306D01*
X149100990Y-125372306D02*
X149148609Y-125419925D01*
X149148609Y-125419925D02*
X149196228Y-125515163D01*
X149196228Y-125515163D02*
X149196228Y-125896115D01*
X148672419Y-124705639D02*
X148672419Y-124610401D01*
X148672419Y-124610401D02*
X148720038Y-124515163D01*
X148720038Y-124515163D02*
X148767657Y-124467544D01*
X148767657Y-124467544D02*
X148862895Y-124419925D01*
X148862895Y-124419925D02*
X149053371Y-124372306D01*
X149053371Y-124372306D02*
X149291466Y-124372306D01*
X149291466Y-124372306D02*
X149481942Y-124419925D01*
X149481942Y-124419925D02*
X149577180Y-124467544D01*
X149577180Y-124467544D02*
X149624800Y-124515163D01*
X149624800Y-124515163D02*
X149672419Y-124610401D01*
X149672419Y-124610401D02*
X149672419Y-124705639D01*
X149672419Y-124705639D02*
X149624800Y-124800877D01*
X149624800Y-124800877D02*
X149577180Y-124848496D01*
X149577180Y-124848496D02*
X149481942Y-124896115D01*
X149481942Y-124896115D02*
X149291466Y-124943734D01*
X149291466Y-124943734D02*
X149053371Y-124943734D01*
X149053371Y-124943734D02*
X148862895Y-124896115D01*
X148862895Y-124896115D02*
X148767657Y-124848496D01*
X148767657Y-124848496D02*
X148720038Y-124800877D01*
X148720038Y-124800877D02*
X148672419Y-124705639D01*
X149577180Y-123943734D02*
X149624800Y-123896115D01*
X149624800Y-123896115D02*
X149672419Y-123943734D01*
X149672419Y-123943734D02*
X149624800Y-123991353D01*
X149624800Y-123991353D02*
X149577180Y-123943734D01*
X149577180Y-123943734D02*
X149672419Y-123943734D01*
X148672419Y-123277068D02*
X148672419Y-123181830D01*
X148672419Y-123181830D02*
X148720038Y-123086592D01*
X148720038Y-123086592D02*
X148767657Y-123038973D01*
X148767657Y-123038973D02*
X148862895Y-122991354D01*
X148862895Y-122991354D02*
X149053371Y-122943735D01*
X149053371Y-122943735D02*
X149291466Y-122943735D01*
X149291466Y-122943735D02*
X149481942Y-122991354D01*
X149481942Y-122991354D02*
X149577180Y-123038973D01*
X149577180Y-123038973D02*
X149624800Y-123086592D01*
X149624800Y-123086592D02*
X149672419Y-123181830D01*
X149672419Y-123181830D02*
X149672419Y-123277068D01*
X149672419Y-123277068D02*
X149624800Y-123372306D01*
X149624800Y-123372306D02*
X149577180Y-123419925D01*
X149577180Y-123419925D02*
X149481942Y-123467544D01*
X149481942Y-123467544D02*
X149291466Y-123515163D01*
X149291466Y-123515163D02*
X149053371Y-123515163D01*
X149053371Y-123515163D02*
X148862895Y-123467544D01*
X148862895Y-123467544D02*
X148767657Y-123419925D01*
X148767657Y-123419925D02*
X148720038Y-123372306D01*
X148720038Y-123372306D02*
X148672419Y-123277068D01*
X148672419Y-122610401D02*
X148672419Y-121943735D01*
X148672419Y-121943735D02*
X149672419Y-122372306D01*
X144472419Y-125896115D02*
X143472419Y-125896115D01*
X143472419Y-125896115D02*
X143472419Y-125515163D01*
X143472419Y-125515163D02*
X143520038Y-125419925D01*
X143520038Y-125419925D02*
X143567657Y-125372306D01*
X143567657Y-125372306D02*
X143662895Y-125324687D01*
X143662895Y-125324687D02*
X143805752Y-125324687D01*
X143805752Y-125324687D02*
X143900990Y-125372306D01*
X143900990Y-125372306D02*
X143948609Y-125419925D01*
X143948609Y-125419925D02*
X143996228Y-125515163D01*
X143996228Y-125515163D02*
X143996228Y-125896115D01*
X143472419Y-124705639D02*
X143472419Y-124610401D01*
X143472419Y-124610401D02*
X143520038Y-124515163D01*
X143520038Y-124515163D02*
X143567657Y-124467544D01*
X143567657Y-124467544D02*
X143662895Y-124419925D01*
X143662895Y-124419925D02*
X143853371Y-124372306D01*
X143853371Y-124372306D02*
X144091466Y-124372306D01*
X144091466Y-124372306D02*
X144281942Y-124419925D01*
X144281942Y-124419925D02*
X144377180Y-124467544D01*
X144377180Y-124467544D02*
X144424800Y-124515163D01*
X144424800Y-124515163D02*
X144472419Y-124610401D01*
X144472419Y-124610401D02*
X144472419Y-124705639D01*
X144472419Y-124705639D02*
X144424800Y-124800877D01*
X144424800Y-124800877D02*
X144377180Y-124848496D01*
X144377180Y-124848496D02*
X144281942Y-124896115D01*
X144281942Y-124896115D02*
X144091466Y-124943734D01*
X144091466Y-124943734D02*
X143853371Y-124943734D01*
X143853371Y-124943734D02*
X143662895Y-124896115D01*
X143662895Y-124896115D02*
X143567657Y-124848496D01*
X143567657Y-124848496D02*
X143520038Y-124800877D01*
X143520038Y-124800877D02*
X143472419Y-124705639D01*
X144377180Y-123943734D02*
X144424800Y-123896115D01*
X144424800Y-123896115D02*
X144472419Y-123943734D01*
X144472419Y-123943734D02*
X144424800Y-123991353D01*
X144424800Y-123991353D02*
X144377180Y-123943734D01*
X144377180Y-123943734D02*
X144472419Y-123943734D01*
X143472419Y-123277068D02*
X143472419Y-123181830D01*
X143472419Y-123181830D02*
X143520038Y-123086592D01*
X143520038Y-123086592D02*
X143567657Y-123038973D01*
X143567657Y-123038973D02*
X143662895Y-122991354D01*
X143662895Y-122991354D02*
X143853371Y-122943735D01*
X143853371Y-122943735D02*
X144091466Y-122943735D01*
X144091466Y-122943735D02*
X144281942Y-122991354D01*
X144281942Y-122991354D02*
X144377180Y-123038973D01*
X144377180Y-123038973D02*
X144424800Y-123086592D01*
X144424800Y-123086592D02*
X144472419Y-123181830D01*
X144472419Y-123181830D02*
X144472419Y-123277068D01*
X144472419Y-123277068D02*
X144424800Y-123372306D01*
X144424800Y-123372306D02*
X144377180Y-123419925D01*
X144377180Y-123419925D02*
X144281942Y-123467544D01*
X144281942Y-123467544D02*
X144091466Y-123515163D01*
X144091466Y-123515163D02*
X143853371Y-123515163D01*
X143853371Y-123515163D02*
X143662895Y-123467544D01*
X143662895Y-123467544D02*
X143567657Y-123419925D01*
X143567657Y-123419925D02*
X143520038Y-123372306D01*
X143520038Y-123372306D02*
X143472419Y-123277068D01*
X144472419Y-122467544D02*
X144472419Y-122277068D01*
X144472419Y-122277068D02*
X144424800Y-122181830D01*
X144424800Y-122181830D02*
X144377180Y-122134211D01*
X144377180Y-122134211D02*
X144234323Y-122038973D01*
X144234323Y-122038973D02*
X144043847Y-121991354D01*
X144043847Y-121991354D02*
X143662895Y-121991354D01*
X143662895Y-121991354D02*
X143567657Y-122038973D01*
X143567657Y-122038973D02*
X143520038Y-122086592D01*
X143520038Y-122086592D02*
X143472419Y-122181830D01*
X143472419Y-122181830D02*
X143472419Y-122372306D01*
X143472419Y-122372306D02*
X143520038Y-122467544D01*
X143520038Y-122467544D02*
X143567657Y-122515163D01*
X143567657Y-122515163D02*
X143662895Y-122562782D01*
X143662895Y-122562782D02*
X143900990Y-122562782D01*
X143900990Y-122562782D02*
X143996228Y-122515163D01*
X143996228Y-122515163D02*
X144043847Y-122467544D01*
X144043847Y-122467544D02*
X144091466Y-122372306D01*
X144091466Y-122372306D02*
X144091466Y-122181830D01*
X144091466Y-122181830D02*
X144043847Y-122086592D01*
X144043847Y-122086592D02*
X143996228Y-122038973D01*
X143996228Y-122038973D02*
X143900990Y-121991354D01*
X126103884Y-124472419D02*
X126103884Y-123472419D01*
X126103884Y-123472419D02*
X126484836Y-123472419D01*
X126484836Y-123472419D02*
X126580074Y-123520038D01*
X126580074Y-123520038D02*
X126627693Y-123567657D01*
X126627693Y-123567657D02*
X126675312Y-123662895D01*
X126675312Y-123662895D02*
X126675312Y-123805752D01*
X126675312Y-123805752D02*
X126627693Y-123900990D01*
X126627693Y-123900990D02*
X126580074Y-123948609D01*
X126580074Y-123948609D02*
X126484836Y-123996228D01*
X126484836Y-123996228D02*
X126103884Y-123996228D01*
X127294360Y-123472419D02*
X127389598Y-123472419D01*
X127389598Y-123472419D02*
X127484836Y-123520038D01*
X127484836Y-123520038D02*
X127532455Y-123567657D01*
X127532455Y-123567657D02*
X127580074Y-123662895D01*
X127580074Y-123662895D02*
X127627693Y-123853371D01*
X127627693Y-123853371D02*
X127627693Y-124091466D01*
X127627693Y-124091466D02*
X127580074Y-124281942D01*
X127580074Y-124281942D02*
X127532455Y-124377180D01*
X127532455Y-124377180D02*
X127484836Y-124424800D01*
X127484836Y-124424800D02*
X127389598Y-124472419D01*
X127389598Y-124472419D02*
X127294360Y-124472419D01*
X127294360Y-124472419D02*
X127199122Y-124424800D01*
X127199122Y-124424800D02*
X127151503Y-124377180D01*
X127151503Y-124377180D02*
X127103884Y-124281942D01*
X127103884Y-124281942D02*
X127056265Y-124091466D01*
X127056265Y-124091466D02*
X127056265Y-123853371D01*
X127056265Y-123853371D02*
X127103884Y-123662895D01*
X127103884Y-123662895D02*
X127151503Y-123567657D01*
X127151503Y-123567657D02*
X127199122Y-123520038D01*
X127199122Y-123520038D02*
X127294360Y-123472419D01*
X128056265Y-124377180D02*
X128103884Y-124424800D01*
X128103884Y-124424800D02*
X128056265Y-124472419D01*
X128056265Y-124472419D02*
X128008646Y-124424800D01*
X128008646Y-124424800D02*
X128056265Y-124377180D01*
X128056265Y-124377180D02*
X128056265Y-124472419D01*
X128484836Y-123567657D02*
X128532455Y-123520038D01*
X128532455Y-123520038D02*
X128627693Y-123472419D01*
X128627693Y-123472419D02*
X128865788Y-123472419D01*
X128865788Y-123472419D02*
X128961026Y-123520038D01*
X128961026Y-123520038D02*
X129008645Y-123567657D01*
X129008645Y-123567657D02*
X129056264Y-123662895D01*
X129056264Y-123662895D02*
X129056264Y-123758133D01*
X129056264Y-123758133D02*
X129008645Y-123900990D01*
X129008645Y-123900990D02*
X128437217Y-124472419D01*
X128437217Y-124472419D02*
X129056264Y-124472419D01*
X129675312Y-123472419D02*
X129770550Y-123472419D01*
X129770550Y-123472419D02*
X129865788Y-123520038D01*
X129865788Y-123520038D02*
X129913407Y-123567657D01*
X129913407Y-123567657D02*
X129961026Y-123662895D01*
X129961026Y-123662895D02*
X130008645Y-123853371D01*
X130008645Y-123853371D02*
X130008645Y-124091466D01*
X130008645Y-124091466D02*
X129961026Y-124281942D01*
X129961026Y-124281942D02*
X129913407Y-124377180D01*
X129913407Y-124377180D02*
X129865788Y-124424800D01*
X129865788Y-124424800D02*
X129770550Y-124472419D01*
X129770550Y-124472419D02*
X129675312Y-124472419D01*
X129675312Y-124472419D02*
X129580074Y-124424800D01*
X129580074Y-124424800D02*
X129532455Y-124377180D01*
X129532455Y-124377180D02*
X129484836Y-124281942D01*
X129484836Y-124281942D02*
X129437217Y-124091466D01*
X129437217Y-124091466D02*
X129437217Y-123853371D01*
X129437217Y-123853371D02*
X129484836Y-123662895D01*
X129484836Y-123662895D02*
X129532455Y-123567657D01*
X129532455Y-123567657D02*
X129580074Y-123520038D01*
X129580074Y-123520038D02*
X129675312Y-123472419D01*
X126103884Y-106672419D02*
X126103884Y-105672419D01*
X126103884Y-105672419D02*
X126484836Y-105672419D01*
X126484836Y-105672419D02*
X126580074Y-105720038D01*
X126580074Y-105720038D02*
X126627693Y-105767657D01*
X126627693Y-105767657D02*
X126675312Y-105862895D01*
X126675312Y-105862895D02*
X126675312Y-106005752D01*
X126675312Y-106005752D02*
X126627693Y-106100990D01*
X126627693Y-106100990D02*
X126580074Y-106148609D01*
X126580074Y-106148609D02*
X126484836Y-106196228D01*
X126484836Y-106196228D02*
X126103884Y-106196228D01*
X127294360Y-105672419D02*
X127389598Y-105672419D01*
X127389598Y-105672419D02*
X127484836Y-105720038D01*
X127484836Y-105720038D02*
X127532455Y-105767657D01*
X127532455Y-105767657D02*
X127580074Y-105862895D01*
X127580074Y-105862895D02*
X127627693Y-106053371D01*
X127627693Y-106053371D02*
X127627693Y-106291466D01*
X127627693Y-106291466D02*
X127580074Y-106481942D01*
X127580074Y-106481942D02*
X127532455Y-106577180D01*
X127532455Y-106577180D02*
X127484836Y-106624800D01*
X127484836Y-106624800D02*
X127389598Y-106672419D01*
X127389598Y-106672419D02*
X127294360Y-106672419D01*
X127294360Y-106672419D02*
X127199122Y-106624800D01*
X127199122Y-106624800D02*
X127151503Y-106577180D01*
X127151503Y-106577180D02*
X127103884Y-106481942D01*
X127103884Y-106481942D02*
X127056265Y-106291466D01*
X127056265Y-106291466D02*
X127056265Y-106053371D01*
X127056265Y-106053371D02*
X127103884Y-105862895D01*
X127103884Y-105862895D02*
X127151503Y-105767657D01*
X127151503Y-105767657D02*
X127199122Y-105720038D01*
X127199122Y-105720038D02*
X127294360Y-105672419D01*
X128056265Y-106577180D02*
X128103884Y-106624800D01*
X128103884Y-106624800D02*
X128056265Y-106672419D01*
X128056265Y-106672419D02*
X128008646Y-106624800D01*
X128008646Y-106624800D02*
X128056265Y-106577180D01*
X128056265Y-106577180D02*
X128056265Y-106672419D01*
X128484836Y-105767657D02*
X128532455Y-105720038D01*
X128532455Y-105720038D02*
X128627693Y-105672419D01*
X128627693Y-105672419D02*
X128865788Y-105672419D01*
X128865788Y-105672419D02*
X128961026Y-105720038D01*
X128961026Y-105720038D02*
X129008645Y-105767657D01*
X129008645Y-105767657D02*
X129056264Y-105862895D01*
X129056264Y-105862895D02*
X129056264Y-105958133D01*
X129056264Y-105958133D02*
X129008645Y-106100990D01*
X129008645Y-106100990D02*
X128437217Y-106672419D01*
X128437217Y-106672419D02*
X129056264Y-106672419D01*
X129437217Y-105767657D02*
X129484836Y-105720038D01*
X129484836Y-105720038D02*
X129580074Y-105672419D01*
X129580074Y-105672419D02*
X129818169Y-105672419D01*
X129818169Y-105672419D02*
X129913407Y-105720038D01*
X129913407Y-105720038D02*
X129961026Y-105767657D01*
X129961026Y-105767657D02*
X130008645Y-105862895D01*
X130008645Y-105862895D02*
X130008645Y-105958133D01*
X130008645Y-105958133D02*
X129961026Y-106100990D01*
X129961026Y-106100990D02*
X129389598Y-106672419D01*
X129389598Y-106672419D02*
X130008645Y-106672419D01*
X147072419Y-125896115D02*
X146072419Y-125896115D01*
X146072419Y-125896115D02*
X146072419Y-125515163D01*
X146072419Y-125515163D02*
X146120038Y-125419925D01*
X146120038Y-125419925D02*
X146167657Y-125372306D01*
X146167657Y-125372306D02*
X146262895Y-125324687D01*
X146262895Y-125324687D02*
X146405752Y-125324687D01*
X146405752Y-125324687D02*
X146500990Y-125372306D01*
X146500990Y-125372306D02*
X146548609Y-125419925D01*
X146548609Y-125419925D02*
X146596228Y-125515163D01*
X146596228Y-125515163D02*
X146596228Y-125896115D01*
X146072419Y-124705639D02*
X146072419Y-124610401D01*
X146072419Y-124610401D02*
X146120038Y-124515163D01*
X146120038Y-124515163D02*
X146167657Y-124467544D01*
X146167657Y-124467544D02*
X146262895Y-124419925D01*
X146262895Y-124419925D02*
X146453371Y-124372306D01*
X146453371Y-124372306D02*
X146691466Y-124372306D01*
X146691466Y-124372306D02*
X146881942Y-124419925D01*
X146881942Y-124419925D02*
X146977180Y-124467544D01*
X146977180Y-124467544D02*
X147024800Y-124515163D01*
X147024800Y-124515163D02*
X147072419Y-124610401D01*
X147072419Y-124610401D02*
X147072419Y-124705639D01*
X147072419Y-124705639D02*
X147024800Y-124800877D01*
X147024800Y-124800877D02*
X146977180Y-124848496D01*
X146977180Y-124848496D02*
X146881942Y-124896115D01*
X146881942Y-124896115D02*
X146691466Y-124943734D01*
X146691466Y-124943734D02*
X146453371Y-124943734D01*
X146453371Y-124943734D02*
X146262895Y-124896115D01*
X146262895Y-124896115D02*
X146167657Y-124848496D01*
X146167657Y-124848496D02*
X146120038Y-124800877D01*
X146120038Y-124800877D02*
X146072419Y-124705639D01*
X146977180Y-123943734D02*
X147024800Y-123896115D01*
X147024800Y-123896115D02*
X147072419Y-123943734D01*
X147072419Y-123943734D02*
X147024800Y-123991353D01*
X147024800Y-123991353D02*
X146977180Y-123943734D01*
X146977180Y-123943734D02*
X147072419Y-123943734D01*
X146072419Y-123277068D02*
X146072419Y-123181830D01*
X146072419Y-123181830D02*
X146120038Y-123086592D01*
X146120038Y-123086592D02*
X146167657Y-123038973D01*
X146167657Y-123038973D02*
X146262895Y-122991354D01*
X146262895Y-122991354D02*
X146453371Y-122943735D01*
X146453371Y-122943735D02*
X146691466Y-122943735D01*
X146691466Y-122943735D02*
X146881942Y-122991354D01*
X146881942Y-122991354D02*
X146977180Y-123038973D01*
X146977180Y-123038973D02*
X147024800Y-123086592D01*
X147024800Y-123086592D02*
X147072419Y-123181830D01*
X147072419Y-123181830D02*
X147072419Y-123277068D01*
X147072419Y-123277068D02*
X147024800Y-123372306D01*
X147024800Y-123372306D02*
X146977180Y-123419925D01*
X146977180Y-123419925D02*
X146881942Y-123467544D01*
X146881942Y-123467544D02*
X146691466Y-123515163D01*
X146691466Y-123515163D02*
X146453371Y-123515163D01*
X146453371Y-123515163D02*
X146262895Y-123467544D01*
X146262895Y-123467544D02*
X146167657Y-123419925D01*
X146167657Y-123419925D02*
X146120038Y-123372306D01*
X146120038Y-123372306D02*
X146072419Y-123277068D01*
X146500990Y-122372306D02*
X146453371Y-122467544D01*
X146453371Y-122467544D02*
X146405752Y-122515163D01*
X146405752Y-122515163D02*
X146310514Y-122562782D01*
X146310514Y-122562782D02*
X146262895Y-122562782D01*
X146262895Y-122562782D02*
X146167657Y-122515163D01*
X146167657Y-122515163D02*
X146120038Y-122467544D01*
X146120038Y-122467544D02*
X146072419Y-122372306D01*
X146072419Y-122372306D02*
X146072419Y-122181830D01*
X146072419Y-122181830D02*
X146120038Y-122086592D01*
X146120038Y-122086592D02*
X146167657Y-122038973D01*
X146167657Y-122038973D02*
X146262895Y-121991354D01*
X146262895Y-121991354D02*
X146310514Y-121991354D01*
X146310514Y-121991354D02*
X146405752Y-122038973D01*
X146405752Y-122038973D02*
X146453371Y-122086592D01*
X146453371Y-122086592D02*
X146500990Y-122181830D01*
X146500990Y-122181830D02*
X146500990Y-122372306D01*
X146500990Y-122372306D02*
X146548609Y-122467544D01*
X146548609Y-122467544D02*
X146596228Y-122515163D01*
X146596228Y-122515163D02*
X146691466Y-122562782D01*
X146691466Y-122562782D02*
X146881942Y-122562782D01*
X146881942Y-122562782D02*
X146977180Y-122515163D01*
X146977180Y-122515163D02*
X147024800Y-122467544D01*
X147024800Y-122467544D02*
X147072419Y-122372306D01*
X147072419Y-122372306D02*
X147072419Y-122181830D01*
X147072419Y-122181830D02*
X147024800Y-122086592D01*
X147024800Y-122086592D02*
X146977180Y-122038973D01*
X146977180Y-122038973D02*
X146881942Y-121991354D01*
X146881942Y-121991354D02*
X146691466Y-121991354D01*
X146691466Y-121991354D02*
X146596228Y-122038973D01*
X146596228Y-122038973D02*
X146548609Y-122086592D01*
X146548609Y-122086592D02*
X146500990Y-122181830D01*
X156303884Y-119672419D02*
X156303884Y-118672419D01*
X156303884Y-118672419D02*
X156684836Y-118672419D01*
X156684836Y-118672419D02*
X156780074Y-118720038D01*
X156780074Y-118720038D02*
X156827693Y-118767657D01*
X156827693Y-118767657D02*
X156875312Y-118862895D01*
X156875312Y-118862895D02*
X156875312Y-119005752D01*
X156875312Y-119005752D02*
X156827693Y-119100990D01*
X156827693Y-119100990D02*
X156780074Y-119148609D01*
X156780074Y-119148609D02*
X156684836Y-119196228D01*
X156684836Y-119196228D02*
X156303884Y-119196228D01*
X157494360Y-118672419D02*
X157589598Y-118672419D01*
X157589598Y-118672419D02*
X157684836Y-118720038D01*
X157684836Y-118720038D02*
X157732455Y-118767657D01*
X157732455Y-118767657D02*
X157780074Y-118862895D01*
X157780074Y-118862895D02*
X157827693Y-119053371D01*
X157827693Y-119053371D02*
X157827693Y-119291466D01*
X157827693Y-119291466D02*
X157780074Y-119481942D01*
X157780074Y-119481942D02*
X157732455Y-119577180D01*
X157732455Y-119577180D02*
X157684836Y-119624800D01*
X157684836Y-119624800D02*
X157589598Y-119672419D01*
X157589598Y-119672419D02*
X157494360Y-119672419D01*
X157494360Y-119672419D02*
X157399122Y-119624800D01*
X157399122Y-119624800D02*
X157351503Y-119577180D01*
X157351503Y-119577180D02*
X157303884Y-119481942D01*
X157303884Y-119481942D02*
X157256265Y-119291466D01*
X157256265Y-119291466D02*
X157256265Y-119053371D01*
X157256265Y-119053371D02*
X157303884Y-118862895D01*
X157303884Y-118862895D02*
X157351503Y-118767657D01*
X157351503Y-118767657D02*
X157399122Y-118720038D01*
X157399122Y-118720038D02*
X157494360Y-118672419D01*
X158256265Y-119577180D02*
X158303884Y-119624800D01*
X158303884Y-119624800D02*
X158256265Y-119672419D01*
X158256265Y-119672419D02*
X158208646Y-119624800D01*
X158208646Y-119624800D02*
X158256265Y-119577180D01*
X158256265Y-119577180D02*
X158256265Y-119672419D01*
X158922931Y-118672419D02*
X159018169Y-118672419D01*
X159018169Y-118672419D02*
X159113407Y-118720038D01*
X159113407Y-118720038D02*
X159161026Y-118767657D01*
X159161026Y-118767657D02*
X159208645Y-118862895D01*
X159208645Y-118862895D02*
X159256264Y-119053371D01*
X159256264Y-119053371D02*
X159256264Y-119291466D01*
X159256264Y-119291466D02*
X159208645Y-119481942D01*
X159208645Y-119481942D02*
X159161026Y-119577180D01*
X159161026Y-119577180D02*
X159113407Y-119624800D01*
X159113407Y-119624800D02*
X159018169Y-119672419D01*
X159018169Y-119672419D02*
X158922931Y-119672419D01*
X158922931Y-119672419D02*
X158827693Y-119624800D01*
X158827693Y-119624800D02*
X158780074Y-119577180D01*
X158780074Y-119577180D02*
X158732455Y-119481942D01*
X158732455Y-119481942D02*
X158684836Y-119291466D01*
X158684836Y-119291466D02*
X158684836Y-119053371D01*
X158684836Y-119053371D02*
X158732455Y-118862895D01*
X158732455Y-118862895D02*
X158780074Y-118767657D01*
X158780074Y-118767657D02*
X158827693Y-118720038D01*
X158827693Y-118720038D02*
X158922931Y-118672419D01*
X159637217Y-118767657D02*
X159684836Y-118720038D01*
X159684836Y-118720038D02*
X159780074Y-118672419D01*
X159780074Y-118672419D02*
X160018169Y-118672419D01*
X160018169Y-118672419D02*
X160113407Y-118720038D01*
X160113407Y-118720038D02*
X160161026Y-118767657D01*
X160161026Y-118767657D02*
X160208645Y-118862895D01*
X160208645Y-118862895D02*
X160208645Y-118958133D01*
X160208645Y-118958133D02*
X160161026Y-119100990D01*
X160161026Y-119100990D02*
X159589598Y-119672419D01*
X159589598Y-119672419D02*
X160208645Y-119672419D01*
X156303884Y-107072419D02*
X156303884Y-106072419D01*
X156303884Y-106072419D02*
X156684836Y-106072419D01*
X156684836Y-106072419D02*
X156780074Y-106120038D01*
X156780074Y-106120038D02*
X156827693Y-106167657D01*
X156827693Y-106167657D02*
X156875312Y-106262895D01*
X156875312Y-106262895D02*
X156875312Y-106405752D01*
X156875312Y-106405752D02*
X156827693Y-106500990D01*
X156827693Y-106500990D02*
X156780074Y-106548609D01*
X156780074Y-106548609D02*
X156684836Y-106596228D01*
X156684836Y-106596228D02*
X156303884Y-106596228D01*
X157494360Y-106072419D02*
X157589598Y-106072419D01*
X157589598Y-106072419D02*
X157684836Y-106120038D01*
X157684836Y-106120038D02*
X157732455Y-106167657D01*
X157732455Y-106167657D02*
X157780074Y-106262895D01*
X157780074Y-106262895D02*
X157827693Y-106453371D01*
X157827693Y-106453371D02*
X157827693Y-106691466D01*
X157827693Y-106691466D02*
X157780074Y-106881942D01*
X157780074Y-106881942D02*
X157732455Y-106977180D01*
X157732455Y-106977180D02*
X157684836Y-107024800D01*
X157684836Y-107024800D02*
X157589598Y-107072419D01*
X157589598Y-107072419D02*
X157494360Y-107072419D01*
X157494360Y-107072419D02*
X157399122Y-107024800D01*
X157399122Y-107024800D02*
X157351503Y-106977180D01*
X157351503Y-106977180D02*
X157303884Y-106881942D01*
X157303884Y-106881942D02*
X157256265Y-106691466D01*
X157256265Y-106691466D02*
X157256265Y-106453371D01*
X157256265Y-106453371D02*
X157303884Y-106262895D01*
X157303884Y-106262895D02*
X157351503Y-106167657D01*
X157351503Y-106167657D02*
X157399122Y-106120038D01*
X157399122Y-106120038D02*
X157494360Y-106072419D01*
X158256265Y-106977180D02*
X158303884Y-107024800D01*
X158303884Y-107024800D02*
X158256265Y-107072419D01*
X158256265Y-107072419D02*
X158208646Y-107024800D01*
X158208646Y-107024800D02*
X158256265Y-106977180D01*
X158256265Y-106977180D02*
X158256265Y-107072419D01*
X158684836Y-106167657D02*
X158732455Y-106120038D01*
X158732455Y-106120038D02*
X158827693Y-106072419D01*
X158827693Y-106072419D02*
X159065788Y-106072419D01*
X159065788Y-106072419D02*
X159161026Y-106120038D01*
X159161026Y-106120038D02*
X159208645Y-106167657D01*
X159208645Y-106167657D02*
X159256264Y-106262895D01*
X159256264Y-106262895D02*
X159256264Y-106358133D01*
X159256264Y-106358133D02*
X159208645Y-106500990D01*
X159208645Y-106500990D02*
X158637217Y-107072419D01*
X158637217Y-107072419D02*
X159256264Y-107072419D01*
X159589598Y-106072419D02*
X160256264Y-106072419D01*
X160256264Y-106072419D02*
X159827693Y-107072419D01*
X154472419Y-125896115D02*
X153472419Y-125896115D01*
X153472419Y-125896115D02*
X153472419Y-125515163D01*
X153472419Y-125515163D02*
X153520038Y-125419925D01*
X153520038Y-125419925D02*
X153567657Y-125372306D01*
X153567657Y-125372306D02*
X153662895Y-125324687D01*
X153662895Y-125324687D02*
X153805752Y-125324687D01*
X153805752Y-125324687D02*
X153900990Y-125372306D01*
X153900990Y-125372306D02*
X153948609Y-125419925D01*
X153948609Y-125419925D02*
X153996228Y-125515163D01*
X153996228Y-125515163D02*
X153996228Y-125896115D01*
X153472419Y-124705639D02*
X153472419Y-124610401D01*
X153472419Y-124610401D02*
X153520038Y-124515163D01*
X153520038Y-124515163D02*
X153567657Y-124467544D01*
X153567657Y-124467544D02*
X153662895Y-124419925D01*
X153662895Y-124419925D02*
X153853371Y-124372306D01*
X153853371Y-124372306D02*
X154091466Y-124372306D01*
X154091466Y-124372306D02*
X154281942Y-124419925D01*
X154281942Y-124419925D02*
X154377180Y-124467544D01*
X154377180Y-124467544D02*
X154424800Y-124515163D01*
X154424800Y-124515163D02*
X154472419Y-124610401D01*
X154472419Y-124610401D02*
X154472419Y-124705639D01*
X154472419Y-124705639D02*
X154424800Y-124800877D01*
X154424800Y-124800877D02*
X154377180Y-124848496D01*
X154377180Y-124848496D02*
X154281942Y-124896115D01*
X154281942Y-124896115D02*
X154091466Y-124943734D01*
X154091466Y-124943734D02*
X153853371Y-124943734D01*
X153853371Y-124943734D02*
X153662895Y-124896115D01*
X153662895Y-124896115D02*
X153567657Y-124848496D01*
X153567657Y-124848496D02*
X153520038Y-124800877D01*
X153520038Y-124800877D02*
X153472419Y-124705639D01*
X154377180Y-123943734D02*
X154424800Y-123896115D01*
X154424800Y-123896115D02*
X154472419Y-123943734D01*
X154472419Y-123943734D02*
X154424800Y-123991353D01*
X154424800Y-123991353D02*
X154377180Y-123943734D01*
X154377180Y-123943734D02*
X154472419Y-123943734D01*
X153472419Y-123277068D02*
X153472419Y-123181830D01*
X153472419Y-123181830D02*
X153520038Y-123086592D01*
X153520038Y-123086592D02*
X153567657Y-123038973D01*
X153567657Y-123038973D02*
X153662895Y-122991354D01*
X153662895Y-122991354D02*
X153853371Y-122943735D01*
X153853371Y-122943735D02*
X154091466Y-122943735D01*
X154091466Y-122943735D02*
X154281942Y-122991354D01*
X154281942Y-122991354D02*
X154377180Y-123038973D01*
X154377180Y-123038973D02*
X154424800Y-123086592D01*
X154424800Y-123086592D02*
X154472419Y-123181830D01*
X154472419Y-123181830D02*
X154472419Y-123277068D01*
X154472419Y-123277068D02*
X154424800Y-123372306D01*
X154424800Y-123372306D02*
X154377180Y-123419925D01*
X154377180Y-123419925D02*
X154281942Y-123467544D01*
X154281942Y-123467544D02*
X154091466Y-123515163D01*
X154091466Y-123515163D02*
X153853371Y-123515163D01*
X153853371Y-123515163D02*
X153662895Y-123467544D01*
X153662895Y-123467544D02*
X153567657Y-123419925D01*
X153567657Y-123419925D02*
X153520038Y-123372306D01*
X153520038Y-123372306D02*
X153472419Y-123277068D01*
X153472419Y-122038973D02*
X153472419Y-122515163D01*
X153472419Y-122515163D02*
X153948609Y-122562782D01*
X153948609Y-122562782D02*
X153900990Y-122515163D01*
X153900990Y-122515163D02*
X153853371Y-122419925D01*
X153853371Y-122419925D02*
X153853371Y-122181830D01*
X153853371Y-122181830D02*
X153900990Y-122086592D01*
X153900990Y-122086592D02*
X153948609Y-122038973D01*
X153948609Y-122038973D02*
X154043847Y-121991354D01*
X154043847Y-121991354D02*
X154281942Y-121991354D01*
X154281942Y-121991354D02*
X154377180Y-122038973D01*
X154377180Y-122038973D02*
X154424800Y-122086592D01*
X154424800Y-122086592D02*
X154472419Y-122181830D01*
X154472419Y-122181830D02*
X154472419Y-122419925D01*
X154472419Y-122419925D02*
X154424800Y-122515163D01*
X154424800Y-122515163D02*
X154377180Y-122562782D01*
X156303884Y-101872419D02*
X156303884Y-100872419D01*
X156303884Y-100872419D02*
X156684836Y-100872419D01*
X156684836Y-100872419D02*
X156780074Y-100920038D01*
X156780074Y-100920038D02*
X156827693Y-100967657D01*
X156827693Y-100967657D02*
X156875312Y-101062895D01*
X156875312Y-101062895D02*
X156875312Y-101205752D01*
X156875312Y-101205752D02*
X156827693Y-101300990D01*
X156827693Y-101300990D02*
X156780074Y-101348609D01*
X156780074Y-101348609D02*
X156684836Y-101396228D01*
X156684836Y-101396228D02*
X156303884Y-101396228D01*
X157494360Y-100872419D02*
X157589598Y-100872419D01*
X157589598Y-100872419D02*
X157684836Y-100920038D01*
X157684836Y-100920038D02*
X157732455Y-100967657D01*
X157732455Y-100967657D02*
X157780074Y-101062895D01*
X157780074Y-101062895D02*
X157827693Y-101253371D01*
X157827693Y-101253371D02*
X157827693Y-101491466D01*
X157827693Y-101491466D02*
X157780074Y-101681942D01*
X157780074Y-101681942D02*
X157732455Y-101777180D01*
X157732455Y-101777180D02*
X157684836Y-101824800D01*
X157684836Y-101824800D02*
X157589598Y-101872419D01*
X157589598Y-101872419D02*
X157494360Y-101872419D01*
X157494360Y-101872419D02*
X157399122Y-101824800D01*
X157399122Y-101824800D02*
X157351503Y-101777180D01*
X157351503Y-101777180D02*
X157303884Y-101681942D01*
X157303884Y-101681942D02*
X157256265Y-101491466D01*
X157256265Y-101491466D02*
X157256265Y-101253371D01*
X157256265Y-101253371D02*
X157303884Y-101062895D01*
X157303884Y-101062895D02*
X157351503Y-100967657D01*
X157351503Y-100967657D02*
X157399122Y-100920038D01*
X157399122Y-100920038D02*
X157494360Y-100872419D01*
X158256265Y-101777180D02*
X158303884Y-101824800D01*
X158303884Y-101824800D02*
X158256265Y-101872419D01*
X158256265Y-101872419D02*
X158208646Y-101824800D01*
X158208646Y-101824800D02*
X158256265Y-101777180D01*
X158256265Y-101777180D02*
X158256265Y-101872419D01*
X158684836Y-100967657D02*
X158732455Y-100920038D01*
X158732455Y-100920038D02*
X158827693Y-100872419D01*
X158827693Y-100872419D02*
X159065788Y-100872419D01*
X159065788Y-100872419D02*
X159161026Y-100920038D01*
X159161026Y-100920038D02*
X159208645Y-100967657D01*
X159208645Y-100967657D02*
X159256264Y-101062895D01*
X159256264Y-101062895D02*
X159256264Y-101158133D01*
X159256264Y-101158133D02*
X159208645Y-101300990D01*
X159208645Y-101300990D02*
X158637217Y-101872419D01*
X158637217Y-101872419D02*
X159256264Y-101872419D01*
X160161026Y-100872419D02*
X159684836Y-100872419D01*
X159684836Y-100872419D02*
X159637217Y-101348609D01*
X159637217Y-101348609D02*
X159684836Y-101300990D01*
X159684836Y-101300990D02*
X159780074Y-101253371D01*
X159780074Y-101253371D02*
X160018169Y-101253371D01*
X160018169Y-101253371D02*
X160113407Y-101300990D01*
X160113407Y-101300990D02*
X160161026Y-101348609D01*
X160161026Y-101348609D02*
X160208645Y-101443847D01*
X160208645Y-101443847D02*
X160208645Y-101681942D01*
X160208645Y-101681942D02*
X160161026Y-101777180D01*
X160161026Y-101777180D02*
X160113407Y-101824800D01*
X160113407Y-101824800D02*
X160018169Y-101872419D01*
X160018169Y-101872419D02*
X159780074Y-101872419D01*
X159780074Y-101872419D02*
X159684836Y-101824800D01*
X159684836Y-101824800D02*
X159637217Y-101777180D01*
X139272419Y-125896115D02*
X138272419Y-125896115D01*
X138272419Y-125896115D02*
X138272419Y-125515163D01*
X138272419Y-125515163D02*
X138320038Y-125419925D01*
X138320038Y-125419925D02*
X138367657Y-125372306D01*
X138367657Y-125372306D02*
X138462895Y-125324687D01*
X138462895Y-125324687D02*
X138605752Y-125324687D01*
X138605752Y-125324687D02*
X138700990Y-125372306D01*
X138700990Y-125372306D02*
X138748609Y-125419925D01*
X138748609Y-125419925D02*
X138796228Y-125515163D01*
X138796228Y-125515163D02*
X138796228Y-125896115D01*
X138272419Y-124705639D02*
X138272419Y-124610401D01*
X138272419Y-124610401D02*
X138320038Y-124515163D01*
X138320038Y-124515163D02*
X138367657Y-124467544D01*
X138367657Y-124467544D02*
X138462895Y-124419925D01*
X138462895Y-124419925D02*
X138653371Y-124372306D01*
X138653371Y-124372306D02*
X138891466Y-124372306D01*
X138891466Y-124372306D02*
X139081942Y-124419925D01*
X139081942Y-124419925D02*
X139177180Y-124467544D01*
X139177180Y-124467544D02*
X139224800Y-124515163D01*
X139224800Y-124515163D02*
X139272419Y-124610401D01*
X139272419Y-124610401D02*
X139272419Y-124705639D01*
X139272419Y-124705639D02*
X139224800Y-124800877D01*
X139224800Y-124800877D02*
X139177180Y-124848496D01*
X139177180Y-124848496D02*
X139081942Y-124896115D01*
X139081942Y-124896115D02*
X138891466Y-124943734D01*
X138891466Y-124943734D02*
X138653371Y-124943734D01*
X138653371Y-124943734D02*
X138462895Y-124896115D01*
X138462895Y-124896115D02*
X138367657Y-124848496D01*
X138367657Y-124848496D02*
X138320038Y-124800877D01*
X138320038Y-124800877D02*
X138272419Y-124705639D01*
X139177180Y-123943734D02*
X139224800Y-123896115D01*
X139224800Y-123896115D02*
X139272419Y-123943734D01*
X139272419Y-123943734D02*
X139224800Y-123991353D01*
X139224800Y-123991353D02*
X139177180Y-123943734D01*
X139177180Y-123943734D02*
X139272419Y-123943734D01*
X139272419Y-122943735D02*
X139272419Y-123515163D01*
X139272419Y-123229449D02*
X138272419Y-123229449D01*
X138272419Y-123229449D02*
X138415276Y-123324687D01*
X138415276Y-123324687D02*
X138510514Y-123419925D01*
X138510514Y-123419925D02*
X138558133Y-123515163D01*
X139272419Y-121991354D02*
X139272419Y-122562782D01*
X139272419Y-122277068D02*
X138272419Y-122277068D01*
X138272419Y-122277068D02*
X138415276Y-122372306D01*
X138415276Y-122372306D02*
X138510514Y-122467544D01*
X138510514Y-122467544D02*
X138558133Y-122562782D01*
X131503884Y-116872419D02*
X131503884Y-115872419D01*
X131503884Y-116348609D02*
X132075312Y-116348609D01*
X132075312Y-116872419D02*
X132075312Y-115872419D01*
X132741979Y-115872419D02*
X132932455Y-115872419D01*
X132932455Y-115872419D02*
X133027693Y-115920038D01*
X133027693Y-115920038D02*
X133122931Y-116015276D01*
X133122931Y-116015276D02*
X133170550Y-116205752D01*
X133170550Y-116205752D02*
X133170550Y-116539085D01*
X133170550Y-116539085D02*
X133122931Y-116729561D01*
X133122931Y-116729561D02*
X133027693Y-116824800D01*
X133027693Y-116824800D02*
X132932455Y-116872419D01*
X132932455Y-116872419D02*
X132741979Y-116872419D01*
X132741979Y-116872419D02*
X132646741Y-116824800D01*
X132646741Y-116824800D02*
X132551503Y-116729561D01*
X132551503Y-116729561D02*
X132503884Y-116539085D01*
X132503884Y-116539085D02*
X132503884Y-116205752D01*
X132503884Y-116205752D02*
X132551503Y-116015276D01*
X132551503Y-116015276D02*
X132646741Y-115920038D01*
X132646741Y-115920038D02*
X132741979Y-115872419D01*
X134075312Y-116872419D02*
X133599122Y-116872419D01*
X133599122Y-116872419D02*
X133599122Y-115872419D01*
X134599122Y-116396228D02*
X134599122Y-116872419D01*
X134265789Y-115872419D02*
X134599122Y-116396228D01*
X134599122Y-116396228D02*
X134932455Y-115872419D01*
X135265789Y-116872419D02*
X135265789Y-115872419D01*
X135932455Y-115872419D02*
X136122931Y-115872419D01*
X136122931Y-115872419D02*
X136218169Y-115920038D01*
X136218169Y-115920038D02*
X136313407Y-116015276D01*
X136313407Y-116015276D02*
X136361026Y-116205752D01*
X136361026Y-116205752D02*
X136361026Y-116539085D01*
X136361026Y-116539085D02*
X136313407Y-116729561D01*
X136313407Y-116729561D02*
X136218169Y-116824800D01*
X136218169Y-116824800D02*
X136122931Y-116872419D01*
X136122931Y-116872419D02*
X135932455Y-116872419D01*
X135932455Y-116872419D02*
X135837217Y-116824800D01*
X135837217Y-116824800D02*
X135741979Y-116729561D01*
X135741979Y-116729561D02*
X135694360Y-116539085D01*
X135694360Y-116539085D02*
X135694360Y-116205752D01*
X135694360Y-116205752D02*
X135741979Y-116015276D01*
X135741979Y-116015276D02*
X135837217Y-115920038D01*
X135837217Y-115920038D02*
X135932455Y-115872419D01*
X136646741Y-115872419D02*
X137218169Y-115872419D01*
X136932455Y-116872419D02*
X136932455Y-115872419D01*
X138646741Y-116348609D02*
X138789598Y-116396228D01*
X138789598Y-116396228D02*
X138837217Y-116443847D01*
X138837217Y-116443847D02*
X138884836Y-116539085D01*
X138884836Y-116539085D02*
X138884836Y-116681942D01*
X138884836Y-116681942D02*
X138837217Y-116777180D01*
X138837217Y-116777180D02*
X138789598Y-116824800D01*
X138789598Y-116824800D02*
X138694360Y-116872419D01*
X138694360Y-116872419D02*
X138313408Y-116872419D01*
X138313408Y-116872419D02*
X138313408Y-115872419D01*
X138313408Y-115872419D02*
X138646741Y-115872419D01*
X138646741Y-115872419D02*
X138741979Y-115920038D01*
X138741979Y-115920038D02*
X138789598Y-115967657D01*
X138789598Y-115967657D02*
X138837217Y-116062895D01*
X138837217Y-116062895D02*
X138837217Y-116158133D01*
X138837217Y-116158133D02*
X138789598Y-116253371D01*
X138789598Y-116253371D02*
X138741979Y-116300990D01*
X138741979Y-116300990D02*
X138646741Y-116348609D01*
X138646741Y-116348609D02*
X138313408Y-116348609D01*
X139884836Y-116872419D02*
X139551503Y-116396228D01*
X139313408Y-116872419D02*
X139313408Y-115872419D01*
X139313408Y-115872419D02*
X139694360Y-115872419D01*
X139694360Y-115872419D02*
X139789598Y-115920038D01*
X139789598Y-115920038D02*
X139837217Y-115967657D01*
X139837217Y-115967657D02*
X139884836Y-116062895D01*
X139884836Y-116062895D02*
X139884836Y-116205752D01*
X139884836Y-116205752D02*
X139837217Y-116300990D01*
X139837217Y-116300990D02*
X139789598Y-116348609D01*
X139789598Y-116348609D02*
X139694360Y-116396228D01*
X139694360Y-116396228D02*
X139313408Y-116396228D01*
X140313408Y-116348609D02*
X140646741Y-116348609D01*
X140789598Y-116872419D02*
X140313408Y-116872419D01*
X140313408Y-116872419D02*
X140313408Y-115872419D01*
X140313408Y-115872419D02*
X140789598Y-115872419D01*
X141170551Y-116586704D02*
X141646741Y-116586704D01*
X141075313Y-116872419D02*
X141408646Y-115872419D01*
X141408646Y-115872419D02*
X141741979Y-116872419D01*
X142075313Y-116872419D02*
X142075313Y-115872419D01*
X142646741Y-116872419D02*
X142218170Y-116300990D01*
X142646741Y-115872419D02*
X142075313Y-116443847D01*
X143265789Y-115872419D02*
X143456265Y-115872419D01*
X143456265Y-115872419D02*
X143551503Y-115920038D01*
X143551503Y-115920038D02*
X143646741Y-116015276D01*
X143646741Y-116015276D02*
X143694360Y-116205752D01*
X143694360Y-116205752D02*
X143694360Y-116539085D01*
X143694360Y-116539085D02*
X143646741Y-116729561D01*
X143646741Y-116729561D02*
X143551503Y-116824800D01*
X143551503Y-116824800D02*
X143456265Y-116872419D01*
X143456265Y-116872419D02*
X143265789Y-116872419D01*
X143265789Y-116872419D02*
X143170551Y-116824800D01*
X143170551Y-116824800D02*
X143075313Y-116729561D01*
X143075313Y-116729561D02*
X143027694Y-116539085D01*
X143027694Y-116539085D02*
X143027694Y-116205752D01*
X143027694Y-116205752D02*
X143075313Y-116015276D01*
X143075313Y-116015276D02*
X143170551Y-115920038D01*
X143170551Y-115920038D02*
X143265789Y-115872419D01*
X144122932Y-115872419D02*
X144122932Y-116681942D01*
X144122932Y-116681942D02*
X144170551Y-116777180D01*
X144170551Y-116777180D02*
X144218170Y-116824800D01*
X144218170Y-116824800D02*
X144313408Y-116872419D01*
X144313408Y-116872419D02*
X144503884Y-116872419D01*
X144503884Y-116872419D02*
X144599122Y-116824800D01*
X144599122Y-116824800D02*
X144646741Y-116777180D01*
X144646741Y-116777180D02*
X144694360Y-116681942D01*
X144694360Y-116681942D02*
X144694360Y-115872419D01*
X145027694Y-115872419D02*
X145599122Y-115872419D01*
X145313408Y-116872419D02*
X145313408Y-115872419D01*
X147027694Y-116348609D02*
X147170551Y-116396228D01*
X147170551Y-116396228D02*
X147218170Y-116443847D01*
X147218170Y-116443847D02*
X147265789Y-116539085D01*
X147265789Y-116539085D02*
X147265789Y-116681942D01*
X147265789Y-116681942D02*
X147218170Y-116777180D01*
X147218170Y-116777180D02*
X147170551Y-116824800D01*
X147170551Y-116824800D02*
X147075313Y-116872419D01*
X147075313Y-116872419D02*
X146694361Y-116872419D01*
X146694361Y-116872419D02*
X146694361Y-115872419D01*
X146694361Y-115872419D02*
X147027694Y-115872419D01*
X147027694Y-115872419D02*
X147122932Y-115920038D01*
X147122932Y-115920038D02*
X147170551Y-115967657D01*
X147170551Y-115967657D02*
X147218170Y-116062895D01*
X147218170Y-116062895D02*
X147218170Y-116158133D01*
X147218170Y-116158133D02*
X147170551Y-116253371D01*
X147170551Y-116253371D02*
X147122932Y-116300990D01*
X147122932Y-116300990D02*
X147027694Y-116348609D01*
X147027694Y-116348609D02*
X146694361Y-116348609D01*
X147884837Y-115872419D02*
X148075313Y-115872419D01*
X148075313Y-115872419D02*
X148170551Y-115920038D01*
X148170551Y-115920038D02*
X148265789Y-116015276D01*
X148265789Y-116015276D02*
X148313408Y-116205752D01*
X148313408Y-116205752D02*
X148313408Y-116539085D01*
X148313408Y-116539085D02*
X148265789Y-116729561D01*
X148265789Y-116729561D02*
X148170551Y-116824800D01*
X148170551Y-116824800D02*
X148075313Y-116872419D01*
X148075313Y-116872419D02*
X147884837Y-116872419D01*
X147884837Y-116872419D02*
X147789599Y-116824800D01*
X147789599Y-116824800D02*
X147694361Y-116729561D01*
X147694361Y-116729561D02*
X147646742Y-116539085D01*
X147646742Y-116539085D02*
X147646742Y-116205752D01*
X147646742Y-116205752D02*
X147694361Y-116015276D01*
X147694361Y-116015276D02*
X147789599Y-115920038D01*
X147789599Y-115920038D02*
X147884837Y-115872419D01*
X148694361Y-116586704D02*
X149170551Y-116586704D01*
X148599123Y-116872419D02*
X148932456Y-115872419D01*
X148932456Y-115872419D02*
X149265789Y-116872419D01*
X150170551Y-116872419D02*
X149837218Y-116396228D01*
X149599123Y-116872419D02*
X149599123Y-115872419D01*
X149599123Y-115872419D02*
X149980075Y-115872419D01*
X149980075Y-115872419D02*
X150075313Y-115920038D01*
X150075313Y-115920038D02*
X150122932Y-115967657D01*
X150122932Y-115967657D02*
X150170551Y-116062895D01*
X150170551Y-116062895D02*
X150170551Y-116205752D01*
X150170551Y-116205752D02*
X150122932Y-116300990D01*
X150122932Y-116300990D02*
X150075313Y-116348609D01*
X150075313Y-116348609D02*
X149980075Y-116396228D01*
X149980075Y-116396228D02*
X149599123Y-116396228D01*
X150599123Y-116872419D02*
X150599123Y-115872419D01*
X150599123Y-115872419D02*
X150837218Y-115872419D01*
X150837218Y-115872419D02*
X150980075Y-115920038D01*
X150980075Y-115920038D02*
X151075313Y-116015276D01*
X151075313Y-116015276D02*
X151122932Y-116110514D01*
X151122932Y-116110514D02*
X151170551Y-116300990D01*
X151170551Y-116300990D02*
X151170551Y-116443847D01*
X151170551Y-116443847D02*
X151122932Y-116634323D01*
X151122932Y-116634323D02*
X151075313Y-116729561D01*
X151075313Y-116729561D02*
X150980075Y-116824800D01*
X150980075Y-116824800D02*
X150837218Y-116872419D01*
X150837218Y-116872419D02*
X150599123Y-116872419D01*
X156303884Y-122272419D02*
X156303884Y-121272419D01*
X156303884Y-121272419D02*
X156684836Y-121272419D01*
X156684836Y-121272419D02*
X156780074Y-121320038D01*
X156780074Y-121320038D02*
X156827693Y-121367657D01*
X156827693Y-121367657D02*
X156875312Y-121462895D01*
X156875312Y-121462895D02*
X156875312Y-121605752D01*
X156875312Y-121605752D02*
X156827693Y-121700990D01*
X156827693Y-121700990D02*
X156780074Y-121748609D01*
X156780074Y-121748609D02*
X156684836Y-121796228D01*
X156684836Y-121796228D02*
X156303884Y-121796228D01*
X157494360Y-121272419D02*
X157589598Y-121272419D01*
X157589598Y-121272419D02*
X157684836Y-121320038D01*
X157684836Y-121320038D02*
X157732455Y-121367657D01*
X157732455Y-121367657D02*
X157780074Y-121462895D01*
X157780074Y-121462895D02*
X157827693Y-121653371D01*
X157827693Y-121653371D02*
X157827693Y-121891466D01*
X157827693Y-121891466D02*
X157780074Y-122081942D01*
X157780074Y-122081942D02*
X157732455Y-122177180D01*
X157732455Y-122177180D02*
X157684836Y-122224800D01*
X157684836Y-122224800D02*
X157589598Y-122272419D01*
X157589598Y-122272419D02*
X157494360Y-122272419D01*
X157494360Y-122272419D02*
X157399122Y-122224800D01*
X157399122Y-122224800D02*
X157351503Y-122177180D01*
X157351503Y-122177180D02*
X157303884Y-122081942D01*
X157303884Y-122081942D02*
X157256265Y-121891466D01*
X157256265Y-121891466D02*
X157256265Y-121653371D01*
X157256265Y-121653371D02*
X157303884Y-121462895D01*
X157303884Y-121462895D02*
X157351503Y-121367657D01*
X157351503Y-121367657D02*
X157399122Y-121320038D01*
X157399122Y-121320038D02*
X157494360Y-121272419D01*
X158256265Y-122177180D02*
X158303884Y-122224800D01*
X158303884Y-122224800D02*
X158256265Y-122272419D01*
X158256265Y-122272419D02*
X158208646Y-122224800D01*
X158208646Y-122224800D02*
X158256265Y-122177180D01*
X158256265Y-122177180D02*
X158256265Y-122272419D01*
X158922931Y-121272419D02*
X159018169Y-121272419D01*
X159018169Y-121272419D02*
X159113407Y-121320038D01*
X159113407Y-121320038D02*
X159161026Y-121367657D01*
X159161026Y-121367657D02*
X159208645Y-121462895D01*
X159208645Y-121462895D02*
X159256264Y-121653371D01*
X159256264Y-121653371D02*
X159256264Y-121891466D01*
X159256264Y-121891466D02*
X159208645Y-122081942D01*
X159208645Y-122081942D02*
X159161026Y-122177180D01*
X159161026Y-122177180D02*
X159113407Y-122224800D01*
X159113407Y-122224800D02*
X159018169Y-122272419D01*
X159018169Y-122272419D02*
X158922931Y-122272419D01*
X158922931Y-122272419D02*
X158827693Y-122224800D01*
X158827693Y-122224800D02*
X158780074Y-122177180D01*
X158780074Y-122177180D02*
X158732455Y-122081942D01*
X158732455Y-122081942D02*
X158684836Y-121891466D01*
X158684836Y-121891466D02*
X158684836Y-121653371D01*
X158684836Y-121653371D02*
X158732455Y-121462895D01*
X158732455Y-121462895D02*
X158780074Y-121367657D01*
X158780074Y-121367657D02*
X158827693Y-121320038D01*
X158827693Y-121320038D02*
X158922931Y-121272419D01*
X159589598Y-121272419D02*
X160208645Y-121272419D01*
X160208645Y-121272419D02*
X159875312Y-121653371D01*
X159875312Y-121653371D02*
X160018169Y-121653371D01*
X160018169Y-121653371D02*
X160113407Y-121700990D01*
X160113407Y-121700990D02*
X160161026Y-121748609D01*
X160161026Y-121748609D02*
X160208645Y-121843847D01*
X160208645Y-121843847D02*
X160208645Y-122081942D01*
X160208645Y-122081942D02*
X160161026Y-122177180D01*
X160161026Y-122177180D02*
X160113407Y-122224800D01*
X160113407Y-122224800D02*
X160018169Y-122272419D01*
X160018169Y-122272419D02*
X159732455Y-122272419D01*
X159732455Y-122272419D02*
X159637217Y-122224800D01*
X159637217Y-122224800D02*
X159589598Y-122177180D01*
X156303884Y-109472419D02*
X156303884Y-108472419D01*
X156303884Y-108472419D02*
X156684836Y-108472419D01*
X156684836Y-108472419D02*
X156780074Y-108520038D01*
X156780074Y-108520038D02*
X156827693Y-108567657D01*
X156827693Y-108567657D02*
X156875312Y-108662895D01*
X156875312Y-108662895D02*
X156875312Y-108805752D01*
X156875312Y-108805752D02*
X156827693Y-108900990D01*
X156827693Y-108900990D02*
X156780074Y-108948609D01*
X156780074Y-108948609D02*
X156684836Y-108996228D01*
X156684836Y-108996228D02*
X156303884Y-108996228D01*
X157494360Y-108472419D02*
X157589598Y-108472419D01*
X157589598Y-108472419D02*
X157684836Y-108520038D01*
X157684836Y-108520038D02*
X157732455Y-108567657D01*
X157732455Y-108567657D02*
X157780074Y-108662895D01*
X157780074Y-108662895D02*
X157827693Y-108853371D01*
X157827693Y-108853371D02*
X157827693Y-109091466D01*
X157827693Y-109091466D02*
X157780074Y-109281942D01*
X157780074Y-109281942D02*
X157732455Y-109377180D01*
X157732455Y-109377180D02*
X157684836Y-109424800D01*
X157684836Y-109424800D02*
X157589598Y-109472419D01*
X157589598Y-109472419D02*
X157494360Y-109472419D01*
X157494360Y-109472419D02*
X157399122Y-109424800D01*
X157399122Y-109424800D02*
X157351503Y-109377180D01*
X157351503Y-109377180D02*
X157303884Y-109281942D01*
X157303884Y-109281942D02*
X157256265Y-109091466D01*
X157256265Y-109091466D02*
X157256265Y-108853371D01*
X157256265Y-108853371D02*
X157303884Y-108662895D01*
X157303884Y-108662895D02*
X157351503Y-108567657D01*
X157351503Y-108567657D02*
X157399122Y-108520038D01*
X157399122Y-108520038D02*
X157494360Y-108472419D01*
X158256265Y-109377180D02*
X158303884Y-109424800D01*
X158303884Y-109424800D02*
X158256265Y-109472419D01*
X158256265Y-109472419D02*
X158208646Y-109424800D01*
X158208646Y-109424800D02*
X158256265Y-109377180D01*
X158256265Y-109377180D02*
X158256265Y-109472419D01*
X158684836Y-108567657D02*
X158732455Y-108520038D01*
X158732455Y-108520038D02*
X158827693Y-108472419D01*
X158827693Y-108472419D02*
X159065788Y-108472419D01*
X159065788Y-108472419D02*
X159161026Y-108520038D01*
X159161026Y-108520038D02*
X159208645Y-108567657D01*
X159208645Y-108567657D02*
X159256264Y-108662895D01*
X159256264Y-108662895D02*
X159256264Y-108758133D01*
X159256264Y-108758133D02*
X159208645Y-108900990D01*
X159208645Y-108900990D02*
X158637217Y-109472419D01*
X158637217Y-109472419D02*
X159256264Y-109472419D01*
X159827693Y-108900990D02*
X159732455Y-108853371D01*
X159732455Y-108853371D02*
X159684836Y-108805752D01*
X159684836Y-108805752D02*
X159637217Y-108710514D01*
X159637217Y-108710514D02*
X159637217Y-108662895D01*
X159637217Y-108662895D02*
X159684836Y-108567657D01*
X159684836Y-108567657D02*
X159732455Y-108520038D01*
X159732455Y-108520038D02*
X159827693Y-108472419D01*
X159827693Y-108472419D02*
X160018169Y-108472419D01*
X160018169Y-108472419D02*
X160113407Y-108520038D01*
X160113407Y-108520038D02*
X160161026Y-108567657D01*
X160161026Y-108567657D02*
X160208645Y-108662895D01*
X160208645Y-108662895D02*
X160208645Y-108710514D01*
X160208645Y-108710514D02*
X160161026Y-108805752D01*
X160161026Y-108805752D02*
X160113407Y-108853371D01*
X160113407Y-108853371D02*
X160018169Y-108900990D01*
X160018169Y-108900990D02*
X159827693Y-108900990D01*
X159827693Y-108900990D02*
X159732455Y-108948609D01*
X159732455Y-108948609D02*
X159684836Y-108996228D01*
X159684836Y-108996228D02*
X159637217Y-109091466D01*
X159637217Y-109091466D02*
X159637217Y-109281942D01*
X159637217Y-109281942D02*
X159684836Y-109377180D01*
X159684836Y-109377180D02*
X159732455Y-109424800D01*
X159732455Y-109424800D02*
X159827693Y-109472419D01*
X159827693Y-109472419D02*
X160018169Y-109472419D01*
X160018169Y-109472419D02*
X160113407Y-109424800D01*
X160113407Y-109424800D02*
X160161026Y-109377180D01*
X160161026Y-109377180D02*
X160208645Y-109281942D01*
X160208645Y-109281942D02*
X160208645Y-109091466D01*
X160208645Y-109091466D02*
X160161026Y-108996228D01*
X160161026Y-108996228D02*
X160113407Y-108948609D01*
X160113407Y-108948609D02*
X160018169Y-108900990D01*
X126103884Y-119472419D02*
X126103884Y-118472419D01*
X126103884Y-118472419D02*
X126484836Y-118472419D01*
X126484836Y-118472419D02*
X126580074Y-118520038D01*
X126580074Y-118520038D02*
X126627693Y-118567657D01*
X126627693Y-118567657D02*
X126675312Y-118662895D01*
X126675312Y-118662895D02*
X126675312Y-118805752D01*
X126675312Y-118805752D02*
X126627693Y-118900990D01*
X126627693Y-118900990D02*
X126580074Y-118948609D01*
X126580074Y-118948609D02*
X126484836Y-118996228D01*
X126484836Y-118996228D02*
X126103884Y-118996228D01*
X127294360Y-118472419D02*
X127389598Y-118472419D01*
X127389598Y-118472419D02*
X127484836Y-118520038D01*
X127484836Y-118520038D02*
X127532455Y-118567657D01*
X127532455Y-118567657D02*
X127580074Y-118662895D01*
X127580074Y-118662895D02*
X127627693Y-118853371D01*
X127627693Y-118853371D02*
X127627693Y-119091466D01*
X127627693Y-119091466D02*
X127580074Y-119281942D01*
X127580074Y-119281942D02*
X127532455Y-119377180D01*
X127532455Y-119377180D02*
X127484836Y-119424800D01*
X127484836Y-119424800D02*
X127389598Y-119472419D01*
X127389598Y-119472419D02*
X127294360Y-119472419D01*
X127294360Y-119472419D02*
X127199122Y-119424800D01*
X127199122Y-119424800D02*
X127151503Y-119377180D01*
X127151503Y-119377180D02*
X127103884Y-119281942D01*
X127103884Y-119281942D02*
X127056265Y-119091466D01*
X127056265Y-119091466D02*
X127056265Y-118853371D01*
X127056265Y-118853371D02*
X127103884Y-118662895D01*
X127103884Y-118662895D02*
X127151503Y-118567657D01*
X127151503Y-118567657D02*
X127199122Y-118520038D01*
X127199122Y-118520038D02*
X127294360Y-118472419D01*
X128056265Y-119377180D02*
X128103884Y-119424800D01*
X128103884Y-119424800D02*
X128056265Y-119472419D01*
X128056265Y-119472419D02*
X128008646Y-119424800D01*
X128008646Y-119424800D02*
X128056265Y-119377180D01*
X128056265Y-119377180D02*
X128056265Y-119472419D01*
X129056264Y-119472419D02*
X128484836Y-119472419D01*
X128770550Y-119472419D02*
X128770550Y-118472419D01*
X128770550Y-118472419D02*
X128675312Y-118615276D01*
X128675312Y-118615276D02*
X128580074Y-118710514D01*
X128580074Y-118710514D02*
X128484836Y-118758133D01*
X129627693Y-118900990D02*
X129532455Y-118853371D01*
X129532455Y-118853371D02*
X129484836Y-118805752D01*
X129484836Y-118805752D02*
X129437217Y-118710514D01*
X129437217Y-118710514D02*
X129437217Y-118662895D01*
X129437217Y-118662895D02*
X129484836Y-118567657D01*
X129484836Y-118567657D02*
X129532455Y-118520038D01*
X129532455Y-118520038D02*
X129627693Y-118472419D01*
X129627693Y-118472419D02*
X129818169Y-118472419D01*
X129818169Y-118472419D02*
X129913407Y-118520038D01*
X129913407Y-118520038D02*
X129961026Y-118567657D01*
X129961026Y-118567657D02*
X130008645Y-118662895D01*
X130008645Y-118662895D02*
X130008645Y-118710514D01*
X130008645Y-118710514D02*
X129961026Y-118805752D01*
X129961026Y-118805752D02*
X129913407Y-118853371D01*
X129913407Y-118853371D02*
X129818169Y-118900990D01*
X129818169Y-118900990D02*
X129627693Y-118900990D01*
X129627693Y-118900990D02*
X129532455Y-118948609D01*
X129532455Y-118948609D02*
X129484836Y-118996228D01*
X129484836Y-118996228D02*
X129437217Y-119091466D01*
X129437217Y-119091466D02*
X129437217Y-119281942D01*
X129437217Y-119281942D02*
X129484836Y-119377180D01*
X129484836Y-119377180D02*
X129532455Y-119424800D01*
X129532455Y-119424800D02*
X129627693Y-119472419D01*
X129627693Y-119472419D02*
X129818169Y-119472419D01*
X129818169Y-119472419D02*
X129913407Y-119424800D01*
X129913407Y-119424800D02*
X129961026Y-119377180D01*
X129961026Y-119377180D02*
X130008645Y-119281942D01*
X130008645Y-119281942D02*
X130008645Y-119091466D01*
X130008645Y-119091466D02*
X129961026Y-118996228D01*
X129961026Y-118996228D02*
X129913407Y-118948609D01*
X129913407Y-118948609D02*
X129818169Y-118900990D01*
X126103884Y-122072419D02*
X126103884Y-121072419D01*
X126103884Y-121072419D02*
X126484836Y-121072419D01*
X126484836Y-121072419D02*
X126580074Y-121120038D01*
X126580074Y-121120038D02*
X126627693Y-121167657D01*
X126627693Y-121167657D02*
X126675312Y-121262895D01*
X126675312Y-121262895D02*
X126675312Y-121405752D01*
X126675312Y-121405752D02*
X126627693Y-121500990D01*
X126627693Y-121500990D02*
X126580074Y-121548609D01*
X126580074Y-121548609D02*
X126484836Y-121596228D01*
X126484836Y-121596228D02*
X126103884Y-121596228D01*
X127294360Y-121072419D02*
X127389598Y-121072419D01*
X127389598Y-121072419D02*
X127484836Y-121120038D01*
X127484836Y-121120038D02*
X127532455Y-121167657D01*
X127532455Y-121167657D02*
X127580074Y-121262895D01*
X127580074Y-121262895D02*
X127627693Y-121453371D01*
X127627693Y-121453371D02*
X127627693Y-121691466D01*
X127627693Y-121691466D02*
X127580074Y-121881942D01*
X127580074Y-121881942D02*
X127532455Y-121977180D01*
X127532455Y-121977180D02*
X127484836Y-122024800D01*
X127484836Y-122024800D02*
X127389598Y-122072419D01*
X127389598Y-122072419D02*
X127294360Y-122072419D01*
X127294360Y-122072419D02*
X127199122Y-122024800D01*
X127199122Y-122024800D02*
X127151503Y-121977180D01*
X127151503Y-121977180D02*
X127103884Y-121881942D01*
X127103884Y-121881942D02*
X127056265Y-121691466D01*
X127056265Y-121691466D02*
X127056265Y-121453371D01*
X127056265Y-121453371D02*
X127103884Y-121262895D01*
X127103884Y-121262895D02*
X127151503Y-121167657D01*
X127151503Y-121167657D02*
X127199122Y-121120038D01*
X127199122Y-121120038D02*
X127294360Y-121072419D01*
X128056265Y-121977180D02*
X128103884Y-122024800D01*
X128103884Y-122024800D02*
X128056265Y-122072419D01*
X128056265Y-122072419D02*
X128008646Y-122024800D01*
X128008646Y-122024800D02*
X128056265Y-121977180D01*
X128056265Y-121977180D02*
X128056265Y-122072419D01*
X129056264Y-122072419D02*
X128484836Y-122072419D01*
X128770550Y-122072419D02*
X128770550Y-121072419D01*
X128770550Y-121072419D02*
X128675312Y-121215276D01*
X128675312Y-121215276D02*
X128580074Y-121310514D01*
X128580074Y-121310514D02*
X128484836Y-121358133D01*
X129532455Y-122072419D02*
X129722931Y-122072419D01*
X129722931Y-122072419D02*
X129818169Y-122024800D01*
X129818169Y-122024800D02*
X129865788Y-121977180D01*
X129865788Y-121977180D02*
X129961026Y-121834323D01*
X129961026Y-121834323D02*
X130008645Y-121643847D01*
X130008645Y-121643847D02*
X130008645Y-121262895D01*
X130008645Y-121262895D02*
X129961026Y-121167657D01*
X129961026Y-121167657D02*
X129913407Y-121120038D01*
X129913407Y-121120038D02*
X129818169Y-121072419D01*
X129818169Y-121072419D02*
X129627693Y-121072419D01*
X129627693Y-121072419D02*
X129532455Y-121120038D01*
X129532455Y-121120038D02*
X129484836Y-121167657D01*
X129484836Y-121167657D02*
X129437217Y-121262895D01*
X129437217Y-121262895D02*
X129437217Y-121500990D01*
X129437217Y-121500990D02*
X129484836Y-121596228D01*
X129484836Y-121596228D02*
X129532455Y-121643847D01*
X129532455Y-121643847D02*
X129627693Y-121691466D01*
X129627693Y-121691466D02*
X129818169Y-121691466D01*
X129818169Y-121691466D02*
X129913407Y-121643847D01*
X129913407Y-121643847D02*
X129961026Y-121596228D01*
X129961026Y-121596228D02*
X130008645Y-121500990D01*
X154903884Y-131072419D02*
X154903884Y-130072419D01*
X154903884Y-130072419D02*
X155284836Y-130072419D01*
X155284836Y-130072419D02*
X155380074Y-130120038D01*
X155380074Y-130120038D02*
X155427693Y-130167657D01*
X155427693Y-130167657D02*
X155475312Y-130262895D01*
X155475312Y-130262895D02*
X155475312Y-130405752D01*
X155475312Y-130405752D02*
X155427693Y-130500990D01*
X155427693Y-130500990D02*
X155380074Y-130548609D01*
X155380074Y-130548609D02*
X155284836Y-130596228D01*
X155284836Y-130596228D02*
X154903884Y-130596228D01*
X156094360Y-130072419D02*
X156189598Y-130072419D01*
X156189598Y-130072419D02*
X156284836Y-130120038D01*
X156284836Y-130120038D02*
X156332455Y-130167657D01*
X156332455Y-130167657D02*
X156380074Y-130262895D01*
X156380074Y-130262895D02*
X156427693Y-130453371D01*
X156427693Y-130453371D02*
X156427693Y-130691466D01*
X156427693Y-130691466D02*
X156380074Y-130881942D01*
X156380074Y-130881942D02*
X156332455Y-130977180D01*
X156332455Y-130977180D02*
X156284836Y-131024800D01*
X156284836Y-131024800D02*
X156189598Y-131072419D01*
X156189598Y-131072419D02*
X156094360Y-131072419D01*
X156094360Y-131072419D02*
X155999122Y-131024800D01*
X155999122Y-131024800D02*
X155951503Y-130977180D01*
X155951503Y-130977180D02*
X155903884Y-130881942D01*
X155903884Y-130881942D02*
X155856265Y-130691466D01*
X155856265Y-130691466D02*
X155856265Y-130453371D01*
X155856265Y-130453371D02*
X155903884Y-130262895D01*
X155903884Y-130262895D02*
X155951503Y-130167657D01*
X155951503Y-130167657D02*
X155999122Y-130120038D01*
X155999122Y-130120038D02*
X156094360Y-130072419D01*
X156856265Y-130977180D02*
X156903884Y-131024800D01*
X156903884Y-131024800D02*
X156856265Y-131072419D01*
X156856265Y-131072419D02*
X156808646Y-131024800D01*
X156808646Y-131024800D02*
X156856265Y-130977180D01*
X156856265Y-130977180D02*
X156856265Y-131072419D01*
X157522931Y-130072419D02*
X157618169Y-130072419D01*
X157618169Y-130072419D02*
X157713407Y-130120038D01*
X157713407Y-130120038D02*
X157761026Y-130167657D01*
X157761026Y-130167657D02*
X157808645Y-130262895D01*
X157808645Y-130262895D02*
X157856264Y-130453371D01*
X157856264Y-130453371D02*
X157856264Y-130691466D01*
X157856264Y-130691466D02*
X157808645Y-130881942D01*
X157808645Y-130881942D02*
X157761026Y-130977180D01*
X157761026Y-130977180D02*
X157713407Y-131024800D01*
X157713407Y-131024800D02*
X157618169Y-131072419D01*
X157618169Y-131072419D02*
X157522931Y-131072419D01*
X157522931Y-131072419D02*
X157427693Y-131024800D01*
X157427693Y-131024800D02*
X157380074Y-130977180D01*
X157380074Y-130977180D02*
X157332455Y-130881942D01*
X157332455Y-130881942D02*
X157284836Y-130691466D01*
X157284836Y-130691466D02*
X157284836Y-130453371D01*
X157284836Y-130453371D02*
X157332455Y-130262895D01*
X157332455Y-130262895D02*
X157380074Y-130167657D01*
X157380074Y-130167657D02*
X157427693Y-130120038D01*
X157427693Y-130120038D02*
X157522931Y-130072419D01*
X158713407Y-130405752D02*
X158713407Y-131072419D01*
X158475312Y-130024800D02*
X158237217Y-130739085D01*
X158237217Y-130739085D02*
X158856264Y-130739085D01*
X126056265Y-109224800D02*
X126199122Y-109272419D01*
X126199122Y-109272419D02*
X126437217Y-109272419D01*
X126437217Y-109272419D02*
X126532455Y-109224800D01*
X126532455Y-109224800D02*
X126580074Y-109177180D01*
X126580074Y-109177180D02*
X126627693Y-109081942D01*
X126627693Y-109081942D02*
X126627693Y-108986704D01*
X126627693Y-108986704D02*
X126580074Y-108891466D01*
X126580074Y-108891466D02*
X126532455Y-108843847D01*
X126532455Y-108843847D02*
X126437217Y-108796228D01*
X126437217Y-108796228D02*
X126246741Y-108748609D01*
X126246741Y-108748609D02*
X126151503Y-108700990D01*
X126151503Y-108700990D02*
X126103884Y-108653371D01*
X126103884Y-108653371D02*
X126056265Y-108558133D01*
X126056265Y-108558133D02*
X126056265Y-108462895D01*
X126056265Y-108462895D02*
X126103884Y-108367657D01*
X126103884Y-108367657D02*
X126151503Y-108320038D01*
X126151503Y-108320038D02*
X126246741Y-108272419D01*
X126246741Y-108272419D02*
X126484836Y-108272419D01*
X126484836Y-108272419D02*
X126627693Y-108320038D01*
X126961027Y-108272419D02*
X127199122Y-109272419D01*
X127199122Y-109272419D02*
X127389598Y-108558133D01*
X127389598Y-108558133D02*
X127580074Y-109272419D01*
X127580074Y-109272419D02*
X127818170Y-108272419D01*
X128199122Y-109272419D02*
X128199122Y-108272419D01*
X128199122Y-108272419D02*
X128437217Y-108272419D01*
X128437217Y-108272419D02*
X128580074Y-108320038D01*
X128580074Y-108320038D02*
X128675312Y-108415276D01*
X128675312Y-108415276D02*
X128722931Y-108510514D01*
X128722931Y-108510514D02*
X128770550Y-108700990D01*
X128770550Y-108700990D02*
X128770550Y-108843847D01*
X128770550Y-108843847D02*
X128722931Y-109034323D01*
X128722931Y-109034323D02*
X128675312Y-109129561D01*
X128675312Y-109129561D02*
X128580074Y-109224800D01*
X128580074Y-109224800D02*
X128437217Y-109272419D01*
X128437217Y-109272419D02*
X128199122Y-109272419D01*
X129199122Y-109272419D02*
X129199122Y-108272419D01*
X129865788Y-108272419D02*
X130056264Y-108272419D01*
X130056264Y-108272419D02*
X130151502Y-108320038D01*
X130151502Y-108320038D02*
X130246740Y-108415276D01*
X130246740Y-108415276D02*
X130294359Y-108605752D01*
X130294359Y-108605752D02*
X130294359Y-108939085D01*
X130294359Y-108939085D02*
X130246740Y-109129561D01*
X130246740Y-109129561D02*
X130151502Y-109224800D01*
X130151502Y-109224800D02*
X130056264Y-109272419D01*
X130056264Y-109272419D02*
X129865788Y-109272419D01*
X129865788Y-109272419D02*
X129770550Y-109224800D01*
X129770550Y-109224800D02*
X129675312Y-109129561D01*
X129675312Y-109129561D02*
X129627693Y-108939085D01*
X129627693Y-108939085D02*
X129627693Y-108605752D01*
X129627693Y-108605752D02*
X129675312Y-108415276D01*
X129675312Y-108415276D02*
X129770550Y-108320038D01*
X129770550Y-108320038D02*
X129865788Y-108272419D01*
X126103884Y-101672419D02*
X126103884Y-100672419D01*
X126103884Y-100672419D02*
X126484836Y-100672419D01*
X126484836Y-100672419D02*
X126580074Y-100720038D01*
X126580074Y-100720038D02*
X126627693Y-100767657D01*
X126627693Y-100767657D02*
X126675312Y-100862895D01*
X126675312Y-100862895D02*
X126675312Y-101005752D01*
X126675312Y-101005752D02*
X126627693Y-101100990D01*
X126627693Y-101100990D02*
X126580074Y-101148609D01*
X126580074Y-101148609D02*
X126484836Y-101196228D01*
X126484836Y-101196228D02*
X126103884Y-101196228D01*
X127294360Y-100672419D02*
X127389598Y-100672419D01*
X127389598Y-100672419D02*
X127484836Y-100720038D01*
X127484836Y-100720038D02*
X127532455Y-100767657D01*
X127532455Y-100767657D02*
X127580074Y-100862895D01*
X127580074Y-100862895D02*
X127627693Y-101053371D01*
X127627693Y-101053371D02*
X127627693Y-101291466D01*
X127627693Y-101291466D02*
X127580074Y-101481942D01*
X127580074Y-101481942D02*
X127532455Y-101577180D01*
X127532455Y-101577180D02*
X127484836Y-101624800D01*
X127484836Y-101624800D02*
X127389598Y-101672419D01*
X127389598Y-101672419D02*
X127294360Y-101672419D01*
X127294360Y-101672419D02*
X127199122Y-101624800D01*
X127199122Y-101624800D02*
X127151503Y-101577180D01*
X127151503Y-101577180D02*
X127103884Y-101481942D01*
X127103884Y-101481942D02*
X127056265Y-101291466D01*
X127056265Y-101291466D02*
X127056265Y-101053371D01*
X127056265Y-101053371D02*
X127103884Y-100862895D01*
X127103884Y-100862895D02*
X127151503Y-100767657D01*
X127151503Y-100767657D02*
X127199122Y-100720038D01*
X127199122Y-100720038D02*
X127294360Y-100672419D01*
X128056265Y-101577180D02*
X128103884Y-101624800D01*
X128103884Y-101624800D02*
X128056265Y-101672419D01*
X128056265Y-101672419D02*
X128008646Y-101624800D01*
X128008646Y-101624800D02*
X128056265Y-101577180D01*
X128056265Y-101577180D02*
X128056265Y-101672419D01*
X128484836Y-100767657D02*
X128532455Y-100720038D01*
X128532455Y-100720038D02*
X128627693Y-100672419D01*
X128627693Y-100672419D02*
X128865788Y-100672419D01*
X128865788Y-100672419D02*
X128961026Y-100720038D01*
X128961026Y-100720038D02*
X129008645Y-100767657D01*
X129008645Y-100767657D02*
X129056264Y-100862895D01*
X129056264Y-100862895D02*
X129056264Y-100958133D01*
X129056264Y-100958133D02*
X129008645Y-101100990D01*
X129008645Y-101100990D02*
X128437217Y-101672419D01*
X128437217Y-101672419D02*
X129056264Y-101672419D01*
X129913407Y-101005752D02*
X129913407Y-101672419D01*
X129675312Y-100624800D02*
X129437217Y-101339085D01*
X129437217Y-101339085D02*
X130056264Y-101339085D01*
X126703884Y-131072419D02*
X126703884Y-130072419D01*
X126703884Y-130072419D02*
X127084836Y-130072419D01*
X127084836Y-130072419D02*
X127180074Y-130120038D01*
X127180074Y-130120038D02*
X127227693Y-130167657D01*
X127227693Y-130167657D02*
X127275312Y-130262895D01*
X127275312Y-130262895D02*
X127275312Y-130405752D01*
X127275312Y-130405752D02*
X127227693Y-130500990D01*
X127227693Y-130500990D02*
X127180074Y-130548609D01*
X127180074Y-130548609D02*
X127084836Y-130596228D01*
X127084836Y-130596228D02*
X126703884Y-130596228D01*
X127894360Y-130072419D02*
X127989598Y-130072419D01*
X127989598Y-130072419D02*
X128084836Y-130120038D01*
X128084836Y-130120038D02*
X128132455Y-130167657D01*
X128132455Y-130167657D02*
X128180074Y-130262895D01*
X128180074Y-130262895D02*
X128227693Y-130453371D01*
X128227693Y-130453371D02*
X128227693Y-130691466D01*
X128227693Y-130691466D02*
X128180074Y-130881942D01*
X128180074Y-130881942D02*
X128132455Y-130977180D01*
X128132455Y-130977180D02*
X128084836Y-131024800D01*
X128084836Y-131024800D02*
X127989598Y-131072419D01*
X127989598Y-131072419D02*
X127894360Y-131072419D01*
X127894360Y-131072419D02*
X127799122Y-131024800D01*
X127799122Y-131024800D02*
X127751503Y-130977180D01*
X127751503Y-130977180D02*
X127703884Y-130881942D01*
X127703884Y-130881942D02*
X127656265Y-130691466D01*
X127656265Y-130691466D02*
X127656265Y-130453371D01*
X127656265Y-130453371D02*
X127703884Y-130262895D01*
X127703884Y-130262895D02*
X127751503Y-130167657D01*
X127751503Y-130167657D02*
X127799122Y-130120038D01*
X127799122Y-130120038D02*
X127894360Y-130072419D01*
X128656265Y-130977180D02*
X128703884Y-131024800D01*
X128703884Y-131024800D02*
X128656265Y-131072419D01*
X128656265Y-131072419D02*
X128608646Y-131024800D01*
X128608646Y-131024800D02*
X128656265Y-130977180D01*
X128656265Y-130977180D02*
X128656265Y-131072419D01*
X129656264Y-131072419D02*
X129084836Y-131072419D01*
X129370550Y-131072419D02*
X129370550Y-130072419D01*
X129370550Y-130072419D02*
X129275312Y-130215276D01*
X129275312Y-130215276D02*
X129180074Y-130310514D01*
X129180074Y-130310514D02*
X129084836Y-130358133D01*
X130561026Y-130072419D02*
X130084836Y-130072419D01*
X130084836Y-130072419D02*
X130037217Y-130548609D01*
X130037217Y-130548609D02*
X130084836Y-130500990D01*
X130084836Y-130500990D02*
X130180074Y-130453371D01*
X130180074Y-130453371D02*
X130418169Y-130453371D01*
X130418169Y-130453371D02*
X130513407Y-130500990D01*
X130513407Y-130500990D02*
X130561026Y-130548609D01*
X130561026Y-130548609D02*
X130608645Y-130643847D01*
X130608645Y-130643847D02*
X130608645Y-130881942D01*
X130608645Y-130881942D02*
X130561026Y-130977180D01*
X130561026Y-130977180D02*
X130513407Y-131024800D01*
X130513407Y-131024800D02*
X130418169Y-131072419D01*
X130418169Y-131072419D02*
X130180074Y-131072419D01*
X130180074Y-131072419D02*
X130084836Y-131024800D01*
X130084836Y-131024800D02*
X130037217Y-130977180D01*
X156303884Y-117072419D02*
X156303884Y-116072419D01*
X156303884Y-116072419D02*
X156684836Y-116072419D01*
X156684836Y-116072419D02*
X156780074Y-116120038D01*
X156780074Y-116120038D02*
X156827693Y-116167657D01*
X156827693Y-116167657D02*
X156875312Y-116262895D01*
X156875312Y-116262895D02*
X156875312Y-116405752D01*
X156875312Y-116405752D02*
X156827693Y-116500990D01*
X156827693Y-116500990D02*
X156780074Y-116548609D01*
X156780074Y-116548609D02*
X156684836Y-116596228D01*
X156684836Y-116596228D02*
X156303884Y-116596228D01*
X157494360Y-116072419D02*
X157589598Y-116072419D01*
X157589598Y-116072419D02*
X157684836Y-116120038D01*
X157684836Y-116120038D02*
X157732455Y-116167657D01*
X157732455Y-116167657D02*
X157780074Y-116262895D01*
X157780074Y-116262895D02*
X157827693Y-116453371D01*
X157827693Y-116453371D02*
X157827693Y-116691466D01*
X157827693Y-116691466D02*
X157780074Y-116881942D01*
X157780074Y-116881942D02*
X157732455Y-116977180D01*
X157732455Y-116977180D02*
X157684836Y-117024800D01*
X157684836Y-117024800D02*
X157589598Y-117072419D01*
X157589598Y-117072419D02*
X157494360Y-117072419D01*
X157494360Y-117072419D02*
X157399122Y-117024800D01*
X157399122Y-117024800D02*
X157351503Y-116977180D01*
X157351503Y-116977180D02*
X157303884Y-116881942D01*
X157303884Y-116881942D02*
X157256265Y-116691466D01*
X157256265Y-116691466D02*
X157256265Y-116453371D01*
X157256265Y-116453371D02*
X157303884Y-116262895D01*
X157303884Y-116262895D02*
X157351503Y-116167657D01*
X157351503Y-116167657D02*
X157399122Y-116120038D01*
X157399122Y-116120038D02*
X157494360Y-116072419D01*
X158256265Y-116977180D02*
X158303884Y-117024800D01*
X158303884Y-117024800D02*
X158256265Y-117072419D01*
X158256265Y-117072419D02*
X158208646Y-117024800D01*
X158208646Y-117024800D02*
X158256265Y-116977180D01*
X158256265Y-116977180D02*
X158256265Y-117072419D01*
X158637217Y-116072419D02*
X159256264Y-116072419D01*
X159256264Y-116072419D02*
X158922931Y-116453371D01*
X158922931Y-116453371D02*
X159065788Y-116453371D01*
X159065788Y-116453371D02*
X159161026Y-116500990D01*
X159161026Y-116500990D02*
X159208645Y-116548609D01*
X159208645Y-116548609D02*
X159256264Y-116643847D01*
X159256264Y-116643847D02*
X159256264Y-116881942D01*
X159256264Y-116881942D02*
X159208645Y-116977180D01*
X159208645Y-116977180D02*
X159161026Y-117024800D01*
X159161026Y-117024800D02*
X159065788Y-117072419D01*
X159065788Y-117072419D02*
X158780074Y-117072419D01*
X158780074Y-117072419D02*
X158684836Y-117024800D01*
X158684836Y-117024800D02*
X158637217Y-116977180D01*
X160208645Y-117072419D02*
X159637217Y-117072419D01*
X159922931Y-117072419D02*
X159922931Y-116072419D01*
X159922931Y-116072419D02*
X159827693Y-116215276D01*
X159827693Y-116215276D02*
X159732455Y-116310514D01*
X159732455Y-116310514D02*
X159637217Y-116358133D01*
X160561027Y-128672419D02*
X160894360Y-129672419D01*
X160894360Y-129672419D02*
X161227693Y-128672419D01*
X162132455Y-129577180D02*
X162084836Y-129624800D01*
X162084836Y-129624800D02*
X161941979Y-129672419D01*
X161941979Y-129672419D02*
X161846741Y-129672419D01*
X161846741Y-129672419D02*
X161703884Y-129624800D01*
X161703884Y-129624800D02*
X161608646Y-129529561D01*
X161608646Y-129529561D02*
X161561027Y-129434323D01*
X161561027Y-129434323D02*
X161513408Y-129243847D01*
X161513408Y-129243847D02*
X161513408Y-129100990D01*
X161513408Y-129100990D02*
X161561027Y-128910514D01*
X161561027Y-128910514D02*
X161608646Y-128815276D01*
X161608646Y-128815276D02*
X161703884Y-128720038D01*
X161703884Y-128720038D02*
X161846741Y-128672419D01*
X161846741Y-128672419D02*
X161941979Y-128672419D01*
X161941979Y-128672419D02*
X162084836Y-128720038D01*
X162084836Y-128720038D02*
X162132455Y-128767657D01*
X163132455Y-129577180D02*
X163084836Y-129624800D01*
X163084836Y-129624800D02*
X162941979Y-129672419D01*
X162941979Y-129672419D02*
X162846741Y-129672419D01*
X162846741Y-129672419D02*
X162703884Y-129624800D01*
X162703884Y-129624800D02*
X162608646Y-129529561D01*
X162608646Y-129529561D02*
X162561027Y-129434323D01*
X162561027Y-129434323D02*
X162513408Y-129243847D01*
X162513408Y-129243847D02*
X162513408Y-129100990D01*
X162513408Y-129100990D02*
X162561027Y-128910514D01*
X162561027Y-128910514D02*
X162608646Y-128815276D01*
X162608646Y-128815276D02*
X162703884Y-128720038D01*
X162703884Y-128720038D02*
X162846741Y-128672419D01*
X162846741Y-128672419D02*
X162941979Y-128672419D01*
X162941979Y-128672419D02*
X163084836Y-128720038D01*
X163084836Y-128720038D02*
X163132455Y-128767657D01*
X156303884Y-114672419D02*
X156303884Y-113672419D01*
X156303884Y-113672419D02*
X156684836Y-113672419D01*
X156684836Y-113672419D02*
X156780074Y-113720038D01*
X156780074Y-113720038D02*
X156827693Y-113767657D01*
X156827693Y-113767657D02*
X156875312Y-113862895D01*
X156875312Y-113862895D02*
X156875312Y-114005752D01*
X156875312Y-114005752D02*
X156827693Y-114100990D01*
X156827693Y-114100990D02*
X156780074Y-114148609D01*
X156780074Y-114148609D02*
X156684836Y-114196228D01*
X156684836Y-114196228D02*
X156303884Y-114196228D01*
X157494360Y-113672419D02*
X157589598Y-113672419D01*
X157589598Y-113672419D02*
X157684836Y-113720038D01*
X157684836Y-113720038D02*
X157732455Y-113767657D01*
X157732455Y-113767657D02*
X157780074Y-113862895D01*
X157780074Y-113862895D02*
X157827693Y-114053371D01*
X157827693Y-114053371D02*
X157827693Y-114291466D01*
X157827693Y-114291466D02*
X157780074Y-114481942D01*
X157780074Y-114481942D02*
X157732455Y-114577180D01*
X157732455Y-114577180D02*
X157684836Y-114624800D01*
X157684836Y-114624800D02*
X157589598Y-114672419D01*
X157589598Y-114672419D02*
X157494360Y-114672419D01*
X157494360Y-114672419D02*
X157399122Y-114624800D01*
X157399122Y-114624800D02*
X157351503Y-114577180D01*
X157351503Y-114577180D02*
X157303884Y-114481942D01*
X157303884Y-114481942D02*
X157256265Y-114291466D01*
X157256265Y-114291466D02*
X157256265Y-114053371D01*
X157256265Y-114053371D02*
X157303884Y-113862895D01*
X157303884Y-113862895D02*
X157351503Y-113767657D01*
X157351503Y-113767657D02*
X157399122Y-113720038D01*
X157399122Y-113720038D02*
X157494360Y-113672419D01*
X158256265Y-114577180D02*
X158303884Y-114624800D01*
X158303884Y-114624800D02*
X158256265Y-114672419D01*
X158256265Y-114672419D02*
X158208646Y-114624800D01*
X158208646Y-114624800D02*
X158256265Y-114577180D01*
X158256265Y-114577180D02*
X158256265Y-114672419D01*
X158637217Y-113672419D02*
X159256264Y-113672419D01*
X159256264Y-113672419D02*
X158922931Y-114053371D01*
X158922931Y-114053371D02*
X159065788Y-114053371D01*
X159065788Y-114053371D02*
X159161026Y-114100990D01*
X159161026Y-114100990D02*
X159208645Y-114148609D01*
X159208645Y-114148609D02*
X159256264Y-114243847D01*
X159256264Y-114243847D02*
X159256264Y-114481942D01*
X159256264Y-114481942D02*
X159208645Y-114577180D01*
X159208645Y-114577180D02*
X159161026Y-114624800D01*
X159161026Y-114624800D02*
X159065788Y-114672419D01*
X159065788Y-114672419D02*
X158780074Y-114672419D01*
X158780074Y-114672419D02*
X158684836Y-114624800D01*
X158684836Y-114624800D02*
X158637217Y-114577180D01*
X159875312Y-113672419D02*
X159970550Y-113672419D01*
X159970550Y-113672419D02*
X160065788Y-113720038D01*
X160065788Y-113720038D02*
X160113407Y-113767657D01*
X160113407Y-113767657D02*
X160161026Y-113862895D01*
X160161026Y-113862895D02*
X160208645Y-114053371D01*
X160208645Y-114053371D02*
X160208645Y-114291466D01*
X160208645Y-114291466D02*
X160161026Y-114481942D01*
X160161026Y-114481942D02*
X160113407Y-114577180D01*
X160113407Y-114577180D02*
X160065788Y-114624800D01*
X160065788Y-114624800D02*
X159970550Y-114672419D01*
X159970550Y-114672419D02*
X159875312Y-114672419D01*
X159875312Y-114672419D02*
X159780074Y-114624800D01*
X159780074Y-114624800D02*
X159732455Y-114577180D01*
X159732455Y-114577180D02*
X159684836Y-114481942D01*
X159684836Y-114481942D02*
X159637217Y-114291466D01*
X159637217Y-114291466D02*
X159637217Y-114053371D01*
X159637217Y-114053371D02*
X159684836Y-113862895D01*
X159684836Y-113862895D02*
X159732455Y-113767657D01*
X159732455Y-113767657D02*
X159780074Y-113720038D01*
X159780074Y-113720038D02*
X159875312Y-113672419D01*
X134272419Y-125896115D02*
X133272419Y-125896115D01*
X133272419Y-125896115D02*
X133272419Y-125515163D01*
X133272419Y-125515163D02*
X133320038Y-125419925D01*
X133320038Y-125419925D02*
X133367657Y-125372306D01*
X133367657Y-125372306D02*
X133462895Y-125324687D01*
X133462895Y-125324687D02*
X133605752Y-125324687D01*
X133605752Y-125324687D02*
X133700990Y-125372306D01*
X133700990Y-125372306D02*
X133748609Y-125419925D01*
X133748609Y-125419925D02*
X133796228Y-125515163D01*
X133796228Y-125515163D02*
X133796228Y-125896115D01*
X133272419Y-124705639D02*
X133272419Y-124610401D01*
X133272419Y-124610401D02*
X133320038Y-124515163D01*
X133320038Y-124515163D02*
X133367657Y-124467544D01*
X133367657Y-124467544D02*
X133462895Y-124419925D01*
X133462895Y-124419925D02*
X133653371Y-124372306D01*
X133653371Y-124372306D02*
X133891466Y-124372306D01*
X133891466Y-124372306D02*
X134081942Y-124419925D01*
X134081942Y-124419925D02*
X134177180Y-124467544D01*
X134177180Y-124467544D02*
X134224800Y-124515163D01*
X134224800Y-124515163D02*
X134272419Y-124610401D01*
X134272419Y-124610401D02*
X134272419Y-124705639D01*
X134272419Y-124705639D02*
X134224800Y-124800877D01*
X134224800Y-124800877D02*
X134177180Y-124848496D01*
X134177180Y-124848496D02*
X134081942Y-124896115D01*
X134081942Y-124896115D02*
X133891466Y-124943734D01*
X133891466Y-124943734D02*
X133653371Y-124943734D01*
X133653371Y-124943734D02*
X133462895Y-124896115D01*
X133462895Y-124896115D02*
X133367657Y-124848496D01*
X133367657Y-124848496D02*
X133320038Y-124800877D01*
X133320038Y-124800877D02*
X133272419Y-124705639D01*
X134177180Y-123943734D02*
X134224800Y-123896115D01*
X134224800Y-123896115D02*
X134272419Y-123943734D01*
X134272419Y-123943734D02*
X134224800Y-123991353D01*
X134224800Y-123991353D02*
X134177180Y-123943734D01*
X134177180Y-123943734D02*
X134272419Y-123943734D01*
X134272419Y-122943735D02*
X134272419Y-123515163D01*
X134272419Y-123229449D02*
X133272419Y-123229449D01*
X133272419Y-123229449D02*
X133415276Y-123324687D01*
X133415276Y-123324687D02*
X133510514Y-123419925D01*
X133510514Y-123419925D02*
X133558133Y-123515163D01*
X133272419Y-122610401D02*
X133272419Y-121991354D01*
X133272419Y-121991354D02*
X133653371Y-122324687D01*
X133653371Y-122324687D02*
X133653371Y-122181830D01*
X133653371Y-122181830D02*
X133700990Y-122086592D01*
X133700990Y-122086592D02*
X133748609Y-122038973D01*
X133748609Y-122038973D02*
X133843847Y-121991354D01*
X133843847Y-121991354D02*
X134081942Y-121991354D01*
X134081942Y-121991354D02*
X134177180Y-122038973D01*
X134177180Y-122038973D02*
X134224800Y-122086592D01*
X134224800Y-122086592D02*
X134272419Y-122181830D01*
X134272419Y-122181830D02*
X134272419Y-122467544D01*
X134272419Y-122467544D02*
X134224800Y-122562782D01*
X134224800Y-122562782D02*
X134177180Y-122610401D01*
X122675312Y-129672419D02*
X122341979Y-129196228D01*
X122103884Y-129672419D02*
X122103884Y-128672419D01*
X122103884Y-128672419D02*
X122484836Y-128672419D01*
X122484836Y-128672419D02*
X122580074Y-128720038D01*
X122580074Y-128720038D02*
X122627693Y-128767657D01*
X122627693Y-128767657D02*
X122675312Y-128862895D01*
X122675312Y-128862895D02*
X122675312Y-129005752D01*
X122675312Y-129005752D02*
X122627693Y-129100990D01*
X122627693Y-129100990D02*
X122580074Y-129148609D01*
X122580074Y-129148609D02*
X122484836Y-129196228D01*
X122484836Y-129196228D02*
X122103884Y-129196228D01*
X123103884Y-129148609D02*
X123437217Y-129148609D01*
X123580074Y-129672419D02*
X123103884Y-129672419D01*
X123103884Y-129672419D02*
X123103884Y-128672419D01*
X123103884Y-128672419D02*
X123580074Y-128672419D01*
X123961027Y-129624800D02*
X124103884Y-129672419D01*
X124103884Y-129672419D02*
X124341979Y-129672419D01*
X124341979Y-129672419D02*
X124437217Y-129624800D01*
X124437217Y-129624800D02*
X124484836Y-129577180D01*
X124484836Y-129577180D02*
X124532455Y-129481942D01*
X124532455Y-129481942D02*
X124532455Y-129386704D01*
X124532455Y-129386704D02*
X124484836Y-129291466D01*
X124484836Y-129291466D02*
X124437217Y-129243847D01*
X124437217Y-129243847D02*
X124341979Y-129196228D01*
X124341979Y-129196228D02*
X124151503Y-129148609D01*
X124151503Y-129148609D02*
X124056265Y-129100990D01*
X124056265Y-129100990D02*
X124008646Y-129053371D01*
X124008646Y-129053371D02*
X123961027Y-128958133D01*
X123961027Y-128958133D02*
X123961027Y-128862895D01*
X123961027Y-128862895D02*
X124008646Y-128767657D01*
X124008646Y-128767657D02*
X124056265Y-128720038D01*
X124056265Y-128720038D02*
X124151503Y-128672419D01*
X124151503Y-128672419D02*
X124389598Y-128672419D01*
X124389598Y-128672419D02*
X124532455Y-128720038D01*
X124961027Y-129148609D02*
X125294360Y-129148609D01*
X125437217Y-129672419D02*
X124961027Y-129672419D01*
X124961027Y-129672419D02*
X124961027Y-128672419D01*
X124961027Y-128672419D02*
X125437217Y-128672419D01*
X125722932Y-128672419D02*
X126294360Y-128672419D01*
X126008646Y-129672419D02*
X126008646Y-128672419D01*
X131872419Y-125896115D02*
X130872419Y-125896115D01*
X130872419Y-125896115D02*
X130872419Y-125515163D01*
X130872419Y-125515163D02*
X130920038Y-125419925D01*
X130920038Y-125419925D02*
X130967657Y-125372306D01*
X130967657Y-125372306D02*
X131062895Y-125324687D01*
X131062895Y-125324687D02*
X131205752Y-125324687D01*
X131205752Y-125324687D02*
X131300990Y-125372306D01*
X131300990Y-125372306D02*
X131348609Y-125419925D01*
X131348609Y-125419925D02*
X131396228Y-125515163D01*
X131396228Y-125515163D02*
X131396228Y-125896115D01*
X130872419Y-124705639D02*
X130872419Y-124610401D01*
X130872419Y-124610401D02*
X130920038Y-124515163D01*
X130920038Y-124515163D02*
X130967657Y-124467544D01*
X130967657Y-124467544D02*
X131062895Y-124419925D01*
X131062895Y-124419925D02*
X131253371Y-124372306D01*
X131253371Y-124372306D02*
X131491466Y-124372306D01*
X131491466Y-124372306D02*
X131681942Y-124419925D01*
X131681942Y-124419925D02*
X131777180Y-124467544D01*
X131777180Y-124467544D02*
X131824800Y-124515163D01*
X131824800Y-124515163D02*
X131872419Y-124610401D01*
X131872419Y-124610401D02*
X131872419Y-124705639D01*
X131872419Y-124705639D02*
X131824800Y-124800877D01*
X131824800Y-124800877D02*
X131777180Y-124848496D01*
X131777180Y-124848496D02*
X131681942Y-124896115D01*
X131681942Y-124896115D02*
X131491466Y-124943734D01*
X131491466Y-124943734D02*
X131253371Y-124943734D01*
X131253371Y-124943734D02*
X131062895Y-124896115D01*
X131062895Y-124896115D02*
X130967657Y-124848496D01*
X130967657Y-124848496D02*
X130920038Y-124800877D01*
X130920038Y-124800877D02*
X130872419Y-124705639D01*
X131777180Y-123943734D02*
X131824800Y-123896115D01*
X131824800Y-123896115D02*
X131872419Y-123943734D01*
X131872419Y-123943734D02*
X131824800Y-123991353D01*
X131824800Y-123991353D02*
X131777180Y-123943734D01*
X131777180Y-123943734D02*
X131872419Y-123943734D01*
X131872419Y-122943735D02*
X131872419Y-123515163D01*
X131872419Y-123229449D02*
X130872419Y-123229449D01*
X130872419Y-123229449D02*
X131015276Y-123324687D01*
X131015276Y-123324687D02*
X131110514Y-123419925D01*
X131110514Y-123419925D02*
X131158133Y-123515163D01*
X131205752Y-122086592D02*
X131872419Y-122086592D01*
X130824800Y-122324687D02*
X131539085Y-122562782D01*
X131539085Y-122562782D02*
X131539085Y-121943735D01*
X126103884Y-114272419D02*
X126103884Y-113272419D01*
X126103884Y-113272419D02*
X126484836Y-113272419D01*
X126484836Y-113272419D02*
X126580074Y-113320038D01*
X126580074Y-113320038D02*
X126627693Y-113367657D01*
X126627693Y-113367657D02*
X126675312Y-113462895D01*
X126675312Y-113462895D02*
X126675312Y-113605752D01*
X126675312Y-113605752D02*
X126627693Y-113700990D01*
X126627693Y-113700990D02*
X126580074Y-113748609D01*
X126580074Y-113748609D02*
X126484836Y-113796228D01*
X126484836Y-113796228D02*
X126103884Y-113796228D01*
X127294360Y-113272419D02*
X127389598Y-113272419D01*
X127389598Y-113272419D02*
X127484836Y-113320038D01*
X127484836Y-113320038D02*
X127532455Y-113367657D01*
X127532455Y-113367657D02*
X127580074Y-113462895D01*
X127580074Y-113462895D02*
X127627693Y-113653371D01*
X127627693Y-113653371D02*
X127627693Y-113891466D01*
X127627693Y-113891466D02*
X127580074Y-114081942D01*
X127580074Y-114081942D02*
X127532455Y-114177180D01*
X127532455Y-114177180D02*
X127484836Y-114224800D01*
X127484836Y-114224800D02*
X127389598Y-114272419D01*
X127389598Y-114272419D02*
X127294360Y-114272419D01*
X127294360Y-114272419D02*
X127199122Y-114224800D01*
X127199122Y-114224800D02*
X127151503Y-114177180D01*
X127151503Y-114177180D02*
X127103884Y-114081942D01*
X127103884Y-114081942D02*
X127056265Y-113891466D01*
X127056265Y-113891466D02*
X127056265Y-113653371D01*
X127056265Y-113653371D02*
X127103884Y-113462895D01*
X127103884Y-113462895D02*
X127151503Y-113367657D01*
X127151503Y-113367657D02*
X127199122Y-113320038D01*
X127199122Y-113320038D02*
X127294360Y-113272419D01*
X128056265Y-114177180D02*
X128103884Y-114224800D01*
X128103884Y-114224800D02*
X128056265Y-114272419D01*
X128056265Y-114272419D02*
X128008646Y-114224800D01*
X128008646Y-114224800D02*
X128056265Y-114177180D01*
X128056265Y-114177180D02*
X128056265Y-114272419D01*
X129056264Y-114272419D02*
X128484836Y-114272419D01*
X128770550Y-114272419D02*
X128770550Y-113272419D01*
X128770550Y-113272419D02*
X128675312Y-113415276D01*
X128675312Y-113415276D02*
X128580074Y-113510514D01*
X128580074Y-113510514D02*
X128484836Y-113558133D01*
X129913407Y-113272419D02*
X129722931Y-113272419D01*
X129722931Y-113272419D02*
X129627693Y-113320038D01*
X129627693Y-113320038D02*
X129580074Y-113367657D01*
X129580074Y-113367657D02*
X129484836Y-113510514D01*
X129484836Y-113510514D02*
X129437217Y-113700990D01*
X129437217Y-113700990D02*
X129437217Y-114081942D01*
X129437217Y-114081942D02*
X129484836Y-114177180D01*
X129484836Y-114177180D02*
X129532455Y-114224800D01*
X129532455Y-114224800D02*
X129627693Y-114272419D01*
X129627693Y-114272419D02*
X129818169Y-114272419D01*
X129818169Y-114272419D02*
X129913407Y-114224800D01*
X129913407Y-114224800D02*
X129961026Y-114177180D01*
X129961026Y-114177180D02*
X130008645Y-114081942D01*
X130008645Y-114081942D02*
X130008645Y-113843847D01*
X130008645Y-113843847D02*
X129961026Y-113748609D01*
X129961026Y-113748609D02*
X129913407Y-113700990D01*
X129913407Y-113700990D02*
X129818169Y-113653371D01*
X129818169Y-113653371D02*
X129627693Y-113653371D01*
X129627693Y-113653371D02*
X129532455Y-113700990D01*
X129532455Y-113700990D02*
X129484836Y-113748609D01*
X129484836Y-113748609D02*
X129437217Y-113843847D01*
X126103884Y-116872419D02*
X126103884Y-115872419D01*
X126103884Y-115872419D02*
X126484836Y-115872419D01*
X126484836Y-115872419D02*
X126580074Y-115920038D01*
X126580074Y-115920038D02*
X126627693Y-115967657D01*
X126627693Y-115967657D02*
X126675312Y-116062895D01*
X126675312Y-116062895D02*
X126675312Y-116205752D01*
X126675312Y-116205752D02*
X126627693Y-116300990D01*
X126627693Y-116300990D02*
X126580074Y-116348609D01*
X126580074Y-116348609D02*
X126484836Y-116396228D01*
X126484836Y-116396228D02*
X126103884Y-116396228D01*
X127294360Y-115872419D02*
X127389598Y-115872419D01*
X127389598Y-115872419D02*
X127484836Y-115920038D01*
X127484836Y-115920038D02*
X127532455Y-115967657D01*
X127532455Y-115967657D02*
X127580074Y-116062895D01*
X127580074Y-116062895D02*
X127627693Y-116253371D01*
X127627693Y-116253371D02*
X127627693Y-116491466D01*
X127627693Y-116491466D02*
X127580074Y-116681942D01*
X127580074Y-116681942D02*
X127532455Y-116777180D01*
X127532455Y-116777180D02*
X127484836Y-116824800D01*
X127484836Y-116824800D02*
X127389598Y-116872419D01*
X127389598Y-116872419D02*
X127294360Y-116872419D01*
X127294360Y-116872419D02*
X127199122Y-116824800D01*
X127199122Y-116824800D02*
X127151503Y-116777180D01*
X127151503Y-116777180D02*
X127103884Y-116681942D01*
X127103884Y-116681942D02*
X127056265Y-116491466D01*
X127056265Y-116491466D02*
X127056265Y-116253371D01*
X127056265Y-116253371D02*
X127103884Y-116062895D01*
X127103884Y-116062895D02*
X127151503Y-115967657D01*
X127151503Y-115967657D02*
X127199122Y-115920038D01*
X127199122Y-115920038D02*
X127294360Y-115872419D01*
X128056265Y-116777180D02*
X128103884Y-116824800D01*
X128103884Y-116824800D02*
X128056265Y-116872419D01*
X128056265Y-116872419D02*
X128008646Y-116824800D01*
X128008646Y-116824800D02*
X128056265Y-116777180D01*
X128056265Y-116777180D02*
X128056265Y-116872419D01*
X129056264Y-116872419D02*
X128484836Y-116872419D01*
X128770550Y-116872419D02*
X128770550Y-115872419D01*
X128770550Y-115872419D02*
X128675312Y-116015276D01*
X128675312Y-116015276D02*
X128580074Y-116110514D01*
X128580074Y-116110514D02*
X128484836Y-116158133D01*
X129389598Y-115872419D02*
X130056264Y-115872419D01*
X130056264Y-115872419D02*
X129627693Y-116872419D01*
D11*
X164266666Y-100054819D02*
X164266666Y-100769104D01*
X164266666Y-100769104D02*
X164219047Y-100911961D01*
X164219047Y-100911961D02*
X164123809Y-101007200D01*
X164123809Y-101007200D02*
X163980952Y-101054819D01*
X163980952Y-101054819D02*
X163885714Y-101054819D01*
X165266666Y-101054819D02*
X164695238Y-101054819D01*
X164980952Y-101054819D02*
X164980952Y-100054819D01*
X164980952Y-100054819D02*
X164885714Y-100197676D01*
X164885714Y-100197676D02*
X164790476Y-100292914D01*
X164790476Y-100292914D02*
X164695238Y-100340533D01*
X151266666Y-118254819D02*
X151266666Y-118969104D01*
X151266666Y-118969104D02*
X151219047Y-119111961D01*
X151219047Y-119111961D02*
X151123809Y-119207200D01*
X151123809Y-119207200D02*
X150980952Y-119254819D01*
X150980952Y-119254819D02*
X150885714Y-119254819D01*
X152171428Y-118588152D02*
X152171428Y-119254819D01*
X151933333Y-118207200D02*
X151695238Y-118921485D01*
X151695238Y-118921485D02*
X152314285Y-118921485D01*
X142238095Y-88424819D02*
X142238095Y-89234342D01*
X142238095Y-89234342D02*
X142285714Y-89329580D01*
X142285714Y-89329580D02*
X142333333Y-89377200D01*
X142333333Y-89377200D02*
X142428571Y-89424819D01*
X142428571Y-89424819D02*
X142619047Y-89424819D01*
X142619047Y-89424819D02*
X142714285Y-89377200D01*
X142714285Y-89377200D02*
X142761904Y-89329580D01*
X142761904Y-89329580D02*
X142809523Y-89234342D01*
X142809523Y-89234342D02*
X142809523Y-88424819D01*
X143809523Y-89424819D02*
X143238095Y-89424819D01*
X143523809Y-89424819D02*
X143523809Y-88424819D01*
X143523809Y-88424819D02*
X143428571Y-88567676D01*
X143428571Y-88567676D02*
X143333333Y-88662914D01*
X143333333Y-88662914D02*
X143238095Y-88710533D01*
X120866666Y-99854819D02*
X120866666Y-100569104D01*
X120866666Y-100569104D02*
X120819047Y-100711961D01*
X120819047Y-100711961D02*
X120723809Y-100807200D01*
X120723809Y-100807200D02*
X120580952Y-100854819D01*
X120580952Y-100854819D02*
X120485714Y-100854819D01*
X121295238Y-99950057D02*
X121342857Y-99902438D01*
X121342857Y-99902438D02*
X121438095Y-99854819D01*
X121438095Y-99854819D02*
X121676190Y-99854819D01*
X121676190Y-99854819D02*
X121771428Y-99902438D01*
X121771428Y-99902438D02*
X121819047Y-99950057D01*
X121819047Y-99950057D02*
X121866666Y-100045295D01*
X121866666Y-100045295D02*
X121866666Y-100140533D01*
X121866666Y-100140533D02*
X121819047Y-100283390D01*
X121819047Y-100283390D02*
X121247619Y-100854819D01*
X121247619Y-100854819D02*
X121866666Y-100854819D01*
X128266666Y-125454819D02*
X128266666Y-126169104D01*
X128266666Y-126169104D02*
X128219047Y-126311961D01*
X128219047Y-126311961D02*
X128123809Y-126407200D01*
X128123809Y-126407200D02*
X127980952Y-126454819D01*
X127980952Y-126454819D02*
X127885714Y-126454819D01*
X128647619Y-125454819D02*
X129266666Y-125454819D01*
X129266666Y-125454819D02*
X128933333Y-125835771D01*
X128933333Y-125835771D02*
X129076190Y-125835771D01*
X129076190Y-125835771D02*
X129171428Y-125883390D01*
X129171428Y-125883390D02*
X129219047Y-125931009D01*
X129219047Y-125931009D02*
X129266666Y-126026247D01*
X129266666Y-126026247D02*
X129266666Y-126264342D01*
X129266666Y-126264342D02*
X129219047Y-126359580D01*
X129219047Y-126359580D02*
X129171428Y-126407200D01*
X129171428Y-126407200D02*
X129076190Y-126454819D01*
X129076190Y-126454819D02*
X128790476Y-126454819D01*
X128790476Y-126454819D02*
X128695238Y-126407200D01*
X128695238Y-126407200D02*
X128647619Y-126359580D01*
D12*
%TO.C,J1*%
X160670000Y-99970000D02*
X162000000Y-99970000D01*
X160670000Y-101300000D02*
X160670000Y-99970000D01*
X160670000Y-102570000D02*
X160670000Y-128030000D01*
X160670000Y-102570000D02*
X163330000Y-102570000D01*
X160670000Y-128030000D02*
X163330000Y-128030000D01*
X163330000Y-102570000D02*
X163330000Y-128030000D01*
%TO.C,J4*%
X152670000Y-117470000D02*
X152670000Y-114870000D01*
X155330000Y-114870000D02*
X152670000Y-114870000D01*
X155330000Y-117470000D02*
X152670000Y-117470000D01*
X155330000Y-117470000D02*
X155330000Y-114870000D01*
X155330000Y-118740000D02*
X155330000Y-120070000D01*
X155330000Y-120070000D02*
X154000000Y-120070000D01*
D10*
%TO.C,U1*%
X135499990Y-89720000D02*
X150500010Y-89720000D01*
X135499990Y-99118000D02*
X135499990Y-89720000D01*
X135499990Y-112320000D02*
X135499990Y-111183000D01*
X135499990Y-112320000D02*
X136388990Y-112320000D01*
D13*
X135975010Y-90250000D02*
X150019990Y-90250000D01*
X135975010Y-95775000D02*
X135975010Y-90250000D01*
X141349990Y-91170000D02*
X150019990Y-91170000D01*
D10*
X149596990Y-112320000D02*
X150500010Y-112320000D01*
D13*
X150019990Y-91170000D02*
X150019990Y-90250000D01*
D10*
X150500010Y-99118000D02*
X150500010Y-89720000D01*
X150500010Y-112320000D02*
X150500010Y-111183000D01*
D12*
%TO.C,J2*%
X122670000Y-99890000D02*
X124000000Y-99890000D01*
X122670000Y-101220000D02*
X122670000Y-99890000D01*
X122670000Y-102490000D02*
X122670000Y-127950000D01*
X122670000Y-102490000D02*
X125330000Y-102490000D01*
X122670000Y-127950000D02*
X125330000Y-127950000D01*
X125330000Y-102490000D02*
X125330000Y-127950000D01*
%TO.C,J3*%
X127430000Y-129330000D02*
X127430000Y-128000000D01*
X128760000Y-129330000D02*
X127430000Y-129330000D01*
X130030000Y-126670000D02*
X158030000Y-126670000D01*
X130030000Y-129330000D02*
X130030000Y-126670000D01*
X130030000Y-129330000D02*
X158030000Y-129330000D01*
X158030000Y-129330000D02*
X158030000Y-126670000D01*
%TD*%
M02*
